<svg width="97" height="64" viewBox="0 0 97 64" fill="none" xmlns="http://www.w3.org/2000/svg">
<g clip-path="url(#clip0_29_38)">
<path d="M12.0298 60.1822C12.0298 60.1822 -0.175809 30.3582 5.27775 16.6065C10.7313 2.85478 43.0199 3.62832 49.8585 16.6065C56.697 29.5847 47.0018 61.0417 47.0018 61.0417L12.0298 60.1822Z" fill="url(#paint0_radial_29_38)"/>
<path d="M12.0297 61.0417H66.5653L76.4337 6.89435C76.4337 6.89435 50.724 0.87798 17.5699 7.66788C17.5699 7.66788 4.67174 10.762 3.8061 23.1386C3.02702 35.4291 12.0297 61.0417 12.0297 61.0417Z" fill="url(#paint1_linear_29_38)"/>
<path d="M56.697 61.0417C56.697 61.0417 49.945 30.4441 54.5329 16.6065C59.1208 2.85478 85.9558 3.62832 91.669 16.6065C97.3823 29.5847 85.7827 60.1822 85.7827 60.1822L56.697 61.0417Z" fill="url(#paint2_linear_29_38)"/>
<path opacity="0.3" d="M80.5022 11.3637C79.2903 9.73065 67.431 11.4496 65.6997 12.9967C64.055 14.5438 64.3147 53.3923 65.1803 54.5096C66.046 55.7129 77.2128 55.2832 77.8187 55.2832C78.4247 55.2832 80.5022 11.3637 80.5022 11.3637Z" fill="#D42F55"/>
<path opacity="0.3" d="M85.6095 12.8247C83.7051 12.6528 79.0306 55.7988 79.55 55.7988C80.0694 55.8848 83.7917 54.9393 86.4752 48.2354C89.1587 41.5314 90.5437 25.1153 90.1109 21.5914C89.6781 17.9816 85.6095 12.8247 85.6095 12.8247Z" fill="#D42F55"/>
<path d="M86.6483 61.0417C86.4752 61.4715 86.3886 61.8152 86.3021 62.159C86.1289 62.6747 86.0424 63.0185 85.9558 63.1045L81.9738 63.0185C81.9738 62.9326 82.147 62.6747 82.3201 62.245C82.7529 61.2136 83.4454 59.2368 84.3977 56.6584C87.6005 47.6338 92.6213 31.0458 90.7169 21.5056C88.3796 9.55877 74.183 3.62835 63.9684 6.98033C63.8819 6.98033 63.7953 7.06627 63.7953 7.06627C61.4581 7.83981 59.3805 9.12903 57.7358 10.9339L57.6492 11.0199C66.3057 1.3937 91.0631 0.190421 93.3138 18.5833C95.2182 33.968 88.8124 54.5956 86.6483 61.0417Z" fill="url(#paint3_linear_29_38)"/>
<path d="M62.5834 8.44141L63.449 56.1426C63.449 56.2286 64.5744 14.6297 62.5834 8.44141Z" fill="#8D001A"/>
<path d="M81.4545 9.12903L78.3381 56.4865C78.3381 56.4865 82.3201 23.3964 81.4545 9.12903Z" fill="#8D001A"/>
<path d="M52.9748 63.1904H46.2227C46.2227 63.1904 40.596 35.601 42.9333 20.3022C45.6168 2.59691 62.064 -1.7005 76.4337 0.877949C76.4337 0.877949 60.679 -0.0674799 54.7926 10.5901C48.9928 21.2477 52.9748 63.1904 52.9748 63.1904Z" fill="url(#paint4_linear_29_38)"/>
<path d="M94.9585 41.0157C92.9675 52.8765 90.0243 63.1044 90.0243 63.1044H85.9558C85.9558 63.0184 86.1289 62.7606 86.3021 62.1589C86.3886 61.9011 86.5617 61.4714 86.6483 61.0416C88.8124 54.5955 95.0451 34.2258 93.3138 19.6146C91.7556 7.32402 75.3084 2.68282 63.9684 6.98022C63.8819 6.98022 63.7953 7.06617 63.7953 7.06617C61.4581 7.92565 59.3805 9.21488 57.7358 10.9338L57.6492 11.0198C55.9179 12.7388 54.706 14.8015 54.0135 17.38C50.8106 29.5846 54.1001 47.204 56.1776 56.2285C56.8701 59.0648 57.3895 61.987 57.6492 62.6746L57.7358 62.9325L52.9747 63.1903C52.9747 63.1903 45.0108 36.3745 50.7241 16.1767C57.9089 -8.92019 94.9585 -1.01295 96.5167 19.9584C96.9495 26.3186 96.1704 33.9679 94.9585 41.0157Z" fill="url(#paint5_linear_29_38)"/>
<path d="M52.6285 30.9597C52.6285 30.9597 75.4815 31.7332 92.1884 31.6473C92.1884 31.6473 91.5825 36.7182 91.3228 38.0075C91.0631 39.2967 52.8882 38.0075 52.8882 38.0075L52.6285 30.9597Z" fill="url(#paint6_linear_29_38)"/>
<path d="M52.6285 30.9599C52.6285 30.9599 78.6844 32.1632 92.1884 31.6475C92.275 31.6475 73.1443 29.8426 52.6285 30.9599Z" fill="url(#paint7_linear_29_38)"/>
<path d="M11.4238 63.1044C11.4238 63.1044 -2.16682 38.4373 1.12263 19.5287C3.80613 3.88609 23.1966 4.14394 23.1966 4.14394C23.1966 4.14394 12.6357 6.2067 8.13435 16.8643C3.633 27.5218 16.7042 63.1044 16.7042 63.1044H11.4238Z" fill="url(#paint8_linear_29_38)"/>
<path d="M24.7547 60.1822C24.7547 60.1822 14.6267 36.6324 16.7908 21.0758C18.9549 5.51921 34.1037 5.17542 34.1037 5.17542C34.1037 5.17542 20.9459 7.41007 17.8296 19.185C13.9342 33.5383 24.7547 60.1822 24.7547 60.1822Z" fill="#9F001A"/>
<path d="M39.1244 60.1822C39.1244 60.1822 30.5546 31.9053 33.844 16.7784C36.9603 2.94072 48.9928 4.40184 48.9928 4.40184C48.9928 4.40184 37.7394 3.11262 34.2768 18.3254C30.7277 34.5696 39.1244 60.1822 39.1244 60.1822Z" fill="#9F001A"/>
<path d="M36.3544 5.00352C36.3544 5.00352 29.7755 2.94076 19.9071 4.48783C10.0388 6.0349 5.45085 17.2082 6.66275 31.3037C7.96122 45.3992 16.6177 63.1045 16.6177 63.1045H20.4265L24.6682 60.1822L19.4743 60.0963C19.4743 60.0963 7.78809 38.3514 10.6447 20.6461C12.982 5.863 36.3544 5.00352 36.3544 5.00352Z" fill="url(#paint9_linear_29_38)"/>
<path d="M9.08655 37.148C9.08655 37.148 7.70151 32.8506 7.96121 30.9597C8.2209 29.0689 42.4139 28.897 42.4139 28.897L42.7601 37.148C42.6736 37.148 18.9549 39.1248 9.08655 37.148Z" fill="url(#paint10_linear_29_38)"/>
<path d="M23.0234 36.4604L23.2831 34.7414C23.2831 34.7414 21.9847 33.2803 22.4175 32.3349C22.8503 31.3895 24.2353 31.3035 24.5816 31.8192C25.0144 32.3349 24.2353 34.6555 24.2353 34.6555L25.1876 36.5464L23.0234 36.4604Z" fill="#9F001A"/>
<path opacity="0.5" d="M6.57617 23.998C7.09556 25.8029 10.385 30.0144 10.385 30.0144C10.385 30.0144 10.2984 19.7006 14.7998 14.1139C19.2146 8.52732 33.1515 5.17534 33.1515 5.17534C33.1515 5.17534 24.6681 1.99526 16.7908 5.77698C8.91341 9.47275 6.57617 23.998 6.57617 23.998Z" fill="#BE2F55"/>
<path opacity="0.5" d="M52.7151 26.4045C52.9748 27.7797 56.4374 12.2231 73.5771 12.1371C90.8035 12.0512 89.9378 25.2013 92.1885 25.8029C94.4392 26.3186 95.0451 11.1917 83.3589 7.49594C71.6727 3.80016 62.1506 6.37861 57.4761 11.1058C52.8016 15.8329 52.7151 26.4045 52.7151 26.4045Z" fill="#BE2F55"/>
<path opacity="0.5" d="M53.9269 44.3677C53.9269 39.8125 80.6754 39.9844 84.0514 39.5546C87.4274 39.1249 87.8602 46.5164 89.4184 44.3677C90.9765 42.219 91.4094 38.0076 91.4094 38.0076C91.4094 38.0076 75.7412 38.1795 52.9747 38.0076L53.9269 44.3677Z" fill="#BE2F55"/>
<path opacity="0.5" d="M57.7358 62.9325C57.7358 62.9325 54.2732 63.1044 52.9747 61.9871C51.6763 60.8698 47.6943 38.0935 48.9062 26.9203C50.1181 15.747 55.8313 6.29271 59.3805 4.65969C62.9296 3.02668 56.3507 7.92572 53.4941 16.9503C50.724 25.9748 51.8494 48.5792 57.7358 62.9325Z" fill="#FF6D55"/>
<path d="M86.0424 62.1589C85.9558 62.6746 85.9558 63.0184 85.9558 63.1044L81.9739 62.9325H58.2552H57.7358L57.6493 62.5887L55.918 56.1426C55.918 56.1426 56.0045 56.1426 56.1777 56.1426C58.6015 56.1426 77.9053 56.3145 84.3111 56.4864C85.523 56.4864 86.2155 56.5723 86.3021 56.5723C86.6484 56.8302 86.3021 60.44 86.0424 62.1589Z" fill="url(#paint11_linear_29_38)"/>
<path d="M14.0208 57.174C14.8864 56.8302 45.2705 57.174 45.2705 57.174L46.2227 63.1904L16.7043 63.1045L14.0208 57.174Z" fill="url(#paint12_linear_29_38)"/>
<path d="M14.0208 57.1739L17.3102 55.5409C17.3102 55.5409 31.5068 57.7756 44.7511 54.4236L45.184 57.1739H14.0208Z" fill="url(#paint13_linear_29_38)"/>
<path d="M7.87463 30.9597L10.2984 30.0143C10.2984 30.0143 32.0261 28.2094 42.3273 28.8969C42.3273 28.8969 23.1965 30.8737 7.87463 30.9597Z" fill="url(#paint14_linear_29_38)"/>
<path opacity="0.5" d="M9.08655 37.1479C9.08655 37.1479 12.1163 43.8519 13.3282 44.7114C14.5401 45.5709 13.2416 40.328 26.8323 39.5545C40.4229 38.695 43.2795 43.5081 43.2795 43.5081L42.6736 37.1479C42.6736 37.1479 20.8593 38.0074 9.08655 37.1479Z" fill="#BE2F55"/>
<path d="M43.7123 18.9271C43.4526 20.9898 48.3003 20.0444 48.9928 19.7006C49.6853 19.3568 53.0613 10.0744 53.9269 8.52736C54.7926 6.98029 50.0315 7.92572 48.6465 8.69925C47.2615 9.47279 44.2317 14.028 43.7123 18.9271Z" fill="white"/>
<path d="M6.05682 21.9352C5.71056 23.3104 0.689819 22.6228 0.689819 22.6228C0.689819 22.6228 1.81516 14.8015 4.06583 12.309C6.31651 9.81651 8.91344 8.87108 9.95222 9.38677C10.991 9.90246 7.61498 14.9734 6.05682 21.9352Z" fill="white"/>
<path opacity="0.2" d="M0.689793 23.6541C0.603229 24.0839 0.776357 30.7019 1.20918 31.3894C1.642 32.077 5.27771 32.5068 6.05679 32.2489C6.83587 31.9911 6.22992 24.2558 6.05679 23.6541C5.88366 23.0525 0.689793 23.6541 0.689793 23.6541Z" fill="#E02774"/>
<path opacity="0.2" d="M44.1452 20.2164C42.9333 20.0445 43.4527 27.1782 43.193 27.9517C43.0198 28.7253 46.9152 28.6393 47.3481 28.3815C47.7809 28.1236 48.9062 22.1073 48.56 20.9899C48.3868 19.8726 44.1452 20.2164 44.1452 20.2164Z" fill="#E02774"/>
<path opacity="0.2" d="M41.8079 29.8424C41.6348 28.983 28.7367 30.7879 27.4382 31.1317C26.1398 31.5614 25.2741 36.7183 26.1398 37.0621C27.0054 37.4059 42.0676 36.6324 42.3273 36.3745C42.6736 36.2026 41.8079 29.8424 41.8079 29.8424Z" fill="#E02774"/>
<path opacity="0.5" d="M53.0613 32.3349C53.4941 30.9597 76.78 32.2489 79.2904 33.2803C81.7142 34.3117 80.0694 37.148 79.2904 37.6637C78.5113 38.1794 53.6673 38.0075 53.4076 37.6637C52.9748 37.3199 53.0613 32.3349 53.0613 32.3349Z" fill="#FF6D55"/>
<path d="M52.6285 10.762C52.5419 8.69929 47.348 12.8248 47.4346 16.1768C47.5212 19.4428 50.6375 16.2627 50.6375 16.2627L52.6285 10.762Z" fill="white"/>
<path d="M9.08653 13.2545C9.86561 9.38679 4.32549 17.1221 4.32549 19.6146C4.23892 22.1071 7.61494 20.3882 9.08653 13.2545Z" fill="white"/>
<path d="M9.95223 30.9598C8.13438 31.4754 12.8089 33.6242 14.6267 33.6242C16.4446 33.6242 19.4743 30.616 19.4743 30.616L9.95223 30.9598Z" fill="white"/>
<path d="M32.5456 57.1739C30.7277 56.2285 39.9901 55.0252 41.6348 55.4549C43.2795 55.8847 44.4915 57.6036 44.4915 57.6036L32.5456 57.1739Z" fill="white"/>
<path opacity="0.5" d="M9.86566 60.0962C9.86566 60.0962 11.6835 63.0184 26.7457 62.5887C41.808 62.1589 52.9748 62.073 52.9748 62.073L58.0821 63.0184L52.9748 63.2763L11.4238 63.1903L9.86566 60.0962Z" fill="#BE2F55"/>
<path opacity="0.5" d="M87.8602 46.3445C87.8602 46.3445 84.1379 53.9939 82.4932 54.9393C80.8485 55.8847 59.4671 54.9393 57.4761 54.9393C55.4851 54.9393 54.8792 50.2121 54.8792 50.2121L55.9179 56.2285L85.0901 56.4864L87.8602 46.3445Z" fill="#BE2F55"/>
<path d="M17.3102 21.2476C17.0505 23.2245 31.6799 20.3022 32.3724 18.927C33.0649 17.5519 38.5185 7.40999 40.5095 5.69103C42.5004 3.97207 30.468 5.43319 27.1785 7.66784C23.8891 9.90249 18.1758 14.114 17.3102 21.2476Z" fill="#FF9CA1"/>
<path d="M34.8828 18.3254C34.7962 20.1303 39.9901 19.099 41.0289 18.6692C42.0676 18.2395 47.4346 7.75381 50.1181 5.77701C52.8016 3.8002 41.9811 5.43321 39.4707 8.18355C36.9603 10.8479 34.8828 18.3254 34.8828 18.3254Z" fill="#FF9CA1"/>
<path d="M16.7908 21.0758C14.7998 22.1072 12.1163 21.5055 11.77 20.2163C11.4238 18.9271 15.5789 12.1372 20.1668 10.0744C24.7547 8.01168 17.6564 11.3637 16.7908 21.0758Z" fill="#FF9CA1"/>
<path opacity="0.5" d="M94.9585 41.0156C92.9675 52.8765 90.0244 63.1043 90.0244 63.1043H85.9558L81.9739 63.0184H58.2552L86.129 62.1589C86.129 62.1589 86.2155 62.1589 86.3021 62.1589C86.9946 62.2448 89.2453 62.5027 89.7647 62.3308C90.284 62.2448 94.872 41.5313 94.9585 41.0156Z" fill="#BE2F55"/>
<path opacity="0.5" d="M14.0207 57.174C14.0207 57.174 10.385 46.7743 10.7313 45.6569C11.0775 44.5396 16.3579 53.7361 18.6952 54.8534C21.0324 55.9707 28.477 56.1426 28.477 56.1426C28.477 56.1426 18.6952 56.0567 17.3102 55.541C15.9251 55.1112 14.0207 57.174 14.0207 57.174Z" fill="#BE2F55"/>
<path opacity="0.3" d="M24.3219 55.3692C23.0235 55.5411 20.4265 42.7348 21.4653 41.3596C22.5041 39.9844 31.3337 41.1018 33.1515 42.0472C34.9694 42.9926 36.7872 54.6816 36.3544 55.3692C36.0081 56.0567 25.5338 55.1973 24.3219 55.3692Z" fill="#D42F55"/>
<path opacity="0.3" d="M36.8737 41.4456C35.5753 41.2737 38.0856 53.994 38.7782 54.4237C39.4707 54.8535 43.6258 54.4237 43.972 53.3064C44.3183 52.1891 43.2795 44.9694 42.587 43.6802C41.9811 42.391 36.8737 41.4456 36.8737 41.4456Z" fill="#D42F55"/>
<path opacity="0.2" d="M9.86562 36.8903C9.51937 35.4292 13.9342 33.9681 17.0505 34.3978C20.1668 34.8276 21.725 37.2341 21.725 37.2341L9.86562 36.8903Z" fill="#E02774"/>
<path d="M6.22995 47.4619C6.74934 45.1413 7.96124 48.5792 7.96124 49.6965C7.96124 50.8138 5.624 50.2122 6.22995 47.4619Z" fill="white"/>
</g>
<defs>
<radialGradient id="paint0_radial_29_38" cx="0" cy="0" r="1" gradientUnits="userSpaceOnUse" gradientTransform="translate(19.2768 23.2527) scale(38.1639 37.8921)">
<stop stop-color="#CE5411"/>
<stop offset="1" stop-color="#B42B00"/>
</radialGradient>
<linearGradient id="paint1_linear_29_38" x1="40.1349" y1="61.0313" x2="40.1349" y2="4.42781" gradientUnits="userSpaceOnUse">
<stop stop-color="#B42B00"/>
<stop offset="1" stop-color="#CE5411"/>
</linearGradient>
<linearGradient id="paint2_linear_29_38" x1="73.1239" y1="61.0313" x2="73.1239" y2="6.57711" gradientUnits="userSpaceOnUse">
<stop stop-color="#A71100"/>
<stop offset="1" stop-color="#B53303"/>
</linearGradient>
<linearGradient id="paint3_linear_29_38" x1="75.6186" y1="63.0987" x2="75.6186" y2="4.14524" gradientUnits="userSpaceOnUse">
<stop offset="0.0502793" stop-color="#FF3F00"/>
<stop offset="1" stop-color="#D92E03"/>
</linearGradient>
<linearGradient id="paint4_linear_29_38" x1="59.4005" y1="63.2164" x2="59.4005" y2="0.190362" gradientUnits="userSpaceOnUse">
<stop stop-color="#FF9600"/>
<stop offset="1" stop-color="#FFA900"/>
</linearGradient>
<linearGradient id="paint5_linear_29_38" x1="72.6464" y1="63.2204" x2="72.6464" y2="0.519673" gradientUnits="userSpaceOnUse">
<stop stop-color="#FF7C00"/>
<stop offset="1" stop-color="#FF6800"/>
</linearGradient>
<linearGradient id="paint6_linear_29_38" x1="52.6717" y1="34.7981" x2="92.2386" y2="34.7981" gradientUnits="userSpaceOnUse">
<stop stop-color="#FF7A00"/>
<stop offset="1" stop-color="#FF6800"/>
</linearGradient>
<linearGradient id="paint7_linear_29_38" x1="72.4551" y1="31.7903" x2="72.4551" y2="30.6175" gradientUnits="userSpaceOnUse">
<stop stop-color="#FF9600"/>
<stop offset="1" stop-color="#FFA900"/>
</linearGradient>
<linearGradient id="paint8_linear_29_38" x1="11.8841" y1="63.1021" x2="11.8841" y2="4.14342" gradientUnits="userSpaceOnUse">
<stop stop-color="#FF9600"/>
<stop offset="1" stop-color="#FFA900"/>
</linearGradient>
<linearGradient id="paint9_linear_29_38" x1="21.4252" y1="63.1021" x2="21.4252" y2="3.89075" gradientUnits="userSpaceOnUse">
<stop stop-color="#FF6400"/>
<stop offset="1" stop-color="#FF6800"/>
</linearGradient>
<linearGradient id="paint10_linear_29_38" x1="25.261" y1="38.0527" x2="25.261" y2="28.9377" gradientUnits="userSpaceOnUse">
<stop stop-color="#FF9600"/>
<stop offset="1" stop-color="#FFA900"/>
</linearGradient>
<linearGradient id="paint11_linear_29_38" x1="55.9312" y1="59.6536" x2="86.4623" y2="59.6536" gradientUnits="userSpaceOnUse">
<stop stop-color="#FF7A00"/>
<stop offset="1" stop-color="#FF6800"/>
</linearGradient>
<linearGradient id="paint12_linear_29_38" x1="30.1012" y1="63.2165" x2="30.1012" y2="57.0416" gradientUnits="userSpaceOnUse">
<stop stop-color="#FF9600"/>
<stop offset="1" stop-color="#FFA900"/>
</linearGradient>
<linearGradient id="paint13_linear_29_38" x1="29.6172" y1="57.208" x2="29.6172" y2="54.4342" gradientUnits="userSpaceOnUse">
<stop stop-color="#FFDE00"/>
<stop offset="1" stop-color="#FFE834"/>
</linearGradient>
<linearGradient id="paint14_linear_29_38" x1="25.1138" y1="30.974" x2="25.1138" y2="28.7747" gradientUnits="userSpaceOnUse">
<stop stop-color="#FFDE00"/>
<stop offset="1" stop-color="#FFE834"/>
</linearGradient>
<clipPath id="clip0_29_38">
<rect width="96" height="63" fill="white" transform="translate(0.603271 0.190308)"/>
</clipPath>
</defs>
</svg>
