<svg width="155" height="99" viewBox="0 0 155 99" fill="none" xmlns="http://www.w3.org/2000/svg">
<path d="M14.0079 51.6581C14.0351 51.6852 14.0622 51.6852 14.0893 51.7123C14.3335 51.8208 14.6319 51.848 14.876 51.7395L88.8513 22.1982C89.0955 22.1168 89.2582 21.9269 89.3667 21.7099C89.421 21.6285 90.4247 19.5397 91.1842 17.261C92.405 13.6803 92.3507 11.6186 90.9944 10.832C90.9672 10.8048 90.913 10.8048 90.8858 10.7777C90.6417 10.6421 90.3704 10.6421 90.0992 10.7234C89.8279 10.8048 89.638 10.9947 89.5295 11.2389C88.7428 12.975 87.0609 14.684 85.569 15.959C86.5455 13.9787 88.2003 11.2389 90.9401 8.25489C91.2385 7.92936 91.2927 7.41395 91.0486 7.03417C90.9672 6.89854 90.8587 6.81716 90.7231 6.73578C90.4789 6.57301 90.1534 6.54589 89.8821 6.65439C86.871 7.71235 84.8094 9.85538 82.802 11.9442C82.0696 12.7037 81.31 13.4904 80.4962 14.2228C81.0387 11.6729 80.6318 9.20433 80.6047 9.04157C80.5505 8.74317 80.3877 8.49903 80.1436 8.3634C80.035 8.28201 79.8723 8.22776 79.7367 8.22776C79.3026 8.17351 78.8686 8.44478 78.7058 8.85168C78.7058 8.85168 78.326 9.74687 77.1596 11.1032C77.7564 9.71974 78.109 8.68892 78.1362 8.58041C78.2718 8.14638 78.0819 7.65809 77.7021 7.44108C77.675 7.44108 77.6479 7.41395 77.6479 7.41395C77.2138 7.19693 76.6713 7.33257 76.4 7.71235C74.474 10.3708 71.3544 11.8357 69.4826 12.5138C69.9981 9.31284 69.5369 5.70495 69.5098 5.51506C69.4555 5.21666 69.2928 4.94539 69.0486 4.80976C68.8587 4.70125 68.6417 4.647 68.3976 4.67412C67.855 4.75551 67.4753 5.24379 67.5295 5.78633C67.5295 5.89484 67.7465 8.3634 64.6269 10.5064C65.1695 8.22776 67.7194 4.70125 69.8082 2.47684C70.1608 2.09706 70.1608 1.52739 69.8082 1.12049C69.7539 1.03911 69.6725 0.984853 69.5912 0.930599C69.2385 0.713583 68.8045 0.74071 68.479 0.984853C68.3433 1.09336 65.3865 3.31777 58.0079 9.85538C57.8994 7.82086 59.9611 5.62357 59.9882 5.59644C60.368 5.21666 60.3409 4.59274 59.9611 4.21297C59.9068 4.15871 59.8526 4.10446 59.7712 4.07733C59.3914 3.86031 58.9031 3.88744 58.5776 4.21297C58.4691 4.32147 56.4346 6.30174 54.1559 10.8862C53.1522 8.58041 51.1991 5.92197 49.0831 4.647C47.9438 3.9417 46.8045 3.69755 45.7465 3.91457C45.3667 3.99595 45.0684 4.26722 44.987 4.61987C44.8785 4.97252 44.987 5.37943 45.2854 5.62357C46.7231 6.92566 47.4284 8.3634 47.4284 9.99102C47.4284 12.5681 45.6651 15.0638 44.4173 16.5286C44.0647 14.6297 43.712 11.483 44.6072 8.98732C44.7428 8.58041 44.6343 8.11925 44.2817 7.87511C44.2545 7.84798 44.2274 7.82086 44.1732 7.82086C43.8476 7.63097 43.4136 7.63097 43.0881 7.84798C40.4568 9.63836 38.9648 13.9244 38.2323 16.9355C37.093 13.8702 36.0351 9.63836 37.1744 7.11555C37.3643 6.73578 37.2558 6.27462 36.9574 5.97622C36.9031 5.92197 36.8489 5.89484 36.7946 5.84058C36.4962 5.6507 36.1164 5.6507 35.818 5.81346C29.1719 9.31284 28.8735 16.4744 29.3618 20.7062C28.548 19.9737 27.5443 19.1871 26.4321 18.536C24.1263 17.1525 21.9833 16.61 20.0301 16.9898C19.6232 17.0712 19.2977 17.3696 19.2435 17.7765C19.1621 18.1834 19.352 18.5903 19.7046 18.8073C21.3051 19.7839 22.4444 22.4966 23.1769 25.2635C22.3088 23.9343 21.278 22.6051 20.0844 21.5471C20.0301 21.52 20.003 21.4657 19.9488 21.4386C19.7589 21.3301 19.569 21.2758 19.352 21.303C19.0807 21.3301 18.8365 21.4657 18.6738 21.6556C18.4296 21.954 18.2398 22.3881 18.1312 22.8763C17.9414 21.0317 17.8871 19.1599 17.9685 17.1254C17.9956 16.7456 17.8057 16.4201 17.4802 16.2302C17.4531 16.2031 17.4259 16.2031 17.3988 16.2031C17.0462 16.0403 16.6121 16.0675 16.3137 16.3387C11.241 20.5705 11.4309 29.9565 11.8649 34.6223C10.8341 33.7543 9.47773 32.7506 8.04 31.8825C5.3273 30.2278 3.04863 29.6581 1.31251 30.1192C0.878475 30.2278 0.580078 30.6347 0.580078 31.0958C0.580078 31.4485 0.769967 31.7469 1.06836 31.9368C1.14975 31.991 1.25825 32.0181 1.33963 32.0453C1.85505 32.1809 2.37046 32.3979 2.88587 32.6963C8.98945 36.3856 13.5197 50.9799 13.5468 51.1155C13.6553 51.3326 13.7909 51.5496 14.0079 51.6581Z" fill="url(#paint0_linear_23_1563)"/>
<path d="M17.2089 38.1761C17.2089 38.1761 14.8218 25.0195 20.5727 20.2451C20.0573 31.0688 24.6146 37.0096 24.6146 37.0096C24.6146 37.0096 21.0881 26.837 22.77 24.8025C26.0523 27.705 28.0326 33.1576 28.0326 33.1576C28.0326 33.1576 27.2188 23.1748 23.5024 20.8962C28.1411 20.0552 33.1054 26.0774 33.1054 26.0774C33.1054 26.0774 29.7145 15.1181 37.8526 10.832C35.9266 15.0639 39.9142 23.0121 39.9142 23.0121C39.9142 23.0121 40.9722 14.9553 44.4445 12.5953C43.0881 16.366 44.6343 21.4387 44.6343 21.4387C44.6343 21.4387 52.3927 14.5213 46.5061 9.20443C49.897 8.55338 53.8575 15.1995 53.5862 17.2611C56.0005 11.5916 58.4149 9.25868 58.4149 9.25868C58.4149 9.25868 55.2139 12.5682 56.8686 15.2537C64.2743 8.68901 67.1769 6.4646 67.1769 6.4646C67.1769 6.4646 61.2903 12.7581 62.3483 15.7692C67.1226 13.4091 66.6886 9.90973 66.6886 9.90973C66.6886 9.90973 67.3125 14.4671 66.3359 17.3697C66.3359 17.3697 71.6799 16.1489 74.474 12.2698C74.474 12.2698 72.7379 17.7494 69.8896 19.8382C75.4235 16.2032 76.6442 13.1107 76.6442 13.1107C76.6442 13.1107 77.5394 18.3734 74.7724 20.6249C79.5468 18.0478 81.4457 13.3006 86.0844 11.673C81.0116 17.1798 79.9537 21.7914 79.9537 21.7914C79.9537 21.7914 84.7552 18.6446 86.3014 15.2809C88.2274 16.2846 84.5381 23.9073 84.5381 23.9073L18.4025 50.4375C18.4025 50.4375 13.4925 34.4054 6.84644 32.7507C10.6171 31.6927 17.2089 38.1761 17.2089 38.1761Z" fill="#318063"/>
<path d="M44.1459 65.7642C44.173 65.7371 44.173 65.71 44.2002 65.71C44.3901 65.5472 44.6342 65.4387 44.8783 65.4658L116.358 69.996C116.575 70.0232 116.792 70.1045 116.955 70.2673C117.009 70.3216 118.474 71.8407 119.749 73.5768C121.783 76.2895 122.326 78.0528 121.404 79.1378C121.376 79.165 121.349 79.1921 121.322 79.2192C121.159 79.382 120.915 79.4905 120.671 79.4905C120.427 79.4905 120.183 79.382 120.02 79.1921C118.854 77.9442 116.928 76.9405 115.3 76.2624C116.684 77.673 118.854 79.5719 122.028 81.3351C122.38 81.525 122.57 81.959 122.462 82.3388C122.434 82.4744 122.353 82.583 122.272 82.6915C122.109 82.8814 121.838 83.017 121.566 82.9899C118.691 82.9356 116.331 81.6606 114.052 80.4671C113.211 80.0059 112.343 79.5719 111.448 79.165C112.614 81.1724 112.967 83.4239 112.994 83.5595C113.021 83.8308 112.94 84.0749 112.777 84.2648C112.696 84.3733 112.587 84.4547 112.479 84.509C112.126 84.6717 111.692 84.5632 111.421 84.2648C111.421 84.2648 110.851 83.6138 109.468 82.7728C110.363 83.7765 110.96 84.5904 111.014 84.6717C111.258 84.9973 111.231 85.4584 110.96 85.7839C110.933 85.8111 110.933 85.8111 110.905 85.8382C110.607 86.1366 110.119 86.1908 109.739 85.9196C107.352 84.2106 104.286 83.8308 102.469 83.7494C103.798 86.3265 104.422 89.5546 104.449 89.7174C104.503 89.9886 104.422 90.2599 104.259 90.4498C104.124 90.5854 103.961 90.6939 103.744 90.7482C103.256 90.8296 102.794 90.5312 102.686 90.0429C102.659 89.9615 102.143 87.7913 98.8882 86.8419C100 88.6323 103.174 90.9381 105.561 92.2402C105.968 92.4572 106.131 92.9726 105.941 93.3795C105.914 93.4609 105.86 93.5423 105.806 93.5965C105.561 93.8678 105.182 93.9763 104.829 93.8678C104.693 93.8135 101.52 92.7285 93.4085 89.2291C93.8968 90.9923 96.2569 92.2944 96.284 92.2944C96.718 92.5114 96.8808 93.054 96.6638 93.488C96.6367 93.5423 96.5824 93.6236 96.5553 93.6779C96.3111 93.9763 95.85 94.0848 95.4973 93.8949C95.3888 93.8407 93.083 92.7013 89.8549 89.4461C89.6379 91.6976 88.7156 94.5188 87.2778 96.2007C86.4912 97.123 85.596 97.6384 84.6465 97.7741C84.321 97.8283 83.9683 97.6656 83.7785 97.3943C83.5886 97.123 83.5886 96.7432 83.7513 96.4449C84.6194 94.9257 84.8093 93.5151 84.3481 92.1045C83.6157 89.9072 81.4184 88.2525 79.9535 87.3573C80.1706 89.0934 80.7402 91.8604 82.2322 93.7322C82.4764 94.0305 82.4764 94.4646 82.2593 94.7901C82.2322 94.8172 82.2322 94.8444 82.2051 94.8715C81.9881 95.1428 81.6083 95.2513 81.2828 95.1428C78.5158 94.3561 76.0744 91.1008 74.5824 88.7408C74.4739 91.6705 74.7452 95.6039 76.427 97.4214C76.6983 97.6927 76.7254 98.1267 76.5627 98.4522C76.5355 98.5065 76.5084 98.5608 76.4542 98.615C76.2643 98.8592 75.9388 98.9677 75.6404 98.9134C68.9671 97.8012 66.7156 91.7519 65.956 88.0084C65.4677 88.8493 64.8167 89.7987 64.0571 90.6939C62.4838 92.5114 60.8019 93.5694 59.0386 93.8135C58.6589 93.8678 58.3062 93.6779 58.1434 93.3524C57.9536 93.0269 58.0078 92.6199 58.252 92.3487C59.3642 91.0737 59.5541 88.4424 59.3913 85.8653C59.0115 87.2488 58.4961 88.6594 57.7908 89.9072C57.7637 89.9615 57.7365 89.9886 57.7094 90.0429C57.6009 90.1785 57.4381 90.287 57.2483 90.3413C57.0041 90.3955 56.76 90.3684 56.5701 90.2328C56.2717 90.0429 56.0004 89.7445 55.7563 89.3376C56.0818 90.8567 56.543 92.4572 57.194 94.1662C57.3025 94.4646 57.2483 94.8172 57.0312 95.0614C57.0041 95.0885 57.0041 95.0885 56.977 95.1156C56.7328 95.3598 56.3531 95.4412 56.0275 95.3055C50.4665 93.1082 47.998 85.0244 47.0756 80.9282C46.4246 81.959 45.5836 83.2069 44.58 84.3462C42.7082 86.5164 40.9449 87.6557 39.3173 87.7371C38.9104 87.7642 38.5306 87.4929 38.4221 87.1132C38.3407 86.8148 38.395 86.4892 38.5849 86.2722C38.6391 86.218 38.7205 86.1366 38.8019 86.1095C39.2088 85.8653 39.5886 85.5398 39.9412 85.1058C44.1188 80.25 43.9018 66.5238 43.9018 66.3881C43.9289 66.144 44.0103 65.927 44.1459 65.7642Z" fill="url(#paint1_linear_23_1563)"/>
<path d="M49.4358 78.5681C49.4358 78.5681 51.172 91.1279 57.7638 93.7321C54.1017 84.1292 56.4617 77.4288 56.4617 77.4288C56.4617 77.4288 56.299 87.6286 58.4149 88.9849C60.5308 85.377 60.6935 79.8974 60.6935 79.8974C60.6935 79.8974 62.918 89.1477 60.2324 92.2673C64.6812 91.6705 67.3668 84.7802 67.3668 84.7802C67.3668 84.7802 67.5567 95.6581 76.1559 97.123C73.172 93.8678 74.4198 85.5398 74.4198 85.5398C74.4198 85.5398 77.7564 92.4843 81.5813 93.5694C79.2213 90.5583 79.1128 85.5398 79.1128 85.5398C79.1128 85.5398 88.1461 89.4732 84.4025 96.0108C87.6578 95.6039 89.2583 88.4424 88.3902 86.652C92.2151 91.0466 95.1177 92.43 95.1177 92.43C95.1177 92.43 91.2657 90.3955 91.971 87.4929C100.57 91.2364 103.853 92.3487 103.853 92.3487C103.853 92.3487 96.6911 88.4152 96.7453 85.377C101.737 86.1094 102.388 89.3647 102.388 89.3647C102.388 89.3647 101.601 85.0786 99.8649 82.7457C99.8649 82.7457 105.046 82.2845 108.708 84.9159C108.708 84.9159 105.534 80.4942 102.361 79.4633C108.437 81.1181 110.444 83.5053 110.444 83.5053C110.444 83.5053 109.685 78.4868 106.538 77.2932C111.584 78.2155 114.703 81.9048 119.396 82.0133C113.184 78.541 110.878 74.689 110.878 74.689C110.878 74.689 116.114 76.0996 118.501 78.6766C119.939 77.2118 114.351 71.4337 114.351 71.4337L46.8588 67.1748C46.8588 67.1748 47.1572 83.0712 41.6504 86.5163C45.3939 86.3536 49.4358 78.5681 49.4358 78.5681Z" fill="#318063"/>
<path d="M117.416 82.8816C113.537 82.5289 109.848 79.3279 105.969 79.1109C102.089 78.8939 98.1017 81.6609 94.1954 81.5524C90.3163 81.4439 86.4642 78.4328 82.5851 78.4328C78.7059 78.4328 74.8539 81.4167 70.9747 81.5524C67.0955 81.6609 63.0808 78.8939 59.2016 79.1109C55.3224 79.3279 51.6332 82.5561 47.754 82.8816C44.987 83.1257 42.3557 80.0875 39.7244 79.6263C37.0117 79.1652 33.6208 81.1726 31.1252 80.0875C28.6023 78.9753 27.5986 75.0148 25.4014 73.3329C23.2041 71.6239 19.2978 71.7595 17.5617 69.5622C15.8527 67.3649 16.7207 63.3773 15.5814 60.746C14.4692 58.196 10.9969 56.3243 10.5086 53.4217C10.5086 53.3674 10.4815 53.2047 10.4815 53.1504C10.4815 53.0961 10.4544 52.9334 10.4544 52.9063C10.4544 52.852 10.4273 52.7164 10.4273 52.6892C9.91185 49.6239 12.6788 46.5314 13.1128 43.5474C13.5469 40.5364 11.8379 36.7386 13.14 33.9987C14.4149 31.3132 18.3755 30.4451 20.3829 28.1936C22.3089 25.9963 22.7972 21.7916 25.32 20.164C27.7072 18.5906 31.5321 19.9198 34.3533 18.9704C37.0388 18.0481 39.3446 14.5758 42.3286 14.3317C46.7774 13.9519 51.4161 16.5561 55.8921 16.2848C60.3409 16.0136 64.7084 12.8939 69.1572 12.7583C73.6332 12.6227 78.1362 15.4981 82.5851 15.4981C87.061 15.4981 91.5641 12.6227 96.0129 12.7583C100.462 12.8939 104.829 16.0136 109.278 16.2848C113.727 16.5561 118.393 13.9248 122.842 14.3317C125.825 14.6029 128.131 18.0752 130.817 18.9704C133.665 19.947 137.463 18.5906 139.85 20.164C142.373 21.8187 142.861 26.0234 144.787 28.1936C146.795 30.4722 150.755 31.3132 152.03 33.9987C153.332 36.7386 151.623 40.5364 152.057 43.5474C152.491 46.5043 155.258 49.5968 154.743 52.6892C154.743 52.7435 154.716 52.8791 154.716 52.9063C154.716 52.9605 154.689 53.1233 154.689 53.1504C154.689 53.2047 154.661 53.3674 154.661 53.4217C154.2 56.3243 150.728 58.196 149.589 60.746C148.449 63.3773 149.317 67.3649 147.608 69.5622C145.872 71.7866 141.966 71.651 139.769 73.3329C137.571 75.0148 136.568 78.9753 134.045 80.0875C131.549 81.1726 128.158 79.1652 125.446 79.6263C122.787 80.0875 120.156 83.0986 117.416 82.8816Z" fill="url(#paint2_linear_23_1563)"/>
<path opacity="0.5" d="M151.243 49.8136C151.243 49.8407 151.216 49.9764 151.216 50.0306C151.216 50.0577 151.189 50.2205 151.189 50.2747C151.189 50.3019 151.162 50.4918 151.162 50.5189C150.809 52.4992 148.883 53.964 147.473 55.5374C146.957 56.1071 146.523 56.6767 146.225 57.3006C145.899 57.9788 145.737 58.7655 145.655 59.6064C145.384 61.6952 145.493 64.0281 144.299 65.493C142.617 67.5546 138.792 67.419 136.649 68.9924C134.533 70.5657 133.53 74.2279 131.061 75.2587C128.62 76.2895 125.31 74.4178 122.652 74.8247C120.075 75.2316 117.497 78.0528 114.812 77.8358C111.041 77.5103 107.433 74.5263 103.663 74.3364C99.8649 74.1194 95.9858 76.6964 92.188 76.5879C88.3902 76.4794 84.6467 73.7125 80.8489 73.7125C77.0511 73.7125 73.3076 76.4794 69.5098 76.5879C65.712 76.6964 61.8058 74.1194 58.0351 74.3364C54.2373 74.5534 50.6566 77.5374 46.8859 77.8358C44.2003 78.0528 41.6233 75.2316 39.0462 74.8247C36.3878 74.4178 33.0783 76.2624 30.6368 75.2587C28.1683 74.2279 27.1917 70.5657 25.0487 68.9924C22.9056 67.419 19.1079 67.5546 17.3989 65.493C15.717 63.4585 16.5851 59.7692 15.4728 57.3006C14.3878 54.9406 10.9969 53.2045 10.5357 50.5189C10.5357 50.4918 10.5086 50.3019 10.5086 50.2747C10.5086 50.2205 10.4815 50.0849 10.4815 50.0306C10.4815 49.9764 10.4544 49.8678 10.4544 49.8136C9.96607 46.9653 12.6516 44.0898 13.0857 41.35C13.5197 38.5559 11.8378 35.0294 13.1128 32.4794C14.3606 29.9838 18.2127 29.1971 20.1658 27.0812C22.0647 25.0466 22.5259 21.1404 24.9944 19.6212C27.3273 18.1564 31.0437 19.4042 33.8107 18.509C36.4149 17.6681 38.6664 14.44 41.5961 14.1958C45.9365 13.8432 50.4667 16.2575 54.807 16.0134C59.1473 15.7692 63.4062 12.8666 67.7466 12.7581C72.0869 12.6496 76.4815 15.3081 80.8489 15.3081C85.2164 15.3081 89.6109 12.6496 93.9512 12.7581C98.2916 12.8666 102.55 15.7963 106.891 16.0134C111.231 16.2575 115.788 13.8432 120.102 14.1958C123.031 14.44 125.283 17.6681 127.887 18.509C130.654 19.4042 134.37 18.1564 136.703 19.6212C139.172 21.1404 139.633 25.0466 141.532 27.0812C143.485 29.1971 147.337 29.9838 148.585 32.4794C148.992 33.2661 149.1 34.1884 149.073 35.1108C149.046 36.0331 148.883 36.9825 148.748 37.9591C148.585 39.1256 148.449 40.292 148.612 41.35C149.073 44.0898 151.759 46.9653 151.243 49.8136Z" fill="url(#paint3_linear_23_1563)"/>
<path d="M150.131 49.515C150.131 49.5693 150.104 49.6778 150.104 49.732C150.104 49.7863 150.077 49.9219 150.077 49.9762C150.077 50.0033 150.05 50.1661 150.05 50.2203C149.697 52.2277 147.717 53.6926 146.279 55.2931C145.818 55.8356 145.411 56.3781 145.14 56.9478C144.787 57.7074 144.624 58.5754 144.543 59.4706C144.326 61.478 144.38 63.6482 143.241 65.0588C141.559 67.0933 137.788 66.9848 135.672 68.531C133.557 70.1044 132.58 73.7394 130.139 74.7702C127.724 75.7739 124.442 73.9293 121.811 74.3362C119.233 74.7431 116.684 77.5372 114.025 77.3202C110.282 77.0218 106.701 74.0649 102.957 73.8479C99.1866 73.6309 95.3346 76.1808 91.564 76.0723C87.7933 75.9638 84.0769 73.224 80.3063 73.224C76.5356 73.224 72.8192 75.9909 69.0757 76.0723C65.305 76.1808 61.453 73.6309 57.6823 73.8479C53.9117 74.0649 50.3581 77.0218 46.6145 77.3202C43.9561 77.5372 41.4061 74.7431 38.8291 74.3362C36.1978 73.9293 32.9154 75.7739 30.5011 74.7702C28.0597 73.7394 27.0831 70.1044 24.9672 68.531C23.5837 67.5273 21.4949 67.2289 19.7588 66.5508C18.8094 66.1981 17.9684 65.7641 17.3988 65.0588C16.5578 64.0279 16.3679 62.5902 16.2323 61.0982C16.0967 59.6605 16.0424 58.1414 15.4999 56.9478C14.4148 54.5878 11.051 52.8788 10.5899 50.2203C10.5899 50.1661 10.5628 50.0033 10.5628 49.9762C10.5628 49.9219 10.5356 49.7863 10.5085 49.732C10.5085 49.7049 10.4814 49.5693 10.4814 49.515C9.99309 46.6938 12.6515 43.8455 13.0856 41.1056C13.2755 39.8307 13.0313 38.3658 12.8414 36.9552C12.7058 36.0871 12.5973 35.192 12.6515 34.351C12.6787 33.6186 12.8143 32.9404 13.1398 32.3165C14.3877 29.8479 18.2126 29.0613 20.1386 26.9725C22.0103 24.9651 22.4715 21.0859 24.9129 19.5668C27.2459 18.1291 30.9351 19.3498 33.675 18.4817C36.252 17.6408 38.5036 14.4398 41.379 14.1957C44.5258 13.9244 47.7539 15.1451 50.9549 15.7148C52.1484 15.9318 53.342 16.0674 54.5085 15.986C56.2175 15.9047 57.8994 15.3893 59.6084 14.7925C62.1854 13.8973 64.7625 12.8122 67.3667 12.7308C71.6799 12.6223 76.0473 15.2536 80.3605 15.2536C84.6737 15.2536 89.0412 12.6223 93.3543 12.7308C97.6675 12.8393 101.872 15.7419 106.213 15.9589C110.526 16.2031 115.029 13.7888 119.342 14.1685C122.245 14.4127 124.469 17.6137 127.046 18.4546C129.786 19.3498 133.475 18.1019 135.808 19.5397C138.222 21.0588 138.711 24.938 140.582 26.9453C142.536 29.0341 146.36 29.8208 147.581 32.2894C148.856 34.8122 147.174 38.3116 147.608 41.0785C147.961 43.8455 150.619 46.6938 150.131 49.515Z" fill="url(#paint4_linear_23_1563)"/>
<path d="M147.446 55.5371C146.93 56.1068 146.496 56.6764 146.198 57.3004C145.872 57.9785 145.71 58.7652 145.628 59.6062C119.885 61.8034 104.829 57.1647 104.07 56.9206C117.796 59.6333 134.343 57.9243 147.446 55.5371Z" fill="url(#paint5_linear_23_1563)"/>
<path d="M60.6664 63.3228C51.2262 67.1748 29.9315 66.9307 19.7046 66.5509C18.7552 66.1983 17.9142 65.7642 17.3446 65.0589C16.5036 64.0281 16.3137 62.5904 16.1781 61.0984C23.421 62.726 40.8365 65.8456 60.6664 63.3228Z" fill="url(#paint6_linear_23_1563)"/>
<path d="M72.8192 70.7827C72.8192 70.7827 107.433 68.3413 111.068 67.0934C114.703 65.8456 111.421 67.0934 111.421 67.0934C111.421 67.0934 95.1176 74.2821 72.8192 70.7827Z" fill="url(#paint7_linear_23_1563)"/>
<path d="M22.2546 36.25C18.4568 36.8739 15.066 36.9824 12.7873 36.9553C12.6517 36.0872 12.5431 35.192 12.5974 34.3511C14.9303 35.0021 18.484 35.8431 22.2546 36.25Z" fill="url(#paint8_linear_23_1563)"/>
<path d="M59.527 14.7925C57.0313 17.6679 46.9944 18.0748 40.1312 17.5323C42.9796 17.2339 47.5369 16.393 50.9006 15.7148C52.0942 15.9318 53.2878 16.0674 54.4543 15.9861C56.1362 15.8776 57.8452 15.3893 59.527 14.7925Z" fill="url(#paint9_linear_23_1563)"/>
<path d="M149.073 35.1106C149.046 36.0329 148.883 36.9824 148.748 37.9589C144.109 37.2265 140.393 35.1106 140.393 35.1106C140.393 35.1106 145.872 35.1106 149.073 35.1106Z" fill="url(#paint10_linear_23_1563)"/>
<path d="M140.203 48.349C138.087 62.0482 126.992 71.5155 114.73 71.5155C113.971 71.5155 113.211 71.4884 112.452 71.407C91.7538 69.3725 70.9203 69.3725 50.2224 71.407C37.1201 72.682 24.723 62.8891 22.4715 48.349C22.2816 47.0198 22.1731 45.7177 22.1731 44.4156C22.1731 44.1444 22.1731 43.8731 22.2002 43.6018C22.6071 30.9064 32.3728 19.6216 45.9906 18.2923C69.5097 15.9865 93.1916 15.9865 116.711 18.2923C130.301 19.6216 140.094 30.9335 140.501 43.6289C140.555 45.1481 140.447 46.7486 140.203 48.349Z" fill="#562500"/>
<path d="M139.742 43.3032C139.714 44.3882 139.633 45.4733 139.443 46.5584C137.327 60.0948 126.314 69.4807 114.134 69.4807C113.374 69.4807 112.615 69.4536 111.855 69.3722C91.2928 67.3648 70.5949 67.3648 50.0326 69.3722C37.0117 70.62 24.696 60.9357 22.4716 46.5584C22.3089 45.4733 22.2003 44.3882 22.1732 43.3032C22.5801 30.7434 32.2916 19.567 45.8008 18.2378C69.1843 15.9591 92.7034 15.9591 116.087 18.2378C129.623 19.567 139.362 30.7434 139.742 43.3032Z" fill="url(#paint11_linear_23_1563)"/>
<path d="M138.005 41.6483C138.005 42.7605 137.897 43.8999 137.707 45.0392C135.673 56.9208 124.984 65.1132 113.211 65.1132C112.479 65.1132 111.747 65.0861 111.014 65.0318C91.1029 63.2686 71.0831 63.2686 51.1448 65.0318C41.1349 65.8999 31.5591 60.7186 26.9475 52.255C25.7539 50.0577 24.913 47.6434 24.4518 45.0392C24.2619 43.8999 24.1534 42.7606 24.1534 41.6212C24.1534 30.3093 33.7021 20.1366 47.0486 18.943C69.6725 16.9357 92.4592 16.9357 115.083 18.943C128.484 20.1366 138.005 30.3364 138.005 41.6483Z" fill="url(#paint12_linear_23_1563)"/>
<path opacity="0.49" d="M138.005 41.6484C138.005 42.7606 137.897 43.9 137.707 45.0393C135.673 56.9209 124.984 65.1133 113.211 65.1133C112.479 65.1133 111.746 65.0862 111.014 65.0319C91.1029 63.2687 71.0831 63.2687 51.1448 65.0319C41.1349 65.9 31.5591 60.7187 26.9475 52.2551C63.0535 62.2107 128.945 52.2008 138.005 41.6484Z" fill="#96440C"/>
<path opacity="0.55" d="M51.9314 26.2674C56.0814 26.2674 59.4456 25.2836 59.4456 24.0701C59.4456 22.8566 56.0814 21.8728 51.9314 21.8728C47.7814 21.8728 44.4172 22.8566 44.4172 24.0701C44.4172 25.2836 47.7814 26.2674 51.9314 26.2674Z" fill="#F9BE93"/>
<path opacity="0.55" d="M40.1041 26.3761C40.4025 27.2712 39.2631 28.4648 37.5813 29.0074C35.8994 29.5499 34.2989 29.2786 34.0005 28.3835C33.7021 27.4883 34.8414 26.2947 36.5233 25.7521C38.2052 25.2096 39.8057 25.4809 40.1041 26.3761Z" fill="#F9BE93"/>
<path d="M63.7689 39.8347C63.7304 39.3532 63.5498 38.9776 63.2272 38.7079C62.9093 38.4383 62.4254 38.3034 61.7753 38.3034C61.3612 38.3034 61.0217 38.354 60.7569 38.4551C60.4968 38.5514 60.3042 38.6839 60.179 38.8524C60.0538 39.0209 59.9888 39.2136 59.984 39.4302C59.9743 39.6084 60.0056 39.7697 60.0779 39.9142C60.1549 40.0538 60.2753 40.1815 60.439 40.297C60.6028 40.4078 60.8122 40.5089 61.0674 40.6004C61.3227 40.6919 61.626 40.7737 61.9776 40.846L63.191 41.106C64.0097 41.2794 64.7103 41.5081 65.293 41.7922C65.8756 42.0763 66.3524 42.411 66.7231 42.7962C67.0939 43.1766 67.366 43.6052 67.5394 44.0819C67.7175 44.5587 67.809 45.0787 67.8138 45.6421C67.809 46.6148 67.5658 47.4383 67.0843 48.1124C66.6028 48.7866 65.9142 49.2994 65.0185 49.651C64.1276 50.0025 63.0562 50.1782 61.8042 50.1782C60.5185 50.1782 59.3965 49.988 58.4382 49.6076C57.4848 49.2272 56.7432 48.6421 56.2135 47.8524C55.6886 47.0579 55.4238 46.0418 55.419 44.8042H59.2328C59.2569 45.2569 59.37 45.6373 59.5723 45.9455C59.7745 46.2537 60.0586 46.4872 60.4246 46.6461C60.7954 46.805 61.236 46.8845 61.7464 46.8845C62.175 46.8845 62.5337 46.8315 62.8227 46.7256C63.1116 46.6197 63.3307 46.4728 63.48 46.285C63.6292 46.0972 63.7063 45.8829 63.7111 45.6421C63.7063 45.4158 63.6317 45.2184 63.4872 45.0498C63.3475 44.8765 63.1164 44.7224 62.7938 44.5875C62.4711 44.4479 62.0353 44.3179 61.4864 44.1975L60.0129 43.8797C58.7031 43.5956 57.6702 43.1213 56.9142 42.4567C56.163 41.7874 55.7898 40.8749 55.7946 39.7192C55.7898 38.7802 56.0402 37.9591 56.5458 37.2561C57.0562 36.5482 57.7617 35.9969 58.6622 35.602C59.5674 35.2071 60.6052 35.0097 61.7753 35.0097C62.9695 35.0097 64.0024 35.2095 64.874 35.6092C65.7456 36.0089 66.4174 36.5723 66.8893 37.2994C67.366 38.0217 67.6068 38.8668 67.6116 39.8347H63.7689ZM71.1721 50.0049V35.212H77.5574C78.6553 35.212 79.616 35.4286 80.4394 35.862C81.2628 36.2954 81.9033 36.9046 82.3607 37.6895C82.8182 38.4744 83.0469 39.3917 83.0469 40.4415C83.0469 41.5009 82.811 42.4182 82.3391 43.1935C81.872 43.9688 81.2147 44.5659 80.3672 44.9848C79.5245 45.4038 78.5397 45.6132 77.4129 45.6132H73.5991V42.4928H76.6039C77.0758 42.4928 77.4779 42.411 77.8102 42.2473C78.1473 42.0787 78.4049 41.8404 78.5831 41.5322C78.766 41.224 78.8575 40.8604 78.8575 40.4415C78.8575 40.0177 78.766 39.6566 78.5831 39.358C78.4049 39.0546 78.1473 38.8235 77.8102 38.6646C77.4779 38.5009 77.0758 38.419 76.6039 38.419H75.1882V50.0049H71.1721ZM90.3671 35.212V50.0049H86.3511V35.212H90.3671ZM106.9 35.212V50.0049H103.549L98.2038 42.2328H98.1171V50.0049H94.101V35.212H97.5103L102.769 42.9551H102.884V35.212H106.9Z" fill="white"/>
<defs>
<linearGradient id="paint0_linear_23_1563" x1="43.9692" y1="-13.1383" x2="49.0809" y2="62.7121" gradientUnits="userSpaceOnUse">
<stop offset="2.7e-07" stop-color="#95D543"/>
<stop offset="0.2613" stop-color="#72B74E"/>
<stop offset="0.5762" stop-color="#4F9959"/>
<stop offset="0.8338" stop-color="#398760"/>
<stop offset="1" stop-color="#318063"/>
</linearGradient>
<linearGradient id="paint1_linear_23_1563" x1="17.6313" y1="92.1743" x2="114.547" y2="71.0504" gradientUnits="userSpaceOnUse">
<stop offset="2.7e-07" stop-color="#95D543"/>
<stop offset="0.2613" stop-color="#72B74E"/>
<stop offset="0.5762" stop-color="#4F9959"/>
<stop offset="0.8338" stop-color="#398760"/>
<stop offset="1" stop-color="#318063"/>
</linearGradient>
<linearGradient id="paint2_linear_23_1563" x1="51.737" y1="-9.78335" x2="123.806" y2="124.508" gradientUnits="userSpaceOnUse">
<stop stop-color="#F8A45B"/>
<stop offset="0.2171" stop-color="#C97F40"/>
<stop offset="0.4733" stop-color="#985825"/>
<stop offset="0.6987" stop-color="#743C11"/>
<stop offset="0.8819" stop-color="#5E2B04"/>
<stop offset="1" stop-color="#562500"/>
</linearGradient>
<linearGradient id="paint3_linear_23_1563" x1="81.6669" y1="54.6184" x2="93.6995" y2="135.156" gradientUnits="userSpaceOnUse">
<stop stop-color="#F8A45B"/>
<stop offset="0.3936" stop-color="#CC7937"/>
<stop offset="0.7917" stop-color="#A55318"/>
<stop offset="1" stop-color="#96440C"/>
</linearGradient>
<linearGradient id="paint4_linear_23_1563" x1="70.4333" y1="-5.2102" x2="87.1178" y2="84.309" gradientUnits="userSpaceOnUse">
<stop stop-color="#F8A45B"/>
<stop offset="0.3936" stop-color="#CC7937"/>
<stop offset="0.7917" stop-color="#A55318"/>
<stop offset="1" stop-color="#96440C"/>
</linearGradient>
<linearGradient id="paint5_linear_23_1563" x1="125.783" y1="56.5498" x2="126.098" y2="62.3312" gradientUnits="userSpaceOnUse">
<stop offset="0.3844" stop-color="#96440C"/>
<stop offset="0.3989" stop-color="#9A4810"/>
<stop offset="0.5039" stop-color="#B76427"/>
</linearGradient>
<linearGradient id="paint6_linear_23_1563" x1="38.4614" y1="60.9318" x2="38.0928" y2="71.866" gradientUnits="userSpaceOnUse">
<stop offset="0.3844" stop-color="#96440C"/>
<stop offset="0.3989" stop-color="#9A4810"/>
<stop offset="0.5039" stop-color="#B76427"/>
</linearGradient>
<linearGradient id="paint7_linear_23_1563" x1="92.8056" y1="69.0962" x2="92.9126" y2="72.7327" gradientUnits="userSpaceOnUse">
<stop offset="0.3844" stop-color="#96440C"/>
<stop offset="0.3989" stop-color="#9A4810"/>
<stop offset="0.5039" stop-color="#B76427"/>
</linearGradient>
<linearGradient id="paint8_linear_23_1563" x1="17.5414" y1="33.7299" x2="17.1002" y2="39.345" gradientUnits="userSpaceOnUse">
<stop offset="0.3844" stop-color="#96440C"/>
<stop offset="0.3989" stop-color="#9A4810"/>
<stop offset="0.5039" stop-color="#B76427"/>
</linearGradient>
<linearGradient id="paint9_linear_23_1563" x1="49.7595" y1="15.4861" x2="50.0269" y2="18.4808" gradientUnits="userSpaceOnUse">
<stop offset="0.3844" stop-color="#96440C"/>
<stop offset="0.3989" stop-color="#9A4810"/>
<stop offset="0.5039" stop-color="#B76427"/>
</linearGradient>
<linearGradient id="paint10_linear_23_1563" x1="145.075" y1="33.2654" x2="144.129" y2="39.6775" gradientUnits="userSpaceOnUse">
<stop offset="0.3844" stop-color="#96440C"/>
<stop offset="0.3989" stop-color="#9A4810"/>
<stop offset="0.5039" stop-color="#B76427"/>
</linearGradient>
<linearGradient id="paint11_linear_23_1563" x1="79.2865" y1="28.9095" x2="84.8208" y2="76.2187" gradientUnits="userSpaceOnUse">
<stop stop-color="#F8A45B"/>
<stop offset="0.2171" stop-color="#C97F40"/>
<stop offset="0.4733" stop-color="#985825"/>
<stop offset="0.6987" stop-color="#743C11"/>
<stop offset="0.8819" stop-color="#5E2B04"/>
<stop offset="1" stop-color="#562500"/>
</linearGradient>
<linearGradient id="paint12_linear_23_1563" x1="81.0917" y1="19.7426" x2="81.0917" y2="72.4489" gradientUnits="userSpaceOnUse">
<stop stop-color="#F8A45B"/>
<stop offset="0.3936" stop-color="#CC7937"/>
<stop offset="0.7917" stop-color="#A55318"/>
<stop offset="1" stop-color="#96440C"/>
</linearGradient>
</defs>
</svg>
