<svg width="126" height="156" viewBox="0 0 126 156" fill="none" xmlns="http://www.w3.org/2000/svg">
<path d="M119.351 42.1716C119.363 42.2379 119.403 42.265 119.375 42.3043C119.422 42.7419 119.335 43.2038 119.052 43.5304L41.1306 142.549C40.8746 142.836 40.5401 143.07 40.1418 143.143C40.0091 143.167 36.3462 143.773 32.5585 143.886C26.598 144.125 23.5022 143.151 22.8512 140.732C22.839 140.665 22.8267 140.599 22.8145 140.532C22.7412 140.134 22.8278 139.672 23.0715 139.319C23.3153 138.965 23.7162 138.72 24.1537 138.673C27.1258 138.229 30.5025 136.441 33.1097 134.761C29.6852 135.357 24.7681 136.605 19.0454 139.442C18.4183 139.763 17.6 139.605 17.1582 139.068C16.9888 138.894 16.9129 138.667 16.837 138.441C16.7244 138.016 16.7987 137.488 17.1088 137.122C20.0581 133.011 24.261 130.865 28.2648 128.756C29.7723 127.998 31.2676 127.174 32.7507 126.283C28.6784 125.969 25.0649 124.232 24.8414 124.136C24.4213 123.904 24.1489 123.543 24.0363 123.117C23.9604 122.891 23.9509 122.653 23.9806 122.441C24.0969 121.768 24.6874 121.248 25.3904 121.153C25.3904 121.153 26.9022 120.977 29.5015 119.813C27.1539 120.108 25.3793 120.16 25.2072 120.157C24.4919 120.186 23.851 119.686 23.6503 118.968C23.6381 118.902 23.6381 118.902 23.6259 118.835C23.4915 118.105 23.9004 117.344 24.6725 117.064C29.5312 115.313 33.1415 111.252 35.0739 108.7C30.0139 108.053 24.715 105.734 24.4521 105.611C24.005 105.418 23.6933 105.03 23.5807 104.604C23.5197 104.273 23.525 103.928 23.663 103.56C24.0326 102.771 24.9252 102.401 25.7409 102.732C25.8858 102.773 29.5439 104.193 34.169 100.426C30.4652 100.25 23.9567 102.545 19.6874 104.703C18.9668 105.076 18.0577 104.797 17.6579 104.116C17.5671 103.995 17.5033 103.836 17.4789 103.703C17.3297 103.078 17.5517 102.42 18.0609 102.017C18.2749 101.875 23.0152 98.3608 36.1815 90.1052C33.1399 89.0522 28.8977 91.171 28.8706 91.2103C28.1229 91.6223 27.1746 91.3165 26.7625 90.5688C26.711 90.4753 26.6473 90.3155 26.5958 90.2221C26.4072 89.5705 26.7105 88.7942 27.3376 88.4729C27.5245 88.3699 31.4768 86.1673 39.4148 84.741C36.37 82.1789 33.2041 78.0264 32.2032 74.2647C31.6525 72.2044 31.7996 70.3932 32.551 68.8824C32.7974 68.3567 33.3852 68.0084 33.9677 68.0041C34.5502 67.9999 35.1004 68.379 35.3701 68.9127C36.704 71.6867 38.5577 73.37 41.0615 74.1102C44.9755 75.2428 49.5661 73.7119 52.3252 72.4837C49.5937 71.0649 45.0169 69.1277 40.8161 69.4203C40.1401 69.4761 39.5114 69.0428 39.2566 68.4035C39.2443 68.3371 39.205 68.31 39.1928 68.2436C39.0165 67.6584 39.2385 67 39.7206 66.6368C43.6225 63.4141 50.7752 63.1274 55.6833 63.3222C51.5478 60.2403 45.5792 56.7064 41.2675 57.3282C40.6037 57.4504 39.9479 57.0564 39.6389 56.4956C39.5874 56.4022 39.5358 56.3087 39.5114 56.1759C39.3473 55.6572 39.5151 55.0773 39.8916 54.6992C48.1647 46.1431 59.1752 48.9208 65.3561 51.5577C64.6254 50.0109 63.9 48.12 63.3616 46.1261C62.2996 42.0325 62.4461 38.5401 63.8528 35.7422C64.1533 35.1379 64.7804 34.8167 65.4145 34.9059C66.0756 34.9558 66.6108 35.4406 66.76 36.0651C67.4966 38.949 71.1186 41.8509 75.014 44.1879C73.3892 42.2566 71.8604 40.1018 70.7569 37.8344C70.7054 37.7409 70.6932 37.6745 70.6417 37.5811C70.5536 37.2885 70.5589 36.9444 70.6699 36.6152C70.835 36.2074 71.118 35.8808 71.5041 35.7411C72.077 35.4985 72.7801 35.4034 73.6132 35.456C71.0877 34.411 68.309 33.4812 65.1835 32.7181C64.6429 32.5774 64.1862 32.1468 64.0492 31.5887C64.037 31.5223 64.037 31.5223 64.0248 31.4559C63.9149 30.8585 64.1761 30.2272 64.6976 29.891C73.4321 24.0292 87.6063 28.5236 94.4606 31.2769C93.6173 29.3048 92.6493 26.8409 92.0009 24.2496C90.726 19.3717 90.8359 15.6802 92.3429 13.2412C92.7098 12.6247 93.4819 12.3454 94.1404 12.5674C94.6538 12.7474 95.0712 13.151 95.196 13.6427C95.2204 13.7754 95.2571 13.9746 95.2151 14.1195C95.1626 14.9527 95.2549 15.8278 95.5316 16.7719C98.3948 27.6708 118.495 41.0596 118.691 41.195C119.018 41.4781 119.251 41.8126 119.351 42.1716Z" fill="url(#paint0_linear_23_1522)"/>
<path d="M95.5229 37.0518C95.5229 37.0518 75.5963 27.028 65.2432 33.9768C82.8095 38.2588 90.1592 48.3666 90.1592 48.3666C90.1592 48.3666 75.5469 37.9482 71.4698 39.6591C74.5837 46.3259 82.3587 52.0321 82.3587 52.0321C82.3587 52.0321 66.7385 46.0195 64.9007 39.015C61.3239 46.0551 68.6236 56.8239 68.6236 56.8239C68.6236 56.8239 52.6769 46.2394 41.9702 57.2334C49.6645 56.1607 60.4822 66.2823 60.4822 66.2823C60.4822 66.2823 47.0918 64.1827 41.7016 68.64C48.4193 68.2274 55.7972 73.0802 55.7972 73.0802C55.7972 73.0802 41.0814 82.2385 35.3486 70.2893C32.6883 75.4109 41.4642 84.8787 44.9243 85.4087C34.7401 86.562 29.8384 89.3854 29.8384 89.3854C29.8384 89.3854 36.631 85.8366 40.1314 89.756C26.124 98.4752 21.236 102.12 21.236 102.12C21.236 102.12 34.0832 95.6725 38.4301 98.7842C32.3861 105.283 27.0208 102.977 27.0208 102.977C27.0208 102.977 34.0148 106.116 39.1273 105.93C39.1273 105.93 34.6228 113.896 27.1552 116.574C27.1552 116.574 36.7287 116.39 41.3905 112.822C32.9273 119.972 27.4653 120.497 27.4653 120.497C27.4653 120.497 35.4931 124.406 40.3635 121.04C33.9904 127.428 25.5319 128.264 20.6897 134.953C31.921 129.421 39.8028 129.927 39.8028 129.927C39.8028 129.927 32.5328 136.102 26.4166 136.988C27.1032 140.533 41.0517 138.206 41.0517 138.206L114.599 44.693C114.599 44.693 91.2748 29.2556 91.7819 17.8394C88.2804 23.4246 95.5229 37.0518 95.5229 37.0518Z" fill="#318063"/>
<defs>
<linearGradient id="paint0_linear_23_1522" x1="107.565" y1="-22.6016" x2="41.4113" y2="138.873" gradientUnits="userSpaceOnUse">
<stop offset="2.7e-07" stop-color="#95D543"/>
<stop offset="0.2613" stop-color="#72B74E"/>
<stop offset="0.5762" stop-color="#4F9959"/>
<stop offset="0.8338" stop-color="#398760"/>
<stop offset="1" stop-color="#318063"/>
</linearGradient>
</defs>
</svg>
