<svg width="155" height="99" viewBox="0 0 155 99" fill="none" xmlns="http://www.w3.org/2000/svg">
<path d="M13.6215 51.6578C13.6486 51.685 13.6757 51.685 13.7028 51.7121C13.947 51.8206 14.2454 51.8477 14.4895 51.7392L88.4648 22.1979C88.709 22.1165 88.8718 21.9266 88.9803 21.7096C89.0345 21.6283 90.0382 19.5395 90.7978 17.2608C92.0185 13.68 91.9642 11.6184 90.6079 10.8317C90.5808 10.8046 90.5265 10.8046 90.4994 10.7775C90.2552 10.6418 89.984 10.6418 89.7127 10.7232C89.4414 10.8046 89.2515 10.9945 89.143 11.2386C88.3563 12.9747 86.6745 14.6837 85.1825 15.9587C86.1591 13.9784 87.8138 11.2386 90.5536 8.25464C90.852 7.92912 90.9063 7.41371 90.6621 7.03393C90.5807 6.89829 90.4722 6.81691 90.3366 6.73553C90.0925 6.57277 89.7669 6.54564 89.4957 6.65415C86.4846 7.7121 84.4229 9.85514 82.4155 11.9439C81.6831 12.7035 80.9235 13.4902 80.1097 14.2226C80.6523 11.6726 80.2454 9.20409 80.2182 9.04133C80.164 8.74293 80.0012 8.49879 79.7571 8.36315C79.6486 8.28177 79.4858 8.22752 79.3502 8.22752C78.9161 8.17326 78.4821 8.44453 78.3194 8.85144C78.3194 8.85144 77.9396 9.74663 76.7731 11.103C77.3699 9.7195 77.7225 8.68868 77.7497 8.58017C77.8853 8.14614 77.6954 7.65785 77.3157 7.44083C77.2885 7.44083 77.2614 7.41371 77.2614 7.41371C76.8274 7.19669 76.2848 7.33233 76.0136 7.7121C74.0875 10.3705 70.9679 11.8354 69.0962 12.5136C69.6116 9.3126 69.1504 5.70471 69.1233 5.51482C69.069 5.21642 68.9063 4.94515 68.6621 4.80951C68.4723 4.70101 68.2552 4.64675 68.0111 4.67388C67.4686 4.75526 67.0888 5.24355 67.143 5.78609C67.143 5.8946 67.36 8.36315 64.2404 10.5062C64.783 8.22752 67.3329 4.70101 69.4217 2.47659C69.7743 2.09682 69.7743 1.52715 69.4217 1.12024C69.3674 1.03886 69.2861 0.984609 69.2047 0.930355C68.852 0.713339 68.418 0.740466 68.0925 0.984609C67.9568 1.09312 65 3.31753 57.6215 9.85514C57.5129 7.82061 59.5746 5.62332 59.6017 5.5962C59.9815 5.21642 59.9544 4.5925 59.5746 4.21272C59.5203 4.15847 59.4661 4.10421 59.3847 4.07709C59.0049 3.86007 58.5166 3.8872 58.1911 4.21272C58.0826 4.32123 56.0481 6.3015 53.7694 10.886C52.7657 8.58017 50.8126 5.92172 48.6967 4.64675C47.5573 3.94145 46.418 3.69731 45.3601 3.91432C44.9803 3.99571 44.6819 4.26697 44.6005 4.61963C44.492 4.97228 44.6005 5.37918 44.8989 5.62332C46.3366 6.92542 47.0419 8.36315 47.0419 9.99077C47.0419 12.5678 45.2787 15.0635 44.0308 16.5284C43.6782 14.6295 43.3255 11.4828 44.2207 8.98707C44.3563 8.58017 44.2478 8.11901 43.8952 7.87487C43.8681 7.84774 43.8409 7.82061 43.7867 7.82061C43.4612 7.63072 43.0271 7.63072 42.7016 7.84774C40.0703 9.63812 38.5783 13.9242 37.8459 16.9353C36.7065 13.8699 35.6486 9.63812 36.7879 7.11531C36.9778 6.73553 36.8693 6.27437 36.5709 5.97598C36.5167 5.92172 36.4624 5.89459 36.4081 5.84034C36.1097 5.65045 35.73 5.65045 35.4316 5.81321C28.7855 9.3126 28.4871 16.4741 28.9753 20.7059C28.1615 19.9735 27.1578 19.1868 26.0456 18.5358C23.7398 17.1523 21.5968 16.6098 19.6437 16.9895C19.2368 17.0709 18.9112 17.3693 18.857 17.7762C18.7756 18.1831 18.9655 18.59 19.3181 18.807C20.9186 19.7836 22.058 22.4963 22.7904 25.2633C21.9223 23.934 20.8915 22.6048 19.6979 21.5469C19.6437 21.5197 19.6165 21.4655 19.5623 21.4384C19.3724 21.3299 19.1825 21.2756 18.9655 21.3027C18.6942 21.3299 18.4501 21.4655 18.2873 21.6554C18.0432 21.9538 17.8533 22.3878 17.7448 22.8761C17.5549 21.0315 17.5006 19.1597 17.582 17.1252C17.6091 16.7454 17.4192 16.4199 17.0937 16.23C17.0666 16.2029 17.0395 16.2029 17.0123 16.2029C16.6597 16.0401 16.2257 16.0672 15.9273 16.3385C10.8545 20.5703 11.0444 29.9562 11.4784 34.6221C10.4476 33.754 9.09126 32.7503 7.65353 31.8823C4.94083 30.2275 2.66216 29.6578 0.926032 30.119C0.492 30.2275 0.193604 30.6344 0.193604 31.0956C0.193604 31.4482 0.383492 31.7466 0.681889 31.9365C0.76327 31.9908 0.871778 32.0179 0.953159 32.045C1.46857 32.1807 1.98399 32.3977 2.4994 32.6961C8.60297 36.3853 13.1332 50.9797 13.1603 51.1153C13.2688 51.3323 13.4045 51.5493 13.6215 51.6578Z" fill="url(#paint0_linear_26_6876)"/>
<path d="M16.8225 38.1758C16.8225 38.1758 14.4354 25.0192 20.1863 20.2449C19.6709 31.0685 24.2282 37.0094 24.2282 37.0094C24.2282 37.0094 20.7017 26.8367 22.3836 24.8022C25.6659 27.7048 27.6462 33.1573 27.6462 33.1573C27.6462 33.1573 26.8324 23.1746 23.116 20.8959C27.7547 20.055 32.719 26.0772 32.719 26.0772C32.719 26.0772 29.3281 15.1179 37.4662 10.8318C35.5402 15.0636 39.5278 23.0118 39.5278 23.0118C39.5278 23.0118 40.5858 14.9551 44.058 12.5951C42.7017 16.3657 44.2479 21.4385 44.2479 21.4385C44.2479 21.4385 52.0062 14.5211 46.1197 9.20418C49.5106 8.55313 53.4711 15.1992 53.1998 17.2609C55.6141 11.5914 58.0284 9.25844 58.0284 9.25844C58.0284 9.25844 54.8275 12.5679 56.4822 15.2535C63.8879 8.68877 66.7905 6.46436 66.7905 6.46436C66.7905 6.46436 60.9039 12.7578 61.9619 15.7689C66.7362 13.4089 66.3022 9.90948 66.3022 9.90948C66.3022 9.90948 66.9261 14.4668 65.9495 17.3694C65.9495 17.3694 71.2935 16.1487 74.0876 12.2695C74.0876 12.2695 72.3515 17.7492 69.5032 19.838C75.0371 16.2029 76.2578 13.1105 76.2578 13.1105C76.2578 13.1105 77.153 18.3731 74.386 20.6246C79.1604 18.0476 81.0593 13.3004 85.698 11.6727C80.6252 17.1795 79.5673 21.7911 79.5673 21.7911C79.5673 21.7911 84.3688 18.6444 85.915 15.2806C87.841 16.2843 84.1517 23.907 84.1517 23.907L18.0161 50.4372C18.0161 50.4372 13.1061 34.4052 6.46002 32.7504C10.2307 31.6925 16.8225 38.1758 16.8225 38.1758Z" fill="#318063"/>
<path d="M43.7594 65.764C43.7866 65.7369 43.7866 65.7097 43.8137 65.7097C44.0036 65.547 44.2477 65.4385 44.4919 65.4656L115.972 69.9958C116.189 70.0229 116.406 70.1043 116.568 70.2671C116.623 70.3213 118.087 71.8404 119.362 73.5766C121.397 76.2893 121.939 78.0525 121.017 79.1376C120.99 79.1647 120.963 79.1918 120.936 79.219C120.773 79.3817 120.529 79.4902 120.285 79.4902C120.041 79.4902 119.796 79.3817 119.634 79.1918C118.467 77.944 116.541 76.9403 114.914 76.2621C116.297 77.6727 118.467 79.5716 121.641 81.3349C121.994 81.5248 122.184 81.9588 122.075 82.3386C122.048 82.4742 121.967 82.5827 121.885 82.6912C121.722 82.8811 121.451 83.0167 121.18 82.9896C118.304 82.9354 115.944 81.6604 113.666 80.4668C112.825 80.0056 111.957 79.5716 111.062 79.1647C112.228 81.1721 112.581 83.4236 112.608 83.5593C112.635 83.8306 112.554 84.0747 112.391 84.2646C112.309 84.3731 112.201 84.4545 112.092 84.5087C111.74 84.6715 111.306 84.563 111.034 84.2646C111.034 84.2646 110.465 83.6135 109.081 82.7726C109.976 83.7763 110.573 84.5901 110.627 84.6715C110.872 84.997 110.844 85.4582 110.573 85.7837C110.546 85.8108 110.546 85.8108 110.519 85.8379C110.221 86.1363 109.732 86.1906 109.353 85.9193C106.965 84.2103 103.9 83.8306 102.082 83.7492C103.412 86.3262 104.036 89.5544 104.063 89.7171C104.117 89.9884 104.036 90.2596 103.873 90.4495C103.737 90.5852 103.574 90.6937 103.357 90.7479C102.869 90.8293 102.408 90.5309 102.299 90.0426C102.272 89.9613 101.757 87.7911 98.5017 86.8417C99.6139 88.632 102.788 90.9378 105.175 92.2399C105.582 92.4569 105.745 92.9724 105.555 93.3793C105.528 93.4606 105.473 93.542 105.419 93.5963C105.175 93.8675 104.795 93.976 104.443 93.8675C104.307 93.8133 101.133 92.7282 93.0221 89.2288C93.5103 90.9921 95.8704 92.2942 95.8975 92.2942C96.3316 92.5112 96.4943 93.0537 96.2773 93.4878C96.2502 93.542 96.1959 93.6234 96.1688 93.6777C95.9247 93.9761 95.4635 94.0846 95.1108 93.8947C95.0023 93.8404 92.6965 92.7011 89.4684 89.4458C89.2514 91.6974 88.3291 94.5186 86.8914 96.2005C86.1047 97.1228 85.2095 97.6382 84.26 97.7738C83.9345 97.8281 83.5819 97.6653 83.392 97.3941C83.2021 97.1228 83.2021 96.743 83.3649 96.4446C84.2329 94.9255 84.4228 93.5149 83.9617 92.1043C83.2292 89.907 81.0319 88.2523 79.5671 87.3571C79.7841 89.0932 80.3538 91.8601 81.8457 93.7319C82.0899 94.0303 82.0899 94.4643 81.8729 94.7899C81.8457 94.817 81.8457 94.8441 81.8186 94.8712C81.6016 95.1425 81.2218 95.251 80.8963 95.1425C78.1293 94.3558 75.6879 91.1006 74.1959 88.7405C74.0874 91.6703 74.3587 95.6037 76.0406 97.4212C76.3118 97.6925 76.339 98.1265 76.1762 98.452C76.1491 98.5063 76.1219 98.5605 76.0677 98.6148C75.8778 98.8589 75.5523 98.9674 75.2539 98.9132C68.5806 97.801 66.3291 91.7516 65.5695 88.0081C65.0813 88.849 64.4302 89.7985 63.6707 90.6937C62.0973 92.5112 60.4154 93.5692 58.6522 93.8133C58.2724 93.8675 57.9197 93.6777 57.757 93.3521C57.5671 93.0266 57.6213 92.6197 57.8655 92.3484C58.9777 91.0735 59.1676 88.4421 59.0048 85.8651C58.625 87.2486 58.1096 88.6592 57.4043 89.907C57.3772 89.9613 57.3501 89.9884 57.3229 90.0426C57.2144 90.1783 57.0517 90.2868 56.8618 90.341C56.6176 90.3953 56.3735 90.3682 56.1836 90.2325C55.8852 90.0426 55.6139 89.7442 55.3698 89.3373C55.6953 90.8565 56.1565 92.4569 56.8075 94.1659C56.916 94.4643 56.8618 94.817 56.6448 95.0611C56.6176 95.0883 56.6176 95.0883 56.5905 95.1154C56.3464 95.3595 55.9666 95.4409 55.6411 95.3053C50.08 93.108 47.6115 85.0241 46.6892 80.928C46.0381 81.9588 45.1972 83.2066 44.1935 84.346C42.3217 86.5161 40.5585 87.6555 38.9308 87.7368C38.5239 87.764 38.1442 87.4927 38.0356 87.1129C37.9543 86.8145 38.0085 86.489 38.1984 86.272C38.2527 86.2177 38.334 86.1363 38.4154 86.1092C38.8223 85.8651 39.2021 85.5396 39.5548 85.1055C43.7323 80.2498 43.5153 66.5235 43.5153 66.3879C43.5424 66.1438 43.6238 65.9267 43.7594 65.764Z" fill="url(#paint1_linear_26_6876)"/>
<path d="M49.0494 78.5681C49.0494 78.5681 50.7856 91.1279 57.3774 93.7321C53.7153 84.1292 56.0753 77.4288 56.0753 77.4288C56.0753 77.4288 55.9126 87.6286 58.0285 88.9849C60.1444 85.377 60.3071 79.8974 60.3071 79.8974C60.3071 79.8974 62.5315 89.1477 59.846 92.2673C64.2948 91.6705 66.9804 84.7802 66.9804 84.7802C66.9804 84.7802 67.1703 95.6581 75.7695 97.123C72.7855 93.8678 74.0334 85.5398 74.0334 85.5398C74.0334 85.5398 77.37 92.4843 81.1949 93.5694C78.8349 90.5583 78.7264 85.5398 78.7264 85.5398C78.7264 85.5398 87.7596 89.4732 84.0161 96.0108C87.2714 95.6039 88.8719 88.4424 88.0038 86.652C91.8287 91.0466 94.7313 92.43 94.7313 92.43C94.7313 92.43 90.8792 90.3955 91.5845 87.4929C100.184 91.2364 103.466 92.3487 103.466 92.3487C103.466 92.3487 96.3046 88.4152 96.3589 85.377C101.35 86.1094 102.001 89.3647 102.001 89.3647C102.001 89.3647 101.215 85.0786 99.4785 82.7457C99.4785 82.7457 104.66 82.2845 108.322 84.9159C108.322 84.9159 105.148 80.4942 101.974 79.4633C108.051 81.1181 110.058 83.5053 110.058 83.5053C110.058 83.5053 109.298 78.4868 106.152 77.2932C111.197 78.2155 114.317 81.9048 119.01 82.0133C112.798 78.541 110.492 74.689 110.492 74.689C110.492 74.689 115.728 76.0996 118.115 78.6766C119.552 77.2118 113.964 71.4337 113.964 71.4337L46.4724 67.1748C46.4724 67.1748 46.7708 83.0712 41.264 86.5163C45.0075 86.3536 49.0494 78.5681 49.0494 78.5681Z" fill="#318063"/>
<path d="M117.03 82.8818C113.15 82.5292 109.461 79.3282 105.582 79.1112C101.703 78.8942 97.7152 81.6611 93.8089 81.5526C89.9298 81.4441 86.0778 78.433 82.1986 78.433C78.3194 78.433 74.4674 81.417 70.5882 81.5526C66.7091 81.6611 62.6943 78.8942 58.8151 79.1112C54.936 79.3282 51.2467 82.5563 47.3675 82.8818C44.6006 83.126 41.9693 80.0877 39.3379 79.6266C36.6252 79.1654 33.2344 81.1728 30.7387 80.0878C28.2159 78.9755 27.2122 75.015 25.0149 73.3331C22.8176 71.6241 18.9113 71.7598 17.1752 69.5625C15.4662 67.3652 16.3342 63.3775 15.1949 60.7462C14.0827 58.1963 10.6105 56.3245 10.1222 53.4219C10.1222 53.3677 10.095 53.2049 10.095 53.1506C10.095 53.0964 10.0679 52.9336 10.0679 52.9065C10.0679 52.8522 10.0408 52.7166 10.0408 52.6895C9.52537 49.6241 12.2923 46.5317 12.7264 43.5477C13.1604 40.5366 11.4514 36.7388 12.7535 33.999C14.0285 31.3134 17.989 30.4454 19.9964 28.1938C21.9224 25.9965 22.4107 21.7918 24.9335 20.1642C27.3207 18.5909 31.1456 19.9201 33.9668 18.9706C36.6524 18.0483 38.9582 14.5761 41.9421 14.3319C46.391 13.9521 51.0297 16.5563 55.5056 16.2851C59.9545 16.0138 64.3219 12.8942 68.7707 12.7586C73.2467 12.6229 77.7498 15.4984 82.1986 15.4984C86.6745 15.4984 91.1776 12.6229 95.6265 12.7586C100.075 12.8942 104.443 16.0138 108.892 16.2851C113.34 16.5563 118.006 13.925 122.455 14.3319C125.439 14.6032 127.745 18.0754 130.43 18.9706C133.279 19.9472 137.076 18.5909 139.464 20.1642C141.986 21.819 142.475 26.0237 144.401 28.1938C146.408 30.4725 150.369 31.3134 151.644 33.999C152.946 36.7388 151.237 40.5366 151.671 43.5477C152.105 46.5045 154.872 49.597 154.356 52.6895C154.356 52.7437 154.329 52.8794 154.329 52.9065C154.329 52.9608 154.302 53.1235 154.302 53.1506C154.302 53.2049 154.275 53.3677 154.275 53.4219C153.814 56.3245 150.342 58.1963 149.202 60.7462C148.063 63.3775 148.931 67.3652 147.222 69.5625C145.486 71.7869 141.58 71.6513 139.382 73.3331C137.185 75.015 136.181 78.9755 133.659 80.0878C131.163 81.1728 127.772 79.1654 125.059 79.6266C122.401 80.0877 119.769 83.0988 117.03 82.8818Z" fill="url(#paint2_linear_26_6876)"/>
<path opacity="0.5" d="M150.857 49.8136C150.857 49.8407 150.83 49.9764 150.83 50.0306C150.83 50.0577 150.803 50.2205 150.803 50.2747C150.803 50.3019 150.776 50.4918 150.776 50.5189C150.423 52.4992 148.497 53.964 147.086 55.5374C146.571 56.1071 146.137 56.6767 145.838 57.3006C145.513 57.9788 145.35 58.7655 145.269 59.6064C144.998 61.6952 145.106 64.0281 143.912 65.493C142.231 67.5546 138.406 67.419 136.263 68.9924C134.147 70.5657 133.143 74.2279 130.674 75.2587C128.233 76.2895 124.924 74.4178 122.265 74.8247C119.688 75.2316 117.111 78.0528 114.425 77.8358C110.655 77.5103 107.047 74.5263 103.276 74.3364C99.4785 74.1194 95.5993 76.6964 91.8015 76.5879C88.0037 76.4794 84.2602 73.7125 80.4624 73.7125C76.6646 73.7125 72.9211 76.4794 69.1233 76.5879C65.3256 76.6964 61.4193 74.1194 57.6486 74.3364C53.8508 74.5534 50.2701 77.5374 46.4994 77.8358C43.8139 78.0528 41.2368 75.2316 38.6597 74.8247C36.0013 74.4178 32.6918 76.2624 30.2504 75.2587C27.7818 74.2279 26.8052 70.5657 24.6622 68.9924C22.5192 67.419 18.7214 67.5546 17.0124 65.493C15.3305 63.4585 16.1986 59.7692 15.0864 57.3006C14.0013 54.9406 10.6104 53.2045 10.1493 50.5189C10.1493 50.4918 10.1221 50.3019 10.1221 50.2747C10.1221 50.2205 10.095 50.0849 10.095 50.0306C10.095 49.9764 10.0679 49.8678 10.0679 49.8136C9.57959 46.9653 12.2652 44.0898 12.6992 41.35C13.1332 38.5559 11.4514 35.0294 12.7263 32.4794C13.9742 29.9838 17.8262 29.1971 19.7793 27.0812C21.6782 25.0466 22.1394 21.1404 24.608 19.6212C26.9409 18.1564 30.6573 19.4042 33.4242 18.509C36.0284 17.6681 38.28 14.44 41.2097 14.1958C45.55 13.8432 50.0802 16.2575 54.4205 16.0134C58.7608 15.7692 63.0198 12.8666 67.3601 12.7581C71.7004 12.6496 76.095 15.3081 80.4624 15.3081C84.8299 15.3081 89.2245 12.6496 93.5648 12.7581C97.9051 12.8666 102.164 15.7963 106.504 16.0134C110.845 16.2575 115.402 13.8432 119.715 14.1958C122.645 14.44 124.896 17.6681 127.501 18.509C130.268 19.4042 133.984 18.1564 136.317 19.6212C138.785 21.1404 139.247 25.0466 141.146 27.0812C143.099 29.1971 146.951 29.9838 148.199 32.4794C148.605 33.2661 148.714 34.1884 148.687 35.1108C148.66 36.0331 148.497 36.9825 148.361 37.9591C148.199 39.1256 148.063 40.292 148.226 41.35C148.687 44.0898 151.372 46.9653 150.857 49.8136Z" fill="url(#paint3_linear_26_6876)"/>
<path d="M149.745 49.515C149.745 49.5693 149.718 49.6778 149.718 49.732C149.718 49.7863 149.69 49.9219 149.69 49.9762C149.69 50.0033 149.663 50.1661 149.663 50.2203C149.311 52.2277 147.33 53.6926 145.893 55.2931C145.431 55.8356 145.025 56.3781 144.753 56.9478C144.401 57.7074 144.238 58.5754 144.157 59.4706C143.939 61.478 143.994 63.6482 142.854 65.0588C141.173 67.0933 137.402 66.9848 135.286 68.531C133.17 70.1044 132.194 73.7394 129.752 74.7702C127.338 75.7739 124.055 73.9293 121.424 74.3362C118.847 74.7431 116.297 77.5372 113.639 77.3202C109.895 77.0218 106.314 74.0649 102.571 73.8479C98.8002 73.6309 94.9481 76.1808 91.1775 76.0723C87.4068 75.9638 83.6904 73.224 79.9198 73.224C76.1491 73.224 72.4327 75.9909 68.6892 76.0723C64.9186 76.1808 61.0665 73.6309 57.2959 73.8479C53.5252 74.0649 49.9716 77.0218 46.2281 77.3202C43.5696 77.5372 41.0197 74.7431 38.4426 74.3362C35.8113 73.9293 32.5289 75.7739 30.1146 74.7702C27.6732 73.7394 26.6966 70.1044 24.5807 68.531C23.1972 67.5273 21.1085 67.2289 19.3723 66.5508C18.4229 66.1981 17.582 65.7641 17.0123 65.0588C16.1713 64.0279 15.9815 62.5902 15.8458 61.0982C15.7102 59.6605 15.6559 58.1414 15.1134 56.9478C14.0283 54.5878 10.6646 52.8788 10.2034 50.2203C10.2034 50.1661 10.1763 50.0033 10.1763 49.9762C10.1763 49.9219 10.1492 49.7863 10.122 49.732C10.122 49.7049 10.0949 49.5693 10.0949 49.515C9.60662 46.6938 12.2651 43.8455 12.6991 41.1056C12.889 39.8307 12.6448 38.3658 12.4549 36.9552C12.3193 36.0871 12.2108 35.192 12.2651 34.351C12.2922 33.6186 12.4278 32.9404 12.7533 32.3165C14.0012 29.8479 17.8261 29.0613 19.7521 26.9725C21.6239 24.9651 22.085 21.0859 24.5265 19.5668C26.8594 18.1291 30.5487 19.3498 33.2885 18.4817C35.8655 17.6408 38.1171 14.4398 40.9925 14.1957C44.1393 13.9244 47.3674 15.1451 50.5684 15.7148C51.762 15.9318 52.9556 16.0674 54.122 15.986C55.831 15.9047 57.5129 15.3893 59.2219 14.7925C61.799 13.8973 64.376 12.8122 66.9802 12.7308C71.2934 12.6223 75.6609 15.2536 79.974 15.2536C84.2872 15.2536 88.6547 12.6223 92.9679 12.7308C97.2811 12.8393 101.486 15.7419 105.826 15.9589C110.139 16.2031 114.642 13.7888 118.956 14.1685C121.858 14.4127 124.083 17.6137 126.66 18.4546C129.399 19.3498 133.089 18.1019 135.422 19.5397C137.836 21.0588 138.324 24.938 140.196 26.9453C142.149 29.0341 145.974 29.8208 147.195 32.2894C148.47 34.8122 146.788 38.3116 147.222 41.0785C147.575 43.8455 150.233 46.6938 149.745 49.515Z" fill="url(#paint4_linear_26_6876)"/>
<path d="M147.059 55.5371C146.544 56.1068 146.11 56.6764 145.811 57.3004C145.486 57.9785 145.323 58.7652 145.242 59.6062C119.498 61.8034 104.443 57.1647 103.683 56.9206C117.409 59.6333 133.957 57.9243 147.059 55.5371Z" fill="url(#paint5_linear_26_6876)"/>
<path d="M60.2798 63.3226C50.8396 67.1746 29.545 66.9304 19.3181 66.5507C18.3686 66.198 17.5277 65.764 16.958 65.0587C16.1171 64.0279 15.9272 62.5901 15.7916 61.0981C23.0345 62.7258 40.45 65.8454 60.2798 63.3226Z" fill="url(#paint6_linear_26_6876)"/>
<path d="M72.4327 70.7824C72.4327 70.7824 107.047 68.341 110.682 67.0932C114.317 65.8453 111.034 67.0932 111.034 67.0932C111.034 67.0932 94.7311 74.2818 72.4327 70.7824Z" fill="url(#paint7_linear_26_6876)"/>
<path d="M21.8681 36.25C18.0704 36.8739 14.6795 36.9824 12.4008 36.9553C12.2652 36.0872 12.1567 35.192 12.2109 34.3511C14.5438 35.0021 18.0975 35.8431 21.8681 36.25Z" fill="url(#paint8_linear_26_6876)"/>
<path d="M59.1406 14.7925C56.6449 17.6679 46.6079 18.0748 39.7448 17.5323C42.5931 17.2339 47.1505 16.393 50.5142 15.7148C51.7078 15.9318 52.9014 16.0674 54.0679 15.9861C55.7497 15.8776 57.4587 15.3893 59.1406 14.7925Z" fill="url(#paint9_linear_26_6876)"/>
<path d="M148.687 35.1108C148.66 36.0332 148.497 36.9826 148.361 37.9592C143.723 37.2267 140.006 35.1108 140.006 35.1108C140.006 35.1108 145.486 35.1108 148.687 35.1108Z" fill="url(#paint10_linear_26_6876)"/>
<path d="M139.816 48.3486C137.7 62.0477 126.605 71.515 114.344 71.515C113.584 71.515 112.825 71.4879 112.065 71.4065C91.3674 69.372 70.5338 69.372 49.8359 71.4065C36.7336 72.6815 24.3366 62.8886 22.085 48.3486C21.8951 47.0193 21.7866 45.7172 21.7866 44.4151C21.7866 44.1439 21.7866 43.8726 21.8137 43.6013C22.2207 30.9059 31.9864 19.6211 45.6041 18.2918C69.1232 15.9861 92.8051 15.9861 116.324 18.2918C129.915 19.6211 139.708 30.933 140.115 43.6285C140.169 45.1476 140.06 46.7481 139.816 48.3486Z" fill="#562500"/>
<path d="M139.355 43.3027C139.328 44.3877 139.247 45.4728 139.057 46.5579C136.941 60.0943 125.927 69.4802 113.747 69.4802C112.988 69.4802 112.228 69.4531 111.469 69.3717C90.9063 67.3643 70.2084 67.3643 49.6462 69.3717C36.6252 70.6195 24.3096 60.9352 22.0851 46.5579C21.9224 45.4728 21.8139 44.3877 21.7867 43.3027C22.1936 30.7429 31.9051 19.5665 45.4144 18.2373C68.7978 15.9587 92.3169 15.9587 115.7 18.2373C129.237 19.5665 138.975 30.7429 139.355 43.3027Z" fill="url(#paint11_linear_26_6876)"/>
<path d="M137.619 41.6479C137.619 42.7601 137.51 43.8994 137.321 45.0387C135.286 56.9204 124.598 65.1127 112.825 65.1127C112.092 65.1127 111.36 65.0856 110.628 65.0313C90.7164 63.2681 70.6967 63.2681 50.7583 65.0313C40.7485 65.8994 31.1726 60.7181 26.561 52.2545C25.3675 50.0572 24.5265 47.6429 24.0654 45.0387C23.8755 43.8994 23.767 42.7601 23.767 41.6207C23.767 30.3088 33.3157 20.1361 46.6621 18.9426C69.2861 16.9352 92.0727 16.9352 114.697 18.9426C128.097 20.1361 137.619 30.3359 137.619 41.6479Z" fill="url(#paint12_linear_26_6876)"/>
<path opacity="0.49" d="M137.619 41.6479C137.619 42.7602 137.51 43.8995 137.32 45.0388C135.286 56.9204 124.598 65.1128 112.825 65.1128C112.092 65.1128 111.36 65.0857 110.628 65.0314C90.7163 63.2682 70.6966 63.2682 50.7583 65.0314C40.7484 65.8995 31.1726 60.7182 26.561 52.2546C62.667 62.2102 128.558 52.2003 137.619 41.6479Z" fill="#96440C"/>
<path opacity="0.55" d="M51.5449 26.2671C55.6948 26.2671 59.0591 25.2834 59.0591 24.0698C59.0591 22.8563 55.6948 21.8726 51.5449 21.8726C47.3949 21.8726 44.0307 22.8563 44.0307 24.0698C44.0307 25.2834 47.3949 26.2671 51.5449 26.2671Z" fill="#F9BE93"/>
<path opacity="0.55" d="M39.7176 26.3753C40.016 27.2705 38.8767 28.4641 37.1948 29.0066C35.5129 29.5492 33.9124 29.2779 33.614 28.3827C33.3156 27.4875 34.455 26.2939 36.1368 25.7514C37.8187 25.2089 39.4192 25.4801 39.7176 26.3753Z" fill="#F9BE93"/>
<path d="M58.0275 40.7593H53.9536C53.9247 40.4222 53.8477 40.1164 53.7225 39.842C53.6021 39.5675 53.4336 39.3315 53.2169 39.1341C53.005 38.9319 52.7474 38.7778 52.444 38.6718C52.1406 38.5611 51.7963 38.5057 51.4111 38.5057C50.7369 38.5057 50.1663 38.6694 49.6992 38.9969C49.2369 39.3243 48.8854 39.7938 48.6446 40.4054C48.4087 41.0169 48.2907 41.7513 48.2907 42.6084C48.2907 43.5137 48.4111 44.2721 48.6519 44.8837C48.8974 45.4904 49.2514 45.9479 49.7137 46.2561C50.1759 46.5595 50.7321 46.7111 51.3822 46.7111C51.753 46.7111 52.0852 46.6654 52.379 46.5739C52.6727 46.4776 52.9279 46.3404 53.1446 46.1622C53.3613 45.984 53.5371 45.7697 53.6719 45.5193C53.8116 45.2641 53.9055 44.9776 53.9536 44.6598L58.0275 44.6887C57.9793 45.3147 57.8035 45.9527 57.5002 46.6028C57.1968 47.2481 56.7658 47.8452 56.2072 48.3941C55.6535 48.9383 54.9673 49.3765 54.1486 49.7087C53.33 50.041 52.379 50.2071 51.2955 50.2071C49.9376 50.2071 48.7193 49.9158 47.6406 49.3331C46.5668 48.7505 45.7169 47.8933 45.0909 46.7617C44.4697 45.6301 44.1591 44.2457 44.1591 42.6084C44.1591 40.9615 44.4769 39.5747 45.1125 38.4479C45.7482 37.3163 46.6053 36.4616 47.684 35.8837C48.7626 35.301 49.9665 35.0097 51.2955 35.0097C52.2297 35.0097 53.0893 35.1373 53.8742 35.3925C54.6591 35.6477 55.3477 36.0209 55.94 36.5121C56.5323 36.9985 57.009 37.598 57.3702 38.3107C57.7313 39.0233 57.9504 39.8396 58.0275 40.7593ZM61.6801 50.0049V35.212H65.6962V46.7689H71.6769V50.0049H61.6801ZM88.8855 42.6084C88.8855 44.2553 88.5653 45.6445 87.9248 46.7762C87.2844 47.903 86.42 48.7577 85.3318 49.3404C84.2435 49.9182 83.03 50.2071 81.6913 50.2071C80.343 50.2071 79.1247 49.9158 78.0364 49.3331C76.9529 48.7457 76.091 47.8885 75.4505 46.7617C74.8149 45.6301 74.4971 44.2457 74.4971 42.6084C74.4971 40.9615 74.8149 39.5747 75.4505 38.4479C76.091 37.3163 76.9529 36.4616 78.0364 35.8837C79.1247 35.301 80.343 35.0097 81.6913 35.0097C83.03 35.0097 84.2435 35.301 85.3318 35.8837C86.42 36.4616 87.2844 37.3163 87.9248 38.4479C88.5653 39.5747 88.8855 40.9615 88.8855 42.6084ZM84.7539 42.6084C84.7539 41.7224 84.6359 40.976 84.4 40.3693C84.1688 39.7577 83.8245 39.2954 83.3671 38.9824C82.9144 38.6646 82.3558 38.5057 81.6913 38.5057C81.0268 38.5057 80.4658 38.6646 80.0083 38.9824C79.5557 39.2954 79.2114 39.7577 78.9754 40.3693C78.7443 40.976 78.6287 41.7224 78.6287 42.6084C78.6287 43.4945 78.7443 44.2432 78.9754 44.8548C79.2114 45.4615 79.5557 45.9238 80.0083 46.2416C80.4658 46.5546 81.0268 46.7111 81.6913 46.7111C82.3558 46.7111 82.9144 46.5546 83.3671 46.2416C83.8245 45.9238 84.1688 45.4615 84.4 44.8548C84.6359 44.2432 84.7539 43.4945 84.7539 42.6084ZM100.549 39.8347C100.51 39.3532 100.33 38.9776 100.007 38.7079C99.6891 38.4383 99.2051 38.3034 98.555 38.3034C98.1409 38.3034 97.8014 38.354 97.5366 38.4551C97.2765 38.5514 97.0839 38.6839 96.9587 38.8524C96.8335 39.0209 96.7685 39.2136 96.7637 39.4302C96.7541 39.6084 96.7854 39.7697 96.8576 39.9142C96.9346 40.0538 97.055 40.1815 97.2188 40.297C97.3825 40.4078 97.5919 40.5089 97.8472 40.6004C98.1024 40.6919 98.4058 40.7737 98.7573 40.846L99.9708 41.106C100.789 41.2794 101.49 41.5081 102.073 41.7922C102.655 42.0763 103.132 42.411 103.503 42.7962C103.874 43.1766 104.146 43.6052 104.319 44.0819C104.497 44.5587 104.589 45.0787 104.594 45.6421C104.589 46.6148 104.346 47.4383 103.864 48.1124C103.382 48.7866 102.694 49.2994 101.798 49.651C100.907 50.0025 99.8359 50.1782 98.5839 50.1782C97.2982 50.1782 96.1762 49.988 95.218 49.6076C94.2645 49.2272 93.5229 48.6421 92.9932 47.8524C92.4684 47.0579 92.2035 46.0418 92.1987 44.8042H96.0125C96.0366 45.2569 96.1497 45.6373 96.352 45.9455C96.5542 46.2537 96.8383 46.4872 97.2043 46.6461C97.5751 46.805 98.0157 46.8845 98.5261 46.8845C98.9547 46.8845 99.3135 46.8315 99.6024 46.7256C99.8913 46.6197 100.11 46.4728 100.26 46.285C100.409 46.0972 100.486 45.8829 100.491 45.6421C100.486 45.4158 100.411 45.2184 100.267 45.0498C100.127 44.8765 99.8961 44.7224 99.5735 44.5875C99.2509 44.4479 98.8151 44.3179 98.2661 44.1975L96.7926 43.8797C95.4828 43.5956 94.4499 43.1213 93.6939 42.4567C92.9427 41.7874 92.5695 40.8749 92.5743 39.7192C92.5695 38.7802 92.8199 37.9591 93.3255 37.2561C93.8359 36.5482 94.5414 35.9969 95.4419 35.602C96.3472 35.2071 97.3849 35.0097 98.555 35.0097C99.7492 35.0097 100.782 35.2095 101.654 35.6092C102.525 36.0089 103.197 36.5723 103.669 37.2994C104.146 38.0217 104.386 38.8668 104.391 39.8347H100.549ZM107.952 50.0049V35.212H118.613V38.4479H111.968V40.9904H118.064V44.2264H111.968V46.7689H118.584V50.0049H107.952Z" fill="white"/>
<defs>
<linearGradient id="paint0_linear_26_6876" x1="43.5827" y1="-13.1385" x2="48.6944" y2="62.7118" gradientUnits="userSpaceOnUse">
<stop offset="2.7e-07" stop-color="#95D543"/>
<stop offset="0.2613" stop-color="#72B74E"/>
<stop offset="0.5762" stop-color="#4F9959"/>
<stop offset="0.8338" stop-color="#398760"/>
<stop offset="1" stop-color="#318063"/>
</linearGradient>
<linearGradient id="paint1_linear_26_6876" x1="17.2448" y1="92.174" x2="114.16" y2="71.0501" gradientUnits="userSpaceOnUse">
<stop offset="2.7e-07" stop-color="#95D543"/>
<stop offset="0.2613" stop-color="#72B74E"/>
<stop offset="0.5762" stop-color="#4F9959"/>
<stop offset="0.8338" stop-color="#398760"/>
<stop offset="1" stop-color="#318063"/>
</linearGradient>
<linearGradient id="paint2_linear_26_6876" x1="51.3505" y1="-9.7831" x2="123.419" y2="124.508" gradientUnits="userSpaceOnUse">
<stop stop-color="#F8A45B"/>
<stop offset="0.2171" stop-color="#C97F40"/>
<stop offset="0.4733" stop-color="#985825"/>
<stop offset="0.6987" stop-color="#743C11"/>
<stop offset="0.8819" stop-color="#5E2B04"/>
<stop offset="1" stop-color="#562500"/>
</linearGradient>
<linearGradient id="paint3_linear_26_6876" x1="81.2805" y1="54.6184" x2="93.313" y2="135.156" gradientUnits="userSpaceOnUse">
<stop stop-color="#F8A45B"/>
<stop offset="0.3936" stop-color="#CC7937"/>
<stop offset="0.7917" stop-color="#A55318"/>
<stop offset="1" stop-color="#96440C"/>
</linearGradient>
<linearGradient id="paint4_linear_26_6876" x1="70.0468" y1="-5.2102" x2="86.7313" y2="84.309" gradientUnits="userSpaceOnUse">
<stop stop-color="#F8A45B"/>
<stop offset="0.3936" stop-color="#CC7937"/>
<stop offset="0.7917" stop-color="#A55318"/>
<stop offset="1" stop-color="#96440C"/>
</linearGradient>
<linearGradient id="paint5_linear_26_6876" x1="125.396" y1="56.5498" x2="125.712" y2="62.3312" gradientUnits="userSpaceOnUse">
<stop offset="0.3844" stop-color="#96440C"/>
<stop offset="0.3989" stop-color="#9A4810"/>
<stop offset="0.5039" stop-color="#B76427"/>
</linearGradient>
<linearGradient id="paint6_linear_26_6876" x1="38.0748" y1="60.9316" x2="37.7062" y2="71.8658" gradientUnits="userSpaceOnUse">
<stop offset="0.3844" stop-color="#96440C"/>
<stop offset="0.3989" stop-color="#9A4810"/>
<stop offset="0.5039" stop-color="#B76427"/>
</linearGradient>
<linearGradient id="paint7_linear_26_6876" x1="92.4191" y1="69.096" x2="92.5261" y2="72.7324" gradientUnits="userSpaceOnUse">
<stop offset="0.3844" stop-color="#96440C"/>
<stop offset="0.3989" stop-color="#9A4810"/>
<stop offset="0.5039" stop-color="#B76427"/>
</linearGradient>
<linearGradient id="paint8_linear_26_6876" x1="17.155" y1="33.7299" x2="16.7138" y2="39.345" gradientUnits="userSpaceOnUse">
<stop offset="0.3844" stop-color="#96440C"/>
<stop offset="0.3989" stop-color="#9A4810"/>
<stop offset="0.5039" stop-color="#B76427"/>
</linearGradient>
<linearGradient id="paint9_linear_26_6876" x1="49.3731" y1="15.4861" x2="49.6405" y2="18.4808" gradientUnits="userSpaceOnUse">
<stop offset="0.3844" stop-color="#96440C"/>
<stop offset="0.3989" stop-color="#9A4810"/>
<stop offset="0.5039" stop-color="#B76427"/>
</linearGradient>
<linearGradient id="paint10_linear_26_6876" x1="144.689" y1="33.2656" x2="143.743" y2="39.6778" gradientUnits="userSpaceOnUse">
<stop offset="0.3844" stop-color="#96440C"/>
<stop offset="0.3989" stop-color="#9A4810"/>
<stop offset="0.5039" stop-color="#B76427"/>
</linearGradient>
<linearGradient id="paint11_linear_26_6876" x1="78.9" y1="28.909" x2="84.4343" y2="76.2183" gradientUnits="userSpaceOnUse">
<stop stop-color="#F8A45B"/>
<stop offset="0.2171" stop-color="#C97F40"/>
<stop offset="0.4733" stop-color="#985825"/>
<stop offset="0.6987" stop-color="#743C11"/>
<stop offset="0.8819" stop-color="#5E2B04"/>
<stop offset="1" stop-color="#562500"/>
</linearGradient>
<linearGradient id="paint12_linear_26_6876" x1="80.7052" y1="19.7422" x2="80.7052" y2="72.4484" gradientUnits="userSpaceOnUse">
<stop stop-color="#F8A45B"/>
<stop offset="0.3936" stop-color="#CC7937"/>
<stop offset="0.7917" stop-color="#A55318"/>
<stop offset="1" stop-color="#96440C"/>
</linearGradient>
</defs>
</svg>
