<svg width="50" height="49" viewBox="0 0 50 49" fill="none" xmlns="http://www.w3.org/2000/svg">
<rect x="0.574829" y="48.0623" width="47.8966" height="49.4252" rx="23.9483" transform="rotate(-90 0.574829 48.0623)" fill="#EC0E52"/>
<rect x="0.574829" y="48.0623" width="47.8966" height="49.4252" rx="23.9483" transform="rotate(-90 0.574829 48.0623)" fill="url(#paint0_radial_26_6753)" fill-opacity="0.7"/>
<rect x="0.574829" y="48.0623" width="47.8966" height="49.4252" rx="23.9483" transform="rotate(-90 0.574829 48.0623)" fill="url(#paint1_radial_26_6753)"/>
<path fill-rule="evenodd" clip-rule="evenodd" d="M15.1969 14.2779C15.8759 13.5989 16.9769 13.5989 17.6559 14.2779L26.2625 22.8846C26.9416 23.5636 26.9416 24.6645 26.2625 25.3436L17.6559 33.9502C16.9769 34.6292 15.8759 34.6292 15.1969 33.9502C14.5179 33.2711 14.5179 32.1702 15.1969 31.4912L22.574 24.1141L15.1969 16.737C14.5179 16.0579 14.5179 14.957 15.1969 14.2779Z" fill="white"/>
<path fill-rule="evenodd" clip-rule="evenodd" d="M34.8692 33.9502C34.1901 34.6292 33.0892 34.6292 32.4102 33.9502L23.8035 25.3436C23.1245 24.6645 23.1245 23.5636 23.8035 22.8845L32.4102 14.2779C33.0892 13.5989 34.1901 13.5989 34.8692 14.2779C35.5482 14.957 35.5482 16.0579 34.8692 16.737L27.4921 24.1141L34.8692 31.4912C35.5482 32.1702 35.5482 33.2711 34.8692 33.9502Z" fill="white"/>
<defs>
<radialGradient id="paint0_radial_26_6753" cx="0" cy="0" r="1" gradientUnits="userSpaceOnUse" gradientTransform="translate(13.2142 58.3592) rotate(51.9211) scale(40.9873 40.6994)">
<stop stop-color="white" stop-opacity="0.59"/>
<stop offset="0.697917" stop-color="white" stop-opacity="0"/>
<stop offset="1" stop-color="white" stop-opacity="0"/>
</radialGradient>
<radialGradient id="paint1_radial_26_6753" cx="0" cy="0" r="1" gradientUnits="userSpaceOnUse" gradientTransform="translate(41.9102 91.3093) rotate(-93.5573) scale(42.2988 45.6972)">
<stop stop-opacity="0.23"/>
<stop offset="0.861815" stop-opacity="0"/>
</radialGradient>
</defs>
</svg>
