<svg width="388" height="389" viewBox="0 0 388 389" fill="none" xmlns="http://www.w3.org/2000/svg">
<path d="M382.021 146.485C373.645 113.504 356.719 83.2066 333.011 58.782C310.041 35.1158 280.774 16.953 246.766 7.34645C212.759 -2.27949 178.304 -2.14335 146.356 5.98523C113.397 14.3666 83.1203 31.3238 58.7318 55.0289C35.0817 78.0145 16.9312 107.301 7.33125 141.332C-2.28813 175.363 -2.13267 209.822 5.99038 241.811C14.366 274.792 31.2923 305.089 55.0007 329.495C77.9512 353.161 107.217 371.324 141.225 380.95C175.233 390.576 209.669 390.439 241.617 382.291C274.575 373.91 304.852 356.972 329.241 333.248C352.891 310.262 371.041 280.976 380.641 246.945C390.28 212.914 390.144 178.455 382.021 146.485Z" fill="#F1F2F2"/>
<path d="M199.622 194.226L380.972 148.255C388.803 180.069 388.356 213.497 379.67 245.156L199.622 194.226Z" fill="#74B661"/>
<path d="M332.991 60.8629C355.631 84.5486 371.955 113.738 380.253 145.435L198.922 191.406L332.991 60.8629Z" fill="#FED589"/>
<path d="M193.928 199.768L239.868 381.242C208.075 389.079 174.67 388.631 143.032 379.939L193.928 199.768Z" fill="#FED589"/>
<path d="M140.234 379.141C108.733 369.963 80.0304 352.85 57.041 329.534L191.11 198.99L140.234 379.141Z" fill="#74B661"/>
<path d="M196.746 199.068L327.2 333.229C303.53 355.884 274.361 372.199 242.685 380.522L196.746 199.068Z" fill="#74B661"/>
<path d="M198.825 197.026L378.873 247.956C369.72 279.479 352.599 308.182 329.299 331.206L198.825 197.026Z" fill="#FED589"/>
<path d="M55.0199 327.434C32.3803 303.748 16.0759 274.559 7.75853 242.861L189.089 196.89L55.0199 327.434Z" fill="#FED589"/>
<path d="M148.124 7.05505C179.917 -0.781839 213.322 -0.334578 244.959 8.35794L194.083 188.528L148.124 7.05505Z" fill="#FED589"/>
<path d="M7.03966 240.042C-0.791888 208.227 -0.344933 174.799 8.34166 143.14L188.389 194.07L7.03966 240.042Z" fill="#74B661"/>
<path d="M247.777 9.13553C279.278 18.3142 307.961 35.427 330.97 58.7626L196.882 189.306L247.777 9.13553Z" fill="#74B661"/>
<path d="M60.7915 55.0678C84.461 32.4128 113.63 16.0779 145.306 7.77429L191.246 189.248L60.7915 55.0678Z" fill="#74B661"/>
<path d="M9.11913 140.34C18.2916 108.818 35.3927 80.0955 58.7124 57.0905L189.167 191.27L9.11913 140.34Z" fill="#FED589"/>
</svg>
