<svg width="120" height="156" viewBox="0 0 120 156" fill="none" xmlns="http://www.w3.org/2000/svg">
<path d="M113.648 114.224C113.66 114.158 113.699 114.13 113.672 114.091C113.718 113.654 113.632 113.192 113.349 112.865L35.4272 13.8464C35.1713 13.5591 34.8367 13.326 34.4385 13.2527C34.3057 13.2283 30.6428 12.6229 26.8551 12.5093C20.8946 12.2703 17.7988 13.2447 17.1478 15.664C17.1356 15.7304 17.1234 15.7967 17.1112 15.8631C17.0379 16.2614 17.1244 16.7234 17.3682 17.077C17.6119 17.4307 18.0128 17.676 18.4504 17.7222C21.4224 18.1661 24.7991 19.954 27.4063 21.6347C23.9819 21.0389 19.0647 19.791 13.3421 16.9538C12.7149 16.6325 11.8967 16.7908 11.4549 17.3271C11.2855 17.5018 11.2095 17.728 11.1336 17.9542C11.021 18.3796 11.0954 18.9079 11.4055 19.2738C14.3547 23.3848 18.5576 25.5306 22.5614 27.6398C24.0689 28.3976 25.5642 29.2217 27.0473 30.1122C22.975 30.4265 19.3615 32.1635 19.138 32.2596C18.718 32.4911 18.4456 32.8527 18.333 33.278C18.257 33.5043 18.2475 33.7427 18.2772 33.954C18.3935 34.6273 18.984 35.1477 19.687 35.2428C19.687 35.2428 21.1988 35.418 23.7981 36.5825C21.4505 36.2878 19.6759 36.2358 19.5038 36.2384C18.7886 36.2097 18.1477 36.7094 17.9469 37.4273C17.9347 37.4937 17.9347 37.4937 17.9225 37.5601C17.7882 38.2902 18.197 39.0517 18.9691 39.331C23.8278 41.0828 27.4382 45.144 29.3705 47.6955C24.3105 48.3428 19.0116 50.6617 18.7487 50.7849C18.3016 50.9771 17.9899 51.3658 17.8773 51.7911C17.8163 52.123 17.8216 52.4671 17.9597 52.8356C18.3292 53.6241 19.2219 53.9943 20.0375 53.664C20.1825 53.622 23.8406 52.2021 28.4656 55.9696C24.7619 56.1459 18.2533 53.8504 13.984 51.6923C13.2634 51.3196 12.3543 51.5984 11.9545 52.2796C11.8637 52.4002 11.8 52.56 11.7755 52.6928C11.6263 53.3172 11.8483 53.9757 12.3575 54.3782C12.5715 54.5205 17.3118 58.0347 30.4781 66.2903C27.4365 67.3433 23.1943 65.2245 23.1672 65.1853C22.4196 64.7732 21.4712 65.0791 21.0591 65.8267C21.0076 65.9202 20.9439 66.08 20.8924 66.1735C20.7039 66.825 21.0071 67.6013 21.6342 67.9226C21.8211 68.0256 25.7734 70.2282 33.7114 71.6545C30.6666 74.2166 27.5008 78.3691 26.4998 82.1308C25.9492 84.1911 26.0962 86.0024 26.8476 87.5131C27.094 88.0388 27.6818 88.3871 28.2643 88.3914C28.8469 88.3956 29.397 88.0165 29.6667 87.4828C31.0006 84.7088 32.8544 83.0255 35.3581 82.2853C39.2721 81.1527 43.8627 82.6836 46.6218 83.9118C43.8903 85.3306 39.3136 87.2678 35.1127 86.9752C34.4368 86.9194 33.8081 87.3527 33.5532 87.992C33.541 88.0584 33.5017 88.0855 33.4895 88.1519C33.3132 88.7371 33.5351 89.3955 34.0173 89.7587C37.9191 92.9814 45.0718 93.2682 49.9799 93.0733C45.8444 96.1552 39.8759 99.6891 35.5641 99.0673C34.9003 98.9451 34.2445 99.3392 33.9355 99.8999C33.884 99.9934 33.8325 100.087 33.808 100.22C33.644 100.738 33.8118 101.318 34.1882 101.696C42.4613 110.252 53.4718 107.475 59.6527 104.838C58.922 106.385 58.1967 108.276 57.6582 110.269C56.5962 114.363 56.7428 117.855 58.1494 120.653C58.4499 121.258 59.0771 121.579 59.7111 121.49C60.3722 121.44 60.9075 120.955 61.0567 120.33C61.7932 117.447 65.4152 114.545 69.3107 112.208C67.6858 114.139 66.157 116.294 65.0536 118.561C65.0021 118.655 64.9899 118.721 64.9383 118.814C64.8502 119.107 64.8555 119.451 64.9665 119.78C65.1316 120.188 65.4147 120.515 65.8007 120.654C66.3737 120.897 67.0767 120.992 67.9099 120.94C65.3844 121.985 62.6056 122.914 59.4801 123.677C58.9395 123.818 58.4829 124.249 58.3459 124.807C58.3337 124.873 58.3337 124.873 58.3214 124.94C58.2115 125.537 58.4728 126.168 58.9942 126.504C67.7288 132.366 81.903 127.872 88.7572 125.119C87.914 127.091 86.9459 129.555 86.2976 132.146C85.0226 137.024 85.1325 140.715 86.6395 143.154C87.0065 143.771 87.7785 144.05 88.437 143.828C88.9505 143.648 89.3679 143.245 89.4926 142.753C89.5171 142.62 89.5537 142.421 89.5118 142.276C89.4592 141.443 89.5516 140.568 89.8282 139.624C92.6914 128.725 112.791 115.336 112.988 115.2C113.314 114.917 113.547 114.583 113.648 114.224Z" fill="url(#paint0_linear_23_1519)"/>
<path d="M89.8195 119.344C89.8195 119.344 69.8929 129.367 59.5398 122.419C77.1061 118.137 84.4558 108.029 84.4558 108.029C84.4558 108.029 69.8435 118.447 65.7664 116.736C68.8803 110.07 76.6553 104.363 76.6553 104.363C76.6553 104.363 61.0352 110.376 59.1974 117.38C55.6205 110.34 62.9203 99.5716 62.9203 99.5716C62.9203 99.5716 46.9736 110.156 36.2669 99.1621C43.9612 100.235 54.7789 90.1132 54.7789 90.1132C54.7789 90.1132 41.3885 92.2128 35.9982 87.7555C42.716 88.1681 50.0938 83.3153 50.0938 83.3153C50.0938 83.3153 35.378 74.157 29.6452 86.1062C26.9849 80.9847 35.7609 71.5168 39.2209 70.9868C29.0367 69.8335 24.135 67.0101 24.135 67.0101C24.135 67.0101 30.9276 70.5589 34.428 66.6395C20.4206 57.9203 15.5327 54.276 15.5327 54.276C15.5327 54.276 28.3799 60.723 32.7267 57.6113C26.6828 51.1123 21.3175 53.419 21.3175 53.419C21.3175 53.419 28.3114 50.2797 33.4239 50.4655C33.4239 50.4655 28.9194 42.4999 21.4518 39.822C21.4518 39.822 31.0254 40.0052 35.6871 43.5736C27.2239 36.4235 21.7619 35.8989 21.7619 35.8989C21.7619 35.8989 29.7897 31.9891 34.6601 35.3557C28.287 28.9677 19.8286 28.1319 14.9863 21.4422C26.2176 26.9743 34.0994 26.4688 34.0994 26.4688C34.0994 26.4688 26.8294 20.2931 20.7132 19.4079C21.3998 15.8629 35.3483 18.1893 35.3483 18.1893L108.896 111.703C108.896 111.703 85.5714 127.14 86.0785 138.556C82.5771 132.971 89.8195 119.344 89.8195 119.344Z" fill="#318063"/>
<defs>
<linearGradient id="paint0_linear_23_1519" x1="101.862" y1="178.997" x2="35.708" y2="17.5223" gradientUnits="userSpaceOnUse">
<stop offset="2.7e-07" stop-color="#95D543"/>
<stop offset="0.2613" stop-color="#72B74E"/>
<stop offset="0.5762" stop-color="#4F9959"/>
<stop offset="0.8338" stop-color="#398760"/>
<stop offset="1" stop-color="#318063"/>
</linearGradient>
</defs>
</svg>
