<svg width="389" height="283" viewBox="0 0 389 283" fill="none" xmlns="http://www.w3.org/2000/svg">
<path d="M34.9314 196.588C34.9631 196.588 34.9948 196.588 35.0265 196.588C35.3118 196.651 35.5337 196.81 35.6922 197.064L78.3263 266.603C78.4531 266.826 78.5164 267.08 78.453 267.334C78.4214 267.429 77.9776 269.779 77.2168 272.129C76.0123 275.812 74.7127 277.463 73.1278 277.304C73.0961 277.304 73.0327 277.304 73.001 277.304C72.7157 277.273 72.4938 277.114 72.3353 276.86C72.1768 276.637 72.1134 276.352 72.1768 276.066C72.5889 274.161 72.2402 271.716 71.8281 269.747C71.4161 271.97 71.0991 275.24 71.5428 279.368C71.6062 279.845 71.321 280.257 70.8772 280.448C70.7187 280.511 70.5919 280.511 70.4334 280.511C70.1481 280.48 69.8628 280.321 69.6727 280.067C67.8659 277.336 67.4538 274.319 67.1051 271.398C66.9783 270.319 66.8198 269.207 66.6296 268.128C65.5202 270.541 63.6817 272.351 63.5549 272.478C63.333 272.7 63.0477 272.795 62.7624 272.764C62.604 272.764 62.4772 272.7 62.3504 272.637C61.97 272.414 61.7798 271.938 61.8749 271.493C61.8749 271.493 62.0968 270.541 61.97 268.699C61.6213 270.192 61.2726 271.271 61.2092 271.366C61.0507 271.811 60.607 272.097 60.1632 272.033C60.1315 272.033 60.0998 272.033 60.0998 272.033C59.6243 271.938 59.2439 271.525 59.2439 271.017C59.2756 267.651 57.6273 264.54 56.4862 262.825C54.9647 265.778 52.3654 268.445 52.2386 268.604C52.0168 268.826 51.6998 268.921 51.4145 268.89C51.1926 268.858 50.9707 268.763 50.8122 268.604C50.4002 268.223 50.4002 267.588 50.7805 267.175C50.8439 267.08 52.5239 265.175 51.2877 261.523C50.3368 263.746 50.2734 268.191 50.622 271.271C50.6854 271.811 50.3368 272.287 49.7979 272.383C49.7028 272.414 49.6077 272.414 49.5126 272.383C49.1005 272.351 48.7519 272.065 48.6251 271.652C48.5934 271.493 47.5156 267.842 45.4552 257.967C44.1239 259.586 44.4726 262.634 44.4726 262.666C44.536 263.206 44.1556 263.714 43.6167 263.809C43.5216 263.809 43.4583 263.809 43.3632 263.809C42.9194 263.777 42.539 263.428 42.4439 262.952C42.4122 262.825 41.9684 259.935 42.8877 254.76C40.6371 256.061 37.4356 257.046 34.9314 256.792C33.5684 256.665 32.4907 256.188 31.7616 255.363C31.508 255.077 31.4129 254.664 31.5714 254.315C31.6982 253.966 32.0469 253.712 32.4273 253.68C34.3926 253.489 35.8507 252.759 36.865 251.394C38.4499 249.266 38.5133 246.123 38.3865 244.186C36.9284 245.519 34.7096 247.901 33.9488 250.505C33.822 250.917 33.4416 251.235 32.9979 251.235C32.9662 251.235 32.9345 251.235 32.8711 251.235C32.4907 251.203 32.142 250.949 32.0152 250.568C30.9375 247.456 32.3639 243.043 33.6001 240.121C30.8107 241.931 27.3239 244.789 26.7216 247.552C26.6265 247.964 26.2778 248.282 25.8341 248.345C25.7707 248.345 25.6756 248.345 25.6122 248.345C25.2635 248.314 24.9465 248.091 24.788 247.774C21.4597 240.82 25.6122 234.755 28.5918 231.58C27.4824 231.675 26.1827 231.707 24.8514 231.58C22.1254 231.326 20.0333 230.437 18.6386 228.944C18.3533 228.627 18.2899 228.182 18.4801 227.801C18.6703 227.42 19.0823 227.198 19.4944 227.23C21.3963 227.42 23.9956 225.864 26.2778 224.054C24.7563 224.626 23.0763 225.07 21.4597 225.197C21.3963 225.197 21.3329 225.197 21.2695 225.197C21.0476 225.166 20.8574 225.102 20.699 224.943C20.4771 224.753 20.382 224.499 20.3503 224.213C20.3186 223.8 20.4454 223.356 20.6356 222.879C19.431 224.181 18.2265 225.674 17.0854 227.388C16.8635 227.706 16.5148 227.865 16.1344 227.833C16.1027 227.833 16.071 227.833 16.0393 227.833C15.6272 227.769 15.3103 227.452 15.2152 227.071C13.6303 220.434 19.5261 212.845 22.7276 209.321C21.3646 209.384 19.6212 209.416 17.9095 209.257C14.6763 208.94 12.4574 208.051 11.3163 206.59C11.031 206.209 11.031 205.701 11.3163 205.352C11.5382 205.066 11.8869 204.939 12.2355 204.971C12.3306 204.971 12.4257 205.002 12.5208 205.034C12.9963 205.225 13.5669 205.383 14.2008 205.447C21.4597 206.145 34.0756 196.937 34.2024 196.842C34.4243 196.651 34.6779 196.588 34.9314 196.588Z" fill="url(#paint0_linear_21_546)"/>
<path d="M29.1623 209.67C29.1623 209.67 19.1457 219.037 20.9525 226.531C27.1653 217.291 34.551 215.195 34.551 215.195C34.551 215.195 25.4219 221.419 25.5487 224.118C30.0499 223.737 34.9948 220.466 34.9948 220.466C34.9948 220.466 28.2114 228.214 23.7419 227.769C27.0385 231.326 34.8046 229.389 34.8046 229.389C34.8046 229.389 25.2951 236.343 29.3842 244.884C30.3985 240.217 38.545 236.12 38.545 236.12C38.545 236.12 34.4876 243.392 35.8823 247.488C37.0869 243.519 41.4612 240.312 41.4612 240.312C41.4612 240.312 43.585 250.759 35.502 251.552C37.8793 254.156 45.2333 251.108 46.2793 249.266C44.7895 255.395 45.3601 258.824 45.3601 258.824C45.3601 258.824 44.7578 254.124 47.7692 252.95C49.8295 262.92 50.8756 266.54 50.8756 266.54C50.8756 266.54 49.8929 257.744 52.5873 255.903C55.0597 260.793 52.5556 263.396 52.5556 263.396C52.5556 263.396 55.8522 260.031 56.8348 257.014C56.8348 257.014 60.4801 261.301 60.4167 266.222C60.4167 266.222 62.3503 260.634 61.2726 257.173C63.5865 263.587 62.7307 266.857 62.7307 266.857C62.7307 266.857 66.693 263.047 65.8054 259.522C68.1511 264.571 66.8198 269.652 69.6409 273.843C68.8484 266.191 70.8137 261.745 70.8137 261.745C70.8137 261.745 72.8424 267.27 72.05 270.985C74.2371 271.335 75.8854 262.793 75.8854 262.793L37.6257 200.271C37.6257 200.271 23.7419 210.464 17.2755 207.733C19.7797 210.94 29.1623 209.67 29.1623 209.67Z" fill="#318063"/>
<path d="M48.9103 50.7455C48.942 50.7773 48.9737 50.809 48.9737 50.8408C49.1639 51.0948 49.2273 51.4441 49.1639 51.7616L29.7012 142.893C29.6378 143.179 29.4793 143.433 29.2257 143.592C29.1306 143.655 26.9118 145.243 24.4393 146.577C20.5404 148.672 18.1948 149.022 16.9902 147.656C16.9585 147.624 16.9268 147.593 16.8951 147.561C16.7049 147.307 16.6099 146.989 16.6732 146.672C16.7366 146.354 16.8951 146.068 17.1804 145.91C19.0189 144.64 20.6672 142.353 21.8401 140.416C19.748 141.941 16.9268 144.386 14.0423 148.132C13.7253 148.545 13.1547 148.704 12.6476 148.482C12.4891 148.418 12.3306 148.291 12.2355 148.164C12.0136 147.91 11.9185 147.561 11.9819 147.212C12.6159 143.528 14.6763 140.734 16.6732 138.003C17.4023 136.987 18.1631 135.971 18.8604 134.891C16.0393 136.034 13.0914 136.034 12.9012 136.034C12.5525 136.034 12.2355 135.876 12.0136 135.622C11.9185 135.495 11.8234 135.336 11.76 135.177C11.6332 134.669 11.8234 134.129 12.2672 133.875C12.2672 133.875 13.2181 133.272 14.5495 131.653C13.0914 132.637 11.9502 133.208 11.8234 133.272C11.348 133.526 10.7774 133.399 10.4287 132.986C10.397 132.954 10.397 132.954 10.3653 132.923C10.0166 132.478 10.08 131.843 10.4604 131.43C13.123 128.699 14.2008 124.794 14.6129 122.476C11.031 123.714 6.75171 123.873 6.56153 123.873C6.18115 123.873 5.86416 123.714 5.64228 123.46C5.48379 123.27 5.35699 123.016 5.35699 122.762C5.3253 122.127 5.83247 121.587 6.46643 121.555C6.59322 121.555 9.47776 121.301 11.3163 117.268C8.7804 118.348 5.2302 122 3.10642 124.826C2.78944 125.302 2.12378 125.429 1.61661 125.111C1.52151 125.048 1.42642 124.984 1.36302 124.889C1.04604 124.54 0.982644 124.032 1.20453 123.587C1.29963 123.428 3.29661 119.555 9.35097 109.775C6.9736 110.06 4.88152 112.855 4.84982 112.886C4.46944 113.394 3.77208 113.521 3.23322 113.14C3.16982 113.077 3.07472 113.013 3.01133 112.95C2.66265 112.569 2.63095 111.997 2.91623 111.553C3.01133 111.426 4.88152 108.663 9.69965 105.139C6.81511 104.44 3.39171 102.694 1.52151 100.534C0.507171 99.3596 0 98.0895 0 96.8511C0 96.4065 0.253585 96.0255 0.665662 95.835C1.07774 95.6445 1.52151 95.708 1.87019 95.962C3.64529 97.3591 5.45209 97.8989 7.32228 97.5497C10.3019 97.0416 12.8378 94.5014 14.2642 92.7867C12.0136 92.7549 8.33662 92.9454 5.61058 94.5013C5.1668 94.7554 4.62794 94.6919 4.24756 94.3426C4.21586 94.3108 4.18416 94.2791 4.15246 94.2473C3.86718 93.898 3.77208 93.4217 3.96227 93.0089C5.51548 89.6114 10.1434 87.0711 13.4717 85.6105C9.73134 84.9119 4.62794 84.4991 1.93359 86.3408C1.52151 86.6266 0.982644 86.5948 0.570567 86.309C0.507171 86.2455 0.443775 86.2138 0.380378 86.1503C0.126793 85.8327 0.0316982 85.4199 0.158491 85.0389C2.88454 76.6561 11.0627 74.9414 16.0393 74.6556C15.0249 73.8618 13.9472 72.8457 12.9646 71.7026C10.9042 69.3211 9.88983 66.9396 9.92153 64.6216C9.92153 64.1453 10.2385 63.7008 10.6823 63.542C11.1261 63.3833 11.6332 63.5103 11.9502 63.8596C13.3766 65.5107 16.7366 66.2728 20.065 66.5903C18.3533 65.86 16.6415 64.9074 15.1834 63.7325C15.12 63.7008 15.0883 63.6373 15.0249 63.5738C14.8664 63.3833 14.7714 63.161 14.7397 62.907C14.708 62.5894 14.8031 62.2719 15.0249 62.0496C15.3419 61.7003 15.7857 61.4146 16.3246 61.1923C14.3276 61.3193 12.1404 61.6051 9.82644 62.1131C9.41436 62.2084 8.97059 62.0496 8.6853 61.7321C8.6536 61.7003 8.65361 61.6686 8.62191 61.6686C8.33662 61.2876 8.33662 60.8113 8.55851 60.3985C12.4574 53.6668 23.2982 52.0156 28.7503 51.6346C27.5457 50.6185 26.1193 49.2531 24.8197 47.7925C22.3789 44.9664 21.2695 42.4897 21.4597 40.394C21.5231 39.8542 21.9034 39.4414 22.4423 39.3461C22.8544 39.2826 23.2348 39.4414 23.4884 39.7272C23.5518 39.8224 23.6151 39.9177 23.6785 40.0129C23.9321 40.5845 24.2808 41.1243 24.7563 41.6641C30.2084 47.983 47.896 50.301 48.0862 50.3327C48.4665 50.3645 48.7201 50.5232 48.9103 50.7455Z" fill="url(#paint1_linear_21_546)"/>
<path d="M34.0122 57.0961C34.0122 57.0961 18.4167 56.9374 14.0107 64.5264C26.3729 61.7956 34.1073 65.8917 34.1073 65.8917C34.1073 65.8917 21.7133 63.8278 19.6846 66.1775C23.6786 69.4163 30.3669 70.5912 30.3669 70.5912C30.3669 70.5912 18.702 71.6391 15.3737 67.7652C15.3103 73.2902 23.2348 77.8309 23.2348 77.8309C23.2348 77.8309 9.95329 76.0845 6.62498 86.3408C11.1261 83.2607 21.0477 86.3408 21.0477 86.3408C21.0477 86.3408 11.982 89.1668 9.95329 93.6122C14.0424 91.2943 20.1918 92.0563 20.1918 92.0563C20.1918 92.0563 13.7571 102.376 6.46649 96.6288C6.37139 100.661 14.8348 103.932 17.1488 103.202C11.0944 107.076 8.87555 110.378 8.87555 110.378C8.87555 110.378 12.0771 106.059 15.4688 107.425C9.35102 117.268 7.38574 121.079 7.38574 121.079C7.38574 121.079 13.4718 113.045 17.1488 113.648C15.3737 119.618 11.2529 119.809 11.2529 119.809C11.2529 119.809 16.6099 119.618 19.7797 117.903C19.7797 117.903 19.431 124.286 15.5322 128.318C15.5322 128.318 21.4914 125.238 23.3616 121.555C20.2552 128.668 16.9586 130.7 16.9586 130.7C16.9586 130.7 23.2031 130.7 25.2635 127.048C23.1714 133.05 18.0997 136.161 17.1171 141.845C22.4741 134.891 27.5775 132.764 27.5775 132.764C27.5775 132.764 24.9148 138.924 21.3329 141.369C22.8544 143.401 30.9375 137.622 30.9375 137.622L48.3715 56.0165C48.3715 56.0165 28.9088 53.508 25.739 46.173C25.2635 50.7772 34.0122 57.0961 34.0122 57.0961Z" fill="#318063"/>
<path d="M354.005 196.588C353.974 196.588 353.942 196.588 353.91 196.588C353.625 196.651 353.403 196.81 353.245 197.064L310.611 266.603C310.484 266.826 310.42 267.08 310.484 267.334C310.515 267.429 310.959 269.779 311.72 272.129C312.924 275.812 314.224 277.463 315.809 277.304C315.841 277.304 315.904 277.304 315.936 277.304C316.221 277.273 316.443 277.114 316.601 276.86C316.76 276.637 316.823 276.352 316.76 276.066C316.348 274.161 316.697 271.716 317.109 269.747C317.521 271.97 317.838 275.24 317.394 279.368C317.331 279.845 317.616 280.257 318.06 280.448C318.218 280.511 318.345 280.511 318.503 280.511C318.789 280.48 319.074 280.321 319.264 280.067C321.071 277.336 321.483 274.319 321.832 271.398C321.958 270.319 322.117 269.207 322.307 268.128C323.417 270.541 325.255 272.351 325.382 272.478C325.604 272.7 325.889 272.795 326.174 272.764C326.333 272.764 326.46 272.7 326.586 272.637C326.967 272.414 327.157 271.938 327.062 271.493C327.062 271.493 326.84 270.541 326.967 268.699C327.315 270.192 327.664 271.271 327.728 271.366C327.886 271.811 328.33 272.097 328.774 272.033C328.805 272.033 328.837 272.033 328.837 272.033C329.312 271.938 329.693 271.525 329.693 271.017C329.661 267.651 331.309 264.54 332.451 262.825C333.972 265.778 336.571 268.445 336.698 268.604C336.92 268.826 337.237 268.921 337.522 268.89C337.744 268.858 337.966 268.763 338.125 268.604C338.537 268.223 338.537 267.588 338.156 267.175C338.093 267.08 336.413 265.175 337.649 261.523C338.6 263.746 338.663 268.191 338.315 271.271C338.251 271.811 338.6 272.287 339.139 272.383C339.234 272.414 339.329 272.414 339.424 272.383C339.836 272.351 340.185 272.065 340.312 271.652C340.343 271.493 341.421 267.842 343.482 257.967C344.813 259.586 344.464 262.634 344.464 262.666C344.401 263.206 344.781 263.714 345.32 263.809C345.415 263.809 345.479 263.809 345.574 263.809C346.017 263.777 346.398 263.428 346.493 262.952C346.525 262.825 346.968 259.935 346.049 254.76C348.3 256.061 351.501 257.046 354.005 256.792C355.368 256.665 356.446 256.188 357.175 255.363C357.429 255.077 357.524 254.664 357.365 254.315C357.239 253.966 356.89 253.712 356.509 253.68C354.544 253.489 353.086 252.759 352.072 251.394C350.487 249.266 350.423 246.123 350.55 244.186C352.008 245.519 354.227 247.901 354.988 250.505C355.115 250.917 355.495 251.235 355.939 251.235C355.971 251.235 356.002 251.235 356.066 251.235C356.446 251.203 356.795 250.949 356.922 250.568C357.999 247.456 356.573 243.043 355.337 240.121C358.126 241.931 361.613 244.789 362.215 247.552C362.31 247.964 362.659 248.282 363.103 248.345C363.166 248.345 363.261 248.345 363.325 248.345C363.673 248.314 363.99 248.091 364.149 247.774C367.477 240.82 363.325 234.755 360.345 231.58C361.454 231.675 362.754 231.707 364.085 231.58C366.811 231.326 368.903 230.437 370.298 228.944C370.583 228.627 370.647 228.182 370.457 227.801C370.266 227.42 369.854 227.198 369.442 227.23C367.54 227.42 364.941 225.864 362.659 224.054C364.18 224.626 365.86 225.07 367.477 225.197C367.54 225.197 367.604 225.197 367.667 225.197C367.889 225.166 368.079 225.102 368.238 224.943C368.46 224.753 368.555 224.499 368.586 224.213C368.618 223.8 368.491 223.356 368.301 222.879C369.506 224.181 370.71 225.674 371.851 227.388C372.073 227.706 372.422 227.865 372.802 227.833C372.834 227.833 372.866 227.833 372.897 227.833C373.31 227.769 373.627 227.452 373.722 227.071C375.307 220.434 369.411 212.845 366.209 209.321C367.572 209.384 369.316 209.416 371.027 209.257C374.26 208.94 376.479 208.051 377.62 206.59C377.906 206.209 377.906 205.701 377.62 205.352C377.399 205.066 377.05 204.939 376.701 204.971C376.606 204.971 376.511 205.002 376.416 205.034C375.94 205.225 375.37 205.383 374.736 205.447C367.477 206.145 354.861 196.937 354.734 196.842C354.513 196.651 354.259 196.588 354.005 196.588Z" fill="url(#paint2_linear_21_546)"/>
<path d="M359.774 209.67C359.774 209.67 369.791 219.037 367.984 226.531C361.771 217.291 354.386 215.195 354.386 215.195C354.386 215.195 363.515 221.419 363.388 224.118C358.887 223.737 353.942 220.466 353.942 220.466C353.942 220.466 360.725 228.214 365.195 227.769C361.898 231.326 354.132 229.389 354.132 229.389C354.132 229.389 363.642 236.343 359.553 244.884C358.538 240.217 350.392 236.12 350.392 236.12C350.392 236.12 354.449 243.392 353.054 247.488C351.85 243.519 347.476 240.312 347.476 240.312C347.476 240.312 345.352 250.759 353.435 251.553C351.057 254.156 343.704 251.108 342.657 249.266C344.147 255.395 343.577 258.824 343.577 258.824C343.577 258.824 344.179 254.125 341.168 252.95C339.107 262.92 338.061 266.54 338.061 266.54C338.061 266.54 339.044 257.744 336.35 255.903C333.877 260.793 336.381 263.396 336.381 263.396C336.381 263.396 333.085 260.031 332.102 257.014C332.102 257.014 328.457 261.301 328.52 266.222C328.52 266.222 326.586 260.634 327.664 257.173C325.35 263.587 326.206 266.858 326.206 266.858C326.206 266.858 322.244 263.047 323.131 259.523C320.786 264.571 322.117 269.652 319.296 273.843C320.088 266.191 318.123 261.745 318.123 261.745C318.123 261.745 316.094 267.27 316.887 270.985C314.7 271.335 313.051 262.793 313.051 262.793L351.311 200.335C351.311 200.335 365.195 210.527 371.661 207.797C369.189 210.94 359.774 209.67 359.774 209.67Z" fill="#318063"/>
<path d="M340.026 50.7453C339.995 50.7771 339.963 50.8088 339.963 50.8406C339.773 51.0946 339.709 51.4439 339.773 51.7614L359.235 142.925C359.299 143.21 359.457 143.465 359.711 143.623C359.806 143.687 362.025 145.274 364.497 146.608C368.396 148.704 370.742 149.053 371.946 147.688C371.978 147.656 372.01 147.624 372.042 147.592C372.232 147.338 372.327 147.021 372.263 146.703C372.2 146.386 372.042 146.1 371.756 145.941C369.918 144.671 368.269 142.385 367.097 140.448C369.189 141.972 372.01 144.417 374.894 148.164C375.211 148.577 375.782 148.736 376.289 148.513C376.448 148.45 376.606 148.323 376.701 148.196C376.923 147.942 377.018 147.592 376.955 147.243C376.321 143.56 374.26 140.765 372.263 138.035C371.534 137.019 370.774 136.003 370.076 134.923C372.897 136.066 375.845 136.066 376.035 136.066C376.384 136.066 376.701 135.907 376.923 135.653C377.018 135.526 377.113 135.367 377.177 135.209C377.303 134.701 377.113 134.161 376.669 133.907C376.669 133.907 375.719 133.304 374.387 131.684C375.845 132.668 376.986 133.24 377.113 133.303C377.589 133.558 378.159 133.431 378.508 133.018C378.54 132.986 378.54 132.986 378.571 132.954C378.92 132.51 378.857 131.875 378.476 131.462C375.814 128.731 374.736 124.825 374.324 122.507C377.906 123.746 382.185 123.905 382.375 123.905C382.755 123.905 383.072 123.746 383.294 123.492C383.453 123.301 383.58 123.047 383.58 122.793C383.611 122.158 383.104 121.618 382.47 121.587C382.343 121.587 379.459 121.333 377.62 117.3C380.156 118.38 383.706 122.031 385.83 124.857C386.211 125.333 386.876 125.46 387.383 125.143C387.479 125.079 387.574 125.016 387.637 124.921C387.954 124.571 388.017 124.063 387.796 123.619C387.7 123.46 385.703 119.586 379.649 109.806C382.026 110.092 384.119 112.886 384.15 112.918C384.531 113.426 385.228 113.553 385.767 113.172C385.83 113.109 385.925 113.045 385.989 112.981C386.337 112.6 386.369 112.029 386.084 111.584C385.989 111.457 384.119 108.695 379.3 105.17C382.185 104.472 385.608 102.725 387.479 100.566C388.493 99.3911 389 98.121 389 96.8827C389 96.4381 388.746 96.0571 388.334 95.8665C387.922 95.676 387.479 95.7395 387.13 95.9936C385.355 97.3907 383.548 97.9305 381.678 97.5812C378.698 97.0732 376.162 94.5329 374.736 92.8182C376.986 92.7865 380.663 92.977 383.389 94.5329C383.833 94.7869 384.372 94.7234 384.752 94.3742C384.784 94.3424 384.816 94.3106 384.848 94.2789C385.133 93.9296 385.228 93.4533 385.038 93.0405C383.485 89.6429 378.857 87.1027 375.528 85.642C379.269 84.9435 384.372 84.5307 387.066 86.3724C387.479 86.6581 388.017 86.6264 388.429 86.3406C388.493 86.2771 388.556 86.2453 388.62 86.1818C388.873 85.8643 388.968 85.4515 388.842 85.0705C386.116 76.6876 377.937 74.973 372.961 74.6872C373.975 73.8934 375.053 72.8773 376.035 71.7342C378.096 69.3527 379.11 66.9712 379.079 64.6532C379.079 64.1769 378.762 63.7324 378.318 63.5736C377.874 63.4148 377.367 63.5418 377.05 63.8911C375.623 65.5423 372.263 66.3044 368.935 66.6219C370.647 65.8916 372.358 64.939 373.817 63.7641C373.88 63.7324 373.912 63.6689 373.975 63.6054C374.134 63.4148 374.229 63.1926 374.26 62.9385C374.292 62.621 374.197 62.3035 373.975 62.0812C373.658 61.7319 373.214 61.4461 372.675 61.2239C374.672 61.3509 376.86 61.6367 379.174 62.1447C379.586 62.24 380.029 62.0812 380.315 61.7637C380.346 61.7319 380.346 61.7002 380.378 61.7002C380.663 61.3191 380.663 60.8428 380.442 60.43C376.543 53.6984 365.702 52.0472 360.25 51.6662C361.454 50.6501 362.881 49.2847 364.18 47.824C366.621 44.998 367.731 42.5213 367.54 40.4256C367.477 39.8857 367.097 39.473 366.558 39.3777C366.146 39.3142 365.765 39.473 365.512 39.7587C365.448 39.854 365.385 39.9493 365.322 40.0445C365.068 40.6161 364.719 41.1559 364.244 41.6957C358.792 48.0146 341.104 50.3325 340.914 50.3643C340.47 50.3643 340.217 50.5231 340.026 50.7453Z" fill="url(#paint3_linear_21_546)"/>
<path d="M354.924 57.0962C354.924 57.0962 370.52 56.9374 374.926 64.5264C362.564 61.7956 354.829 65.8918 354.829 65.8918C354.829 65.8918 367.223 63.8278 369.252 66.1776C365.258 69.4164 358.57 70.5913 358.57 70.5913C358.57 70.5913 370.235 71.6391 373.563 67.7652C373.626 73.2903 365.702 77.831 365.702 77.831C365.702 77.831 378.983 76.0846 382.312 86.3408C377.81 83.2608 367.889 86.3408 367.889 86.3408C367.889 86.3408 376.955 89.1669 378.983 93.6123C374.894 91.2943 368.745 92.0564 368.745 92.0564C368.745 92.0564 375.179 102.376 382.47 96.6288C382.565 100.661 374.102 103.932 371.788 103.202C377.842 107.076 380.061 110.378 380.061 110.378C380.061 110.378 376.859 106.06 373.468 107.425C379.586 117.268 381.551 121.079 381.551 121.079C381.551 121.079 375.465 113.045 371.788 113.649C373.563 119.618 377.684 119.809 377.684 119.809C377.684 119.809 372.327 119.618 369.157 117.903C369.157 117.903 369.506 124.286 373.404 128.318C373.404 128.318 367.445 125.238 365.575 121.555C368.681 128.668 371.978 130.7 371.978 130.7C371.978 130.7 365.733 130.7 363.673 127.048C365.702 133.05 370.773 136.193 371.756 141.877C366.399 134.923 361.296 132.796 361.296 132.796C361.296 132.796 363.958 138.956 367.54 141.401C366.019 143.433 357.936 137.654 357.936 137.654L340.502 56.0483C340.502 56.0483 359.964 53.5398 363.134 46.2048C363.673 50.7773 354.924 57.0962 354.924 57.0962Z" fill="#318063"/>
<path d="M151.708 242.185C151.739 242.153 151.739 242.122 151.771 242.122C151.993 241.899 152.278 241.804 152.595 241.836L239.511 247.456C239.797 247.488 240.05 247.583 240.241 247.774C240.304 247.837 242.079 249.679 243.632 251.806C246.105 255.141 246.739 257.268 245.629 258.57C245.598 258.602 245.566 258.633 245.534 258.665C245.312 258.887 245.027 258.983 244.742 258.983C244.456 258.983 244.171 258.856 243.949 258.633C242.523 257.109 240.209 255.871 238.212 255.045C239.892 256.792 242.555 259.078 246.39 261.237C246.834 261.491 247.056 261.999 246.897 262.475C246.865 262.634 246.77 262.793 246.675 262.888C246.453 263.142 246.168 263.269 245.819 263.269C242.333 263.174 239.448 261.65 236.659 260.189C235.644 259.649 234.598 259.078 233.489 258.602C234.915 261.047 235.359 263.777 235.359 263.968C235.422 264.285 235.296 264.603 235.105 264.825C235.01 264.952 234.884 265.048 234.725 265.111C234.281 265.302 233.742 265.175 233.457 264.825C233.457 264.825 232.76 264.031 231.08 263.015C232.189 264.254 232.887 265.206 232.95 265.333C233.235 265.746 233.204 266.286 232.887 266.667C232.855 266.699 232.855 266.699 232.823 266.73C232.443 267.111 231.841 267.143 231.428 266.826C228.512 264.73 224.772 264.254 222.585 264.19C224.201 267.334 224.962 271.271 224.994 271.462C225.057 271.811 224.962 272.128 224.74 272.382C224.582 272.573 224.36 272.7 224.106 272.732C223.504 272.859 222.965 272.446 222.838 271.874C222.807 271.747 222.173 269.112 218.242 267.969C219.605 270.16 223.441 272.954 226.357 274.573C226.864 274.859 227.054 275.463 226.832 275.971C226.801 276.066 226.737 276.161 226.674 276.225C226.388 276.542 225.913 276.701 225.501 276.542C225.342 276.479 221.475 275.145 211.617 270.89C212.188 273.049 215.072 274.637 215.104 274.637C215.611 274.923 215.833 275.558 215.548 276.098C215.516 276.193 215.453 276.256 215.389 276.32C215.072 276.669 214.533 276.796 214.09 276.574C213.963 276.51 211.142 275.145 207.211 271.144C206.957 273.907 205.816 277.336 204.073 279.368C203.122 280.48 202.044 281.115 200.871 281.273C200.459 281.337 200.047 281.146 199.825 280.797C199.603 280.448 199.572 280.003 199.794 279.654C200.84 277.812 201.093 276.066 200.523 274.383C199.635 271.684 196.973 269.683 195.166 268.604C195.419 270.7 196.117 274.097 197.923 276.383C198.209 276.764 198.24 277.272 197.955 277.654C197.923 277.685 197.892 277.717 197.892 277.749C197.606 278.066 197.163 278.193 196.751 278.098C193.391 277.114 190.411 273.176 188.636 270.287C188.509 273.875 188.826 278.638 190.886 280.892C191.203 281.242 191.267 281.75 191.045 282.162C191.013 282.226 190.95 282.289 190.918 282.353C190.665 282.639 190.284 282.766 189.904 282.702C181.789 281.337 179.063 273.97 178.144 269.398C177.542 270.446 176.781 271.589 175.83 272.668C173.928 274.891 171.868 276.161 169.712 276.479C169.268 276.542 168.825 276.32 168.603 275.907C168.381 275.494 168.444 275.018 168.729 274.669C170.061 273.113 170.314 269.906 170.156 266.762C169.712 268.445 169.078 270.16 168.191 271.684C168.159 271.747 168.127 271.779 168.064 271.843C167.905 272.001 167.715 272.128 167.493 272.192C167.208 272.255 166.891 272.224 166.669 272.065C166.289 271.843 165.972 271.462 165.686 270.985C166.067 272.827 166.637 274.796 167.43 276.891C167.557 277.272 167.493 277.685 167.24 278.003C167.208 278.035 167.208 278.035 167.176 278.066C166.859 278.384 166.415 278.447 166.003 278.289C159.252 275.59 156.24 265.746 155.163 260.761C154.37 261.999 153.324 263.523 152.12 264.92C149.837 267.556 147.714 268.953 145.717 269.048C145.209 269.08 144.766 268.763 144.639 268.286C144.512 267.905 144.607 267.524 144.861 267.238C144.924 267.143 145.019 267.08 145.114 267.016C145.59 266.73 146.065 266.318 146.509 265.81C151.581 259.903 151.359 243.17 151.327 243.011C151.454 242.63 151.549 242.376 151.708 242.185Z" fill="url(#paint4_linear_21_546)"/>
<path d="M160.171 254.188C160.171 254.188 162.136 268.413 169.585 271.398C165.465 260.507 168.127 252.918 168.127 252.918C168.127 252.918 167.937 264.476 170.314 266C172.692 261.936 172.882 255.712 172.882 255.712C172.882 255.712 175.386 266.191 172.343 269.747C177.351 269.048 180.426 261.269 180.426 261.269C180.426 261.269 180.616 273.589 190.348 275.24C186.956 271.557 188.414 262.126 188.414 262.126C188.414 262.126 192.186 270.001 196.497 271.239C193.834 267.842 193.739 262.126 193.739 262.126C193.739 262.126 203.946 266.603 199.73 274.002C203.407 273.557 205.246 265.429 204.263 263.396C208.606 268.382 211.871 269.969 211.871 269.969C211.871 269.969 207.528 267.651 208.321 264.381C218.052 268.636 221.761 269.906 221.761 269.906C221.761 269.906 213.614 265.397 213.678 261.967C219.32 262.793 220.049 266.508 220.049 266.508C220.049 266.508 219.161 261.65 217.196 259.014C217.196 259.014 223.06 258.475 227.213 261.491C227.213 261.491 223.631 256.474 220.017 255.299C226.896 257.173 229.146 259.903 229.146 259.903C229.146 259.903 228.29 254.22 224.74 252.854C230.478 253.902 233.996 258.094 239.258 258.221C232.253 254.283 229.622 249.933 229.622 249.933C229.622 249.933 235.549 251.552 238.244 254.474C239.86 252.823 233.552 246.25 233.552 246.25L157.223 241.328C157.223 241.328 157.54 259.364 151.327 263.238C155.606 263.015 160.171 254.188 160.171 254.188Z" fill="#318063"/>
<path d="M364.846 101.932C364.18 108.092 371.661 115.173 370.996 121.333C370.33 127.493 361.454 132.764 360.789 138.924C360.123 145.084 367.604 152.165 366.938 158.325C366.273 164.485 357.397 169.756 356.731 175.916C356.066 182.077 363.546 189.157 362.881 195.318C362.215 201.478 353.34 206.749 352.674 212.909C352.008 219.069 359.489 226.15 358.823 232.31C358.158 238.47 349.282 243.741 348.617 249.901C348.585 250.06 348.585 250.219 348.585 250.378C348.014 259.84 338.854 266.191 329.883 263.174C328.266 262.634 326.713 262.253 325.16 262.094C316.538 261.301 307.219 268.794 298.565 268.159C289.912 267.524 281.797 258.76 273.143 258.284C264.49 257.808 255.456 265.651 246.802 265.333C238.148 265.016 229.685 256.538 221.031 256.379C212.378 256.22 203.629 264.381 194.944 264.381C186.29 264.381 177.542 256.22 168.856 256.379C160.203 256.538 151.739 265.016 143.086 265.333C134.432 265.651 125.398 257.808 116.744 258.284C108.091 258.76 99.976 267.524 91.3224 268.159C82.6688 268.794 73.3496 261.301 64.7277 262.094C63.2062 262.221 61.6212 262.634 60.0046 263.174C51.0341 266.191 41.8733 259.84 41.3027 250.378C41.3027 250.219 41.271 250.06 41.271 249.901C40.6054 243.741 31.7299 238.47 31.0642 232.31C30.3985 226.15 37.8793 219.069 37.2136 212.909C36.548 206.749 27.6725 201.478 27.0068 195.318C26.3412 189.157 33.8219 182.077 33.1563 175.916C32.4906 169.756 23.6151 164.485 22.9495 158.325C22.2838 152.165 29.7646 145.084 29.0989 138.924C28.4332 132.764 19.5578 127.493 18.8921 121.333C18.2264 115.173 25.7072 108.092 25.0415 101.932C24.3759 95.7714 15.5004 90.5004 14.8347 84.3403C14.1691 78.1802 21.6498 71.0992 20.9842 64.9391C20.9525 64.6216 20.8891 64.3041 20.8257 63.9865C18.8921 54.4606 27.2287 46.1095 36.7699 47.4749C36.8016 47.4749 36.865 47.4749 36.8967 47.5066C36.9601 47.5066 37.0235 47.5066 37.0869 47.5384C39.908 47.9829 42.634 48.237 45.1382 47.9829C46.2159 47.8877 47.2937 47.6972 48.3714 47.4114C48.4348 47.4114 48.4665 47.3796 48.5299 47.3796C50.7488 46.8081 52.9042 45.919 55.0914 44.9029C61.4944 41.9181 67.8341 37.7902 74.459 37.2821C75.4734 37.2186 76.4877 37.2186 77.5337 37.3139C77.5971 37.3139 77.6605 37.3139 77.7239 37.3139C86.7262 38.076 96.0772 44.0773 105.016 43.5693C106.062 43.5057 107.108 43.3787 108.154 43.1565C108.249 43.1565 108.313 43.1247 108.408 43.093C111.387 42.4261 114.367 41.2195 117.347 39.8541C123.116 37.2504 128.853 34.1703 134.717 33.948C135.161 33.9163 135.605 33.9163 136.017 33.948C136.112 33.948 136.207 33.948 136.302 33.948C145.812 34.3926 155.48 41.5053 164.989 41.3465C167.557 41.3148 170.124 40.7115 172.66 39.8859C179.57 37.6314 186.48 33.4717 193.422 32.9002C193.644 32.8684 193.866 32.8684 194.088 32.8684C194.278 32.8684 194.5 32.8367 194.69 32.8367C194.785 32.8367 194.88 32.8367 194.976 32.8367C195.261 32.8367 195.578 32.8367 195.863 32.8684C196.085 32.8684 196.307 32.9002 196.529 32.9002C203.471 33.4717 210.349 37.6314 217.291 39.8859C218.21 40.2034 219.13 40.4574 220.049 40.6797C221.697 41.0608 223.314 41.3148 224.962 41.3465C234.313 41.5053 243.854 34.6149 253.205 33.9798C253.364 33.9798 253.49 33.948 253.649 33.948C254.188 33.9163 254.727 33.9163 255.265 33.948C262.334 34.2021 269.244 38.6158 276.186 41.3783C277.993 42.1086 279.832 42.7119 281.638 43.093C281.702 43.093 281.733 43.1247 281.797 43.1247C282.843 43.347 283.889 43.5057 284.935 43.5375C293.684 44.0138 302.813 38.2982 311.657 37.3456C311.847 37.3139 312.037 37.3139 312.227 37.2821C313.305 37.1869 314.414 37.1551 315.492 37.2504C322.973 37.7902 330.073 42.9977 337.364 45.9825C338.632 46.5223 339.931 46.9668 341.231 47.3161C341.358 47.3479 341.453 47.3796 341.548 47.4114C342.626 47.6972 343.703 47.8877 344.781 47.9829C347.158 48.2052 349.726 48.0147 352.357 47.6019C352.516 47.5701 352.674 47.5384 352.864 47.5384C352.928 47.5384 352.991 47.5066 353.054 47.5066C362.659 46.046 371.091 54.4606 369.125 64.0183C369.062 64.3358 368.999 64.6533 368.967 64.9709C368.301 71.131 375.782 78.2119 375.116 84.3721C374.387 90.5004 365.543 95.7714 364.846 101.932Z" fill="url(#paint5_linear_21_546)"/>
<path d="M357.746 99.0418C357.175 104.281 362.722 110.187 363.578 115.553C363.673 116.252 363.705 116.951 363.642 117.617C363.261 121.078 360.155 124.254 357.556 127.493C355.717 129.747 354.132 132.033 353.847 134.478C353.181 140.384 360.377 147.148 359.711 153.054C359.616 153.752 359.457 154.451 359.172 155.15C357.999 158.071 355.273 160.833 353.086 163.628C351.501 165.66 350.17 167.724 349.948 169.915C349.314 175.821 356.478 182.584 355.844 188.49C355.178 194.397 346.715 199.445 346.049 205.351C345.383 211.257 352.579 218.021 351.945 223.927C351.279 229.833 342.816 234.882 342.15 240.788C342.119 240.947 342.118 241.074 342.118 241.232C341.58 250.314 332.799 256.41 324.209 253.521C322.656 253.013 321.166 252.632 319.708 252.505C311.435 251.743 302.527 258.919 294.223 258.316C285.949 257.712 278.152 249.298 269.878 248.853C261.573 248.409 252.92 255.902 244.615 255.585C236.31 255.267 228.227 247.17 219.922 247.011C211.617 246.853 203.249 254.664 194.944 254.664C186.639 254.664 178.271 246.853 169.966 247.011C161.661 247.17 153.578 255.267 145.273 255.585C136.968 255.902 128.314 248.377 120.009 248.853C111.704 249.298 103.938 257.712 95.6651 258.316C87.3919 258.919 78.453 251.743 70.1798 252.505C68.7217 252.632 67.2002 253.013 65.6787 253.521C57.2469 256.347 48.6567 250.568 47.8009 241.772V241.74C47.7692 241.582 47.7692 241.391 47.7692 241.232C47.7692 241.074 47.7375 240.915 47.7375 240.788C47.7375 240.661 47.7058 240.534 47.6741 240.407C46.7231 234.659 38.5767 229.706 37.9427 223.959C37.911 223.8 37.911 223.641 37.911 223.482C37.8476 221.704 38.4182 219.863 39.2741 217.957C39.6544 217.068 40.0982 216.179 40.5737 215.29C42.3171 211.924 44.1873 208.527 43.8386 205.351C43.8069 205.224 43.8069 205.066 43.7752 204.939C42.7926 199.223 34.6778 194.27 34.0439 188.522C34.0122 188.363 34.0122 188.205 34.0122 188.046C33.9171 185.41 35.2801 182.584 36.7382 179.758C38.4499 176.424 40.2884 173.058 39.9397 169.947C39.9397 169.82 39.908 169.693 39.8763 169.566C38.9254 163.818 30.7789 158.865 30.145 153.086C30.1133 152.927 30.1133 152.768 30.1133 152.609C29.8914 147.561 35.0265 141.909 35.9458 136.733C36.0725 135.971 36.1042 135.24 36.0408 134.51C36.0408 134.383 36.0091 134.288 36.0091 134.161C35.0899 128.413 26.9118 123.428 26.2778 117.649C26.2461 117.459 26.2461 117.3 26.2461 117.109C25.9608 111.299 32.6808 104.789 32.0469 99.0418C32.0469 98.9148 32.0152 98.756 31.9835 98.629C31.0008 92.9135 22.8861 87.96 22.2521 82.1809C22.2204 81.8951 22.2204 81.6093 22.2204 81.2918V81.2283C22.3472 75.5445 28.7503 69.1621 28.148 63.5735C28.1163 63.383 28.1163 63.2243 28.0529 63.0337C28.0212 62.9385 28.0212 62.8115 27.9895 62.7162C27.9895 62.6845 27.9895 62.621 27.9578 62.5892C27.9261 62.3987 27.8944 62.2082 27.8627 62.0176C26.8484 55.4447 30.9691 49.5387 36.8016 47.4747C38.8937 46.7444 41.2076 46.4904 43.585 46.8714C45.2016 47.1254 46.7548 47.3159 48.308 47.3794C49.3541 47.4112 50.3367 47.4112 51.3194 47.3159C53.0628 47.1572 54.8062 46.7444 56.5179 46.1411C63.5866 43.7278 70.4334 38.5203 77.6289 37.2819C78.2311 37.1867 78.8017 37.1232 79.404 37.0597C80.2598 36.9962 81.084 36.9962 81.9398 37.0597C82.0349 37.0597 82.0983 37.0597 82.1934 37.0914C89.6108 37.6312 97.2817 41.9179 104.699 42.934C104.763 42.934 104.826 42.934 104.858 42.9658C105.904 43.0928 106.981 43.1563 108.027 43.1563C108.249 43.1563 108.44 43.1563 108.661 43.1245C111.609 42.9658 114.494 42.0767 117.378 40.9018C123.623 38.3615 129.836 34.5512 136.175 33.9796C136.461 33.9479 136.778 33.9479 137.063 33.9161C137.285 33.9161 137.507 33.9161 137.697 33.9161H137.76C146.604 33.9479 155.606 40.362 164.45 40.9971C164.482 40.9971 164.514 40.9971 164.545 40.9971C165.052 41.0288 165.591 41.0606 166.099 41.0288C168.254 40.9971 170.378 40.5525 172.533 39.9175C179.443 37.8535 186.354 33.5351 193.296 32.9318C193.517 32.9 193.739 32.9 193.961 32.9C194.151 32.9 194.373 32.8683 194.563 32.8683C194.659 32.8683 194.754 32.8683 194.849 32.8683C195.134 32.8683 195.451 32.8683 195.736 32.9C195.958 32.9 196.18 32.9318 196.402 32.9318C203.344 33.5351 210.222 37.8217 217.164 39.9175C219.098 40.489 221 40.9018 222.933 40.9971H222.965C223.187 40.9971 223.377 41.0288 223.599 41.0288C232.855 41.1876 242.301 34.1384 251.557 33.9161C251.588 33.9161 251.62 33.9161 251.62 33.9161C251.969 33.9161 252.286 33.9161 252.635 33.9161C252.92 33.9161 253.237 33.9479 253.522 33.9796C261.098 34.6464 268.452 39.981 275.933 42.2037C277.581 42.68 279.229 43.0293 280.878 43.1245C280.941 43.1245 280.973 43.1245 281.036 43.1245C281.258 43.1245 281.448 43.1563 281.67 43.1563C290.546 43.3468 299.833 37.1549 308.74 37.0597C309.279 37.0597 309.786 37.0597 310.325 37.0914C310.928 37.1232 311.498 37.2184 312.1 37.3137C320.247 38.7108 327.949 45.2202 336.064 46.9666C336.825 47.1254 337.617 47.2524 338.378 47.3159C338.505 47.3159 338.632 47.3477 338.759 47.3477C339.614 47.4112 340.502 47.4112 341.389 47.3794C342.911 47.3159 344.496 47.1254 346.113 46.8714C346.873 46.7444 347.666 46.6809 348.395 46.6809C349.948 46.6809 351.469 46.9666 352.864 47.4429C357.619 49.1259 361.201 53.3173 361.835 58.366C361.993 59.7314 361.962 61.1921 361.676 62.6527C361.613 62.9702 361.581 63.256 361.549 63.5418C361.454 64.4626 361.549 65.4152 361.771 66.3678C362.976 71.5436 367.984 77.1321 367.445 82.1174C366.875 88.1187 358.411 93.1357 357.746 99.0418Z" fill="url(#paint6_linear_21_546)"/>
<path d="M356.636 98.8195C356.066 103.9 361.328 109.616 362.374 114.887C362.437 115.141 362.469 115.395 362.5 115.649C362.5 115.744 362.532 115.807 362.532 115.903C362.532 116.03 362.564 116.125 362.564 116.252C362.564 116.379 362.564 116.474 362.564 116.57C362.564 116.824 362.564 117.109 362.532 117.363C362.532 117.49 362.5 117.586 362.5 117.681C362.5 117.776 362.469 117.84 362.469 117.935C362.469 117.998 362.437 118.094 362.405 118.157C362.405 118.221 362.374 118.284 362.342 118.348C362.31 118.411 362.31 118.506 362.279 118.57C362.152 118.983 361.993 119.396 361.803 119.808C361.771 119.872 361.74 119.935 361.708 119.999C361.518 120.38 361.328 120.761 361.074 121.174C361.011 121.269 360.947 121.396 360.884 121.491C360.63 121.872 360.377 122.253 360.091 122.634C359.996 122.761 359.901 122.888 359.806 123.047C358.728 124.508 357.46 125.937 356.288 127.366C355.971 127.778 355.654 128.191 355.337 128.604C355.242 128.731 355.178 128.826 355.083 128.922C354.608 129.557 354.195 130.223 353.847 130.89C353.783 130.985 353.752 131.049 353.72 131.144C353.657 131.239 353.625 131.335 353.593 131.398C353.466 131.652 353.34 131.938 353.245 132.192C353.213 132.287 353.181 132.383 353.149 132.478C353.118 132.573 353.086 132.637 353.054 132.732C353.023 132.827 352.991 132.922 352.959 133.018C352.928 133.113 352.896 133.208 352.896 133.303C352.864 133.399 352.864 133.462 352.832 133.557C352.801 133.748 352.769 133.939 352.737 134.129C352.103 140.003 359.235 146.767 358.602 152.641C358.57 152.927 358.538 153.181 358.475 153.467C358.475 153.53 358.443 153.594 358.411 153.657C358.38 153.721 358.38 153.784 358.348 153.848C358.221 154.261 358.063 154.705 357.872 155.118C357.809 155.213 357.777 155.34 357.714 155.435C357.682 155.531 357.619 155.594 357.587 155.689C357.429 155.975 357.27 156.261 357.112 156.515C357.048 156.642 356.953 156.769 356.858 156.896C356.161 157.976 355.337 159.024 354.449 160.071C354.322 160.198 354.227 160.357 354.1 160.484C353.878 160.738 353.657 161.024 353.435 161.278C353.308 161.405 353.213 161.564 353.086 161.691C353.054 161.723 353.054 161.723 353.023 161.754C352.896 161.913 352.769 162.072 352.642 162.231L352.611 162.262C352.484 162.421 352.325 162.612 352.199 162.77C352.072 162.929 351.913 163.12 351.786 163.278C351.786 163.278 351.786 163.31 351.755 163.31C351.628 163.501 351.469 163.691 351.343 163.85C350.899 164.422 350.518 165.025 350.17 165.596C350.043 165.787 349.948 166.009 349.821 166.2C349.726 166.358 349.663 166.549 349.568 166.708C349.536 166.771 349.504 166.835 349.472 166.93C349.377 167.121 349.314 167.279 349.251 167.47C349.219 167.565 349.187 167.629 349.155 167.724V167.756C349.124 167.851 349.092 167.914 349.06 168.01C348.997 168.2 348.965 168.359 348.902 168.549C348.87 168.613 348.87 168.708 348.838 168.772C348.807 168.867 348.807 168.93 348.807 169.026C348.775 169.153 348.775 169.248 348.743 169.375C348.141 174.932 354.512 181.282 354.639 186.935C354.639 187.252 354.639 187.57 354.608 187.887C354.322 190.459 352.547 192.904 350.55 195.286C348.014 198.334 345.225 201.382 344.845 204.685C344.211 210.559 351.343 217.322 350.709 223.197C350.075 229.071 341.611 234.12 340.946 239.994C340.946 240.153 340.914 240.28 340.914 240.439C340.375 249.488 331.626 255.553 323.068 252.664C321.546 252.155 320.025 251.774 318.567 251.647C310.325 250.885 301.418 258.062 293.176 257.458C284.903 256.855 277.169 248.472 268.896 247.996C260.622 247.551 252 255.013 243.727 254.727C235.454 254.41 227.403 246.345 219.129 246.186C210.856 246.027 202.488 253.838 194.215 253.838C185.941 253.838 177.573 246.059 169.3 246.186C161.027 246.345 152.975 254.442 144.702 254.727C136.429 255.045 127.807 247.551 119.534 247.996C111.261 248.44 103.495 256.823 95.253 257.458C87.0114 258.062 78.1043 250.917 69.8627 251.647C68.4046 251.774 66.9148 252.155 65.3616 252.664C63.7767 253.203 62.1601 253.426 60.6069 253.394C60.5118 253.394 60.4484 253.394 60.3533 253.394C60.0046 253.362 59.6876 253.362 59.3706 253.299C59.1804 253.267 58.9585 253.235 58.7684 253.203C58.6733 253.172 58.5465 253.172 58.4514 253.14C58.388 253.14 58.3246 253.108 58.2612 253.108C58.1661 253.076 58.071 253.076 58.0076 253.045C57.8491 253.013 57.6906 252.981 57.5321 252.918C57.437 252.886 57.3736 252.886 57.2785 252.854C57.1518 252.822 56.9933 252.759 56.8348 252.727C56.7397 252.695 56.6446 252.664 56.5495 252.632C56.4544 252.6 56.3593 252.568 56.2642 252.537C56.074 252.473 55.8838 252.41 55.7253 252.314C55.0914 252.028 54.4574 251.711 53.8868 251.33C53.8234 251.298 53.76 251.235 53.6649 251.203C52.6506 250.536 51.7314 249.742 50.9072 248.821C50.7804 248.694 50.6536 248.536 50.5268 248.377C50.4634 248.313 50.4 248.218 50.3366 248.155C50.2732 248.059 50.2099 247.996 50.1465 247.901C50.0831 247.805 50.0197 247.742 49.9563 247.647C49.8929 247.583 49.8612 247.488 49.7978 247.424C49.6393 247.17 49.4491 246.916 49.2906 246.63C49.2272 246.535 49.1955 246.472 49.1321 246.376C49.0687 246.281 49.037 246.186 49.0053 246.122C48.9419 246.027 48.9102 245.932 48.8785 245.837C48.7834 245.646 48.6883 245.456 48.6249 245.265C48.4981 244.979 48.3714 244.693 48.2763 244.408C48.0861 243.931 47.9593 243.423 47.8325 242.884C47.8008 242.788 47.7691 242.693 47.7691 242.566C47.7374 242.344 47.674 242.153 47.6423 241.931C47.6423 241.836 47.6106 241.74 47.6106 241.645V241.613C47.5789 241.455 47.5472 241.264 47.5472 241.105C47.5472 241.042 47.5472 240.978 47.5155 240.947C47.4838 240.756 47.4838 240.597 47.4838 240.407C47.4838 240.343 47.4838 240.312 47.4838 240.248C47.4838 240.153 47.4521 240.058 47.4521 239.962C47.3887 239.518 47.2936 239.041 47.1668 238.597C47.1034 238.438 47.04 238.248 46.9766 238.089C46.7864 237.549 46.5012 237.009 46.2159 236.469C46.1208 236.311 46.0257 236.152 45.9306 235.993C45.9306 235.993 45.9306 235.961 45.8989 235.961C45.8038 235.803 45.7087 235.644 45.5819 235.485C45.0747 234.723 44.4725 233.961 43.8702 233.167C43.8068 233.072 43.7434 233.008 43.68 232.913C43.6166 232.818 43.5532 232.754 43.4581 232.659C43.363 232.564 43.2996 232.437 43.2045 232.342C42.5072 231.484 41.7781 230.627 41.0808 229.77C41.0174 229.674 40.954 229.611 40.8906 229.515C40.4151 228.912 39.9713 228.309 39.5593 227.706C39.4959 227.61 39.4325 227.547 39.4008 227.452C39.3691 227.388 39.3374 227.356 39.3057 227.293C39.274 227.229 39.2106 227.166 39.1789 227.07C39.1472 227.007 39.1155 226.975 39.0838 226.912C39.0204 226.816 38.9887 226.753 38.9253 226.658C38.6083 226.086 38.323 225.515 38.1011 224.911C38.0694 224.816 38.0377 224.753 38.006 224.657C37.8793 224.308 37.7842 223.927 37.7208 223.578C37.7208 223.514 37.6891 223.419 37.6891 223.355V223.324C37.6891 223.292 37.6891 223.228 37.6574 223.197C37.4672 221.482 37.9426 219.704 38.7034 217.862C39.0521 217.005 39.4959 216.116 39.9396 215.227C41.0491 213.036 42.2536 210.876 42.9827 208.717C43.0144 208.622 43.0461 208.527 43.0778 208.4C43.1729 208.146 43.2362 207.86 43.2996 207.606C43.3313 207.542 43.3313 207.447 43.363 207.384C43.5532 206.494 43.6483 205.637 43.5532 204.78C43.5532 204.716 43.5532 204.685 43.5532 204.653C43.5215 204.462 43.4898 204.272 43.4581 204.113C43.4264 203.922 43.3947 203.764 43.3313 203.573C43.2996 203.478 43.2679 203.383 43.2362 203.287C43.1729 203.065 43.1095 202.843 43.0144 202.652C42.951 202.525 42.8876 202.367 42.8559 202.24C42.6974 201.859 42.5072 201.509 42.2853 201.128C42.2536 201.065 42.1902 200.969 42.1585 200.906C42.0951 200.811 42.0634 200.747 42 200.652C41.9366 200.557 41.9049 200.493 41.8415 200.398C40.6053 198.493 38.9253 196.619 37.4038 194.746C37.277 194.619 37.1819 194.46 37.0868 194.333C36.0408 192.999 35.0898 191.666 34.4875 190.3C34.4558 190.205 34.4242 190.11 34.3608 190.046C34.2023 189.697 34.1072 189.348 34.0121 188.998C33.9804 188.935 33.9804 188.871 33.9804 188.84C33.917 188.617 33.8853 188.427 33.8536 188.205C33.8536 188.141 33.8219 188.078 33.8219 188.014V187.951V187.919C33.5366 185.252 34.8362 182.426 36.2943 179.568C38.0377 176.138 40.003 172.677 39.686 169.47C39.686 169.439 39.686 169.407 39.686 169.407C39.0521 163.532 30.5887 158.484 29.923 152.609C29.923 152.578 29.923 152.578 29.923 152.546C29.4158 147.529 34.5509 141.877 35.6287 136.669C35.8189 135.812 35.8823 134.955 35.7872 134.097C35.5653 132.16 34.5192 130.319 33.1879 128.509C30.4302 124.825 26.4679 121.237 26.0558 117.3C26.0558 117.205 26.0241 117.109 26.0241 117.046C25.6121 111.235 32.554 104.599 31.92 98.7878C31.92 98.7243 31.92 98.6608 31.8883 98.5973C31.0641 92.7864 22.7909 87.833 22.157 81.9904C22.1253 81.7681 22.1253 81.5141 22.1253 81.26V81.1965C22.1253 75.481 28.6551 69.0668 28.0211 63.4465C27.9894 63.2878 27.9894 63.1608 27.9577 63.002C27.926 62.9067 27.926 62.7797 27.8943 62.6845C27.8943 62.6527 27.8943 62.5892 27.8626 62.5574C27.8309 62.3669 27.7992 62.1764 27.7675 61.9859C26.7215 55.413 30.7789 49.5069 36.5796 47.4429C38.6717 46.6809 41.0174 46.4268 43.4264 46.8396C45.1064 47.1254 46.7547 47.3159 48.3397 47.3477C49.2906 47.3794 50.2099 47.3477 51.0974 47.2842C52.8725 47.1254 54.5842 46.6809 56.3276 46.1093C63.3646 43.6961 70.1797 38.5203 77.3118 37.3137C77.9141 37.2184 78.4846 37.1549 79.0869 37.0914C80.0061 37.0279 80.8937 37.0279 81.8129 37.0914C81.908 37.0914 81.9714 37.0914 82.0665 37.1232C89.4839 37.7265 97.1549 42.0449 104.572 42.9658C104.636 42.9658 104.699 42.9658 104.731 42.9975C105.872 43.1245 107.013 43.188 108.154 43.1245C108.186 43.1245 108.218 43.1245 108.249 43.1245C111.261 42.9658 114.272 42.0132 117.252 40.7748C123.401 38.2345 129.519 34.5194 135.763 33.9796C136.049 33.9479 136.302 33.9479 136.587 33.9161C136.936 33.9161 137.285 33.9161 137.602 33.9161H137.665C146.509 34.1384 155.511 40.5843 164.355 40.9971C164.387 40.9971 164.418 40.9971 164.45 40.9971C164.799 41.0288 165.179 41.0288 165.528 40.9971C175.101 40.8065 184.61 32.8683 194.183 32.8683C194.278 32.8683 194.373 32.8683 194.468 32.8683C202.963 32.9953 211.363 39.2506 219.859 40.7113C220.873 40.87 221.856 40.9971 222.87 40.9971H222.902C232.348 41.1558 242.016 33.7256 251.493 33.9161C251.525 33.9161 251.557 33.9161 251.557 33.9161C251.652 33.9161 251.715 33.9161 251.81 33.9161C252.222 33.9161 252.634 33.9479 253.015 34.0114C260.718 34.8052 268.198 40.362 275.838 42.3942C277.264 42.7752 278.69 43.0293 280.149 43.0928C280.37 43.0928 280.592 43.1245 280.846 43.1245C281.068 43.1245 281.258 43.1245 281.48 43.1245C290.419 42.9975 299.77 36.7104 308.709 37.0597C308.93 37.0597 309.121 37.0914 309.343 37.0914C310.072 37.1549 310.769 37.2502 311.498 37.3772C319.771 38.9649 327.632 45.6965 335.906 47.0937C336.381 47.1889 336.857 47.2524 337.332 47.2842C337.807 47.3159 338.283 47.3477 338.758 47.3477C339.519 47.3794 340.28 47.3477 341.072 47.2842C342.372 47.2207 343.703 47.0302 345.035 46.8079C346.176 46.6174 347.317 46.5856 348.395 46.6809C349.726 46.7761 350.994 47.0937 352.199 47.57C356.763 49.3481 360.186 53.5078 360.757 58.493C360.916 59.7949 360.852 61.1921 360.567 62.5892C360.503 62.9067 360.44 63.1925 360.408 63.4783C360.313 64.4309 360.408 65.4152 360.63 66.3996C361.866 71.5118 366.811 77.0686 366.241 81.9904C365.765 87.9282 357.302 92.9452 356.636 98.8195Z" fill="url(#paint7_linear_21_546)"/>
<path opacity="0.2" d="M352.769 134.129C352.135 140.004 359.267 146.767 358.633 152.641C357.999 158.516 349.536 163.565 348.87 169.439C348.268 174.996 354.639 181.346 354.766 186.998C354.766 187.316 354.766 187.633 354.734 187.951C354.449 190.523 352.674 192.968 350.677 195.349C348.141 198.398 345.352 201.446 344.971 204.748C344.337 210.623 351.469 217.386 350.836 223.26C350.202 229.135 341.738 234.184 341.073 240.058C341.073 240.217 341.041 240.344 341.041 240.502C340.502 249.552 331.753 255.617 323.195 252.727C321.673 252.219 320.152 251.838 318.694 251.711C310.452 250.949 301.545 258.125 293.303 257.522C285.03 256.919 277.296 248.536 269.023 248.06C260.749 247.615 252.127 255.077 243.854 254.791C235.581 254.474 227.53 246.408 219.256 246.25C210.983 246.091 202.615 253.902 194.342 253.902C186.068 253.902 177.7 246.123 169.427 246.25C161.154 246.408 153.102 254.506 144.829 254.791C136.556 255.109 127.934 247.615 119.661 248.06C111.387 248.504 103.621 256.887 95.3799 257.522C87.1383 258.125 78.2311 250.981 69.9896 251.711C68.5315 251.838 67.0417 252.219 65.4885 252.727C56.93 255.617 48.1813 249.52 47.6424 240.502C47.6424 240.344 47.6107 240.217 47.6107 240.058C46.9767 234.184 38.5133 229.135 37.8477 223.26C37.6575 221.546 38.1329 219.768 38.8937 217.926C39.2424 217.069 39.6861 216.179 40.1299 215.29C41.9367 211.702 44.0922 208.082 43.7435 204.717C43.1095 198.842 34.6461 193.794 33.9805 187.919C33.6952 185.252 34.9948 182.426 36.4529 179.568C63.7451 189.348 99.8176 214.941 174.657 211.48C258.752 207.574 251.937 157.277 362.374 114.887C362.532 115.713 362.596 116.538 362.5 117.364C361.866 123.238 353.403 128.255 352.769 134.129Z" fill="#96440C"/>
<path d="M363.642 117.618C363.261 121.079 360.155 124.254 357.556 127.493C333.18 125.397 304.398 122.19 287.154 117.586C286.076 117.3 286.33 115.712 287.439 115.776C316.982 117.491 343.291 116.824 363.547 115.522C363.673 116.252 363.705 116.951 363.642 117.618Z" fill="url(#paint8_linear_21_546)"/>
<path d="M354.766 186.998C354.766 187.316 354.766 187.633 354.734 187.951C354.449 190.523 352.674 192.968 350.677 195.349C316.601 195.667 221.126 196.461 198.811 196.016C156.114 195.19 82.5103 211.194 38.8936 217.926C39.2423 217.068 39.6861 216.179 40.1299 215.29C72.3352 208.94 160.837 192.333 213.551 191.094C271.241 189.824 335.652 187.665 354.766 186.998Z" fill="url(#paint9_linear_21_546)"/>
<path d="M114.716 228.404C114.716 228.404 168.254 233.009 214.343 230.468C190.886 237.454 140.486 237.009 114.716 228.404Z" fill="url(#paint10_linear_21_546)"/>
<path d="M108.598 134.923C96.2674 140.797 55.345 138.289 35.7873 136.701C35.9775 135.844 36.0408 134.987 35.9458 134.129C35.7239 132.192 34.6778 130.351 33.3465 128.541C44.8529 131.271 77.8507 138.067 108.598 134.923Z" fill="url(#paint11_linear_21_546)"/>
<path d="M359.172 155.15C357.999 158.071 355.273 160.834 353.086 163.628C319.423 170.201 222.268 176.932 196.814 169.089C169.427 160.675 67.5805 162.262 67.5805 162.262C67.5805 162.262 130.216 155.34 204.612 166.232C275.679 176.615 301.418 155.467 359.172 155.15Z" fill="url(#paint12_linear_21_546)"/>
<path d="M57.4688 87.3251C57.4688 87.3251 101.212 72.0201 182.582 87.3251C234.091 97.0098 251.937 91.9611 251.937 91.9611C251.937 91.9611 199.635 97.6131 171.297 89.7384C142.99 81.8318 57.4688 87.3251 57.4688 87.3251Z" fill="url(#paint13_linear_21_546)"/>
<path d="M361.866 66.4315C347.761 66.5268 254.727 66.8761 211.807 57.1596C255.456 66.4633 331.531 61.1288 361.993 58.4298C362.152 59.7951 362.12 61.2558 361.835 62.7164C361.771 63.034 361.74 63.3197 361.708 63.6055C361.549 64.5581 361.645 65.4789 361.866 66.4315Z" fill="url(#paint14_linear_21_546)"/>
<path d="M118.995 76.5607L89.2938 81.6095L59.6877 86.6582L55.0598 87.4521C51.3828 88.0871 48.625 84.118 50.5269 80.8792L64.2523 57.5089C65.33 55.6672 64.9496 53.2857 63.3013 51.9203L56.5496 46.2047L56.4862 46.1412L55.0598 44.9346C61.4628 41.9498 67.8024 37.8219 74.4274 37.3138C75.4417 37.2503 76.4561 37.2503 77.5021 37.3456C78.1044 37.2503 78.6749 37.1868 79.2772 37.1233C80.1964 37.0598 81.084 37.0598 82.0032 37.1233C82.0983 37.1233 82.1617 37.1233 82.2568 37.1551C89.6742 37.6949 97.3452 41.9816 104.763 42.9977C104.826 42.9977 104.889 42.9977 104.921 43.0294C106.062 43.1564 107.203 43.2199 108.344 43.1564C111.324 42.4896 114.304 41.283 117.283 39.9176L117.442 40.8067L117.474 40.9337L122.672 71.4802C123.021 73.8617 121.404 76.1479 118.995 76.5607Z" fill="url(#paint15_linear_21_546)"/>
<path d="M338.6 87.4522L274.633 76.5609C272.224 76.1481 270.639 73.8618 271.051 71.4804L272.288 64.2724L272.605 62.3989L275.996 42.4262L276.028 42.2357L276.155 41.4419C277.961 42.1722 279.8 42.7755 281.607 43.1565C290.546 43.0295 299.897 36.7424 308.836 37.0917C309.374 37.0917 309.882 37.0917 310.42 37.1234C311.023 37.1552 311.593 37.2505 312.196 37.3457C313.273 37.2505 314.383 37.2187 315.46 37.314C322.941 37.8538 330.042 43.0613 337.332 46.0461L336.159 47.0304L336.001 47.1574L330.359 51.9522C328.71 53.3493 328.33 55.699 329.408 57.5407L331.278 60.7478L334.606 66.3998L343.133 80.911C345.035 84.1181 342.309 88.0872 338.6 87.4522Z" fill="url(#paint16_linear_21_546)"/>
<path d="M123.116 71.6073L62.5406 81.9271C59.0538 82.5304 56.4545 78.7517 58.2613 75.7034L71.2576 53.5715C72.2719 51.8251 71.8915 49.5706 70.37 48.2687L50.8122 31.6936C48.1179 29.4073 49.3224 24.9937 52.8092 24.3903L113.384 14.0706C115.667 13.6895 117.79 15.2137 118.203 17.4682L126.571 66.7808C126.92 69.067 125.398 71.1945 123.116 71.6073Z" fill="url(#paint17_linear_21_546)"/>
<path d="M122.387 67.2254L70.9406 75.9892C67.4538 76.5925 64.8229 72.5916 66.598 69.3846L77.0584 50.4597C78.0727 48.618 77.6606 46.2683 76.1074 44.8711L59.9731 30.487C57.247 28.042 58.4198 23.406 61.9066 22.8027L113.353 14.0388C115.635 13.6578 117.791 15.2772 118.203 17.6904L125.747 62.1766C126.159 64.5898 124.637 66.8443 122.387 67.2254Z" fill="#E3FFBB"/>
<path d="M125.43 63.2562C124.986 64.6851 123.845 65.7965 122.355 66.0505L72.9693 74.4651C69.6093 75.0366 67.0734 71.131 68.7851 67.9874L78.77 49.5389C79.7527 47.7607 79.3406 45.4427 77.8508 44.0773L62.3504 29.9472C59.7194 27.5657 60.8289 23.025 64.1889 22.4534L75.5685 20.5165L113.511 14.0071C115.698 13.626 117.791 15.2455 118.171 17.5952L125.557 61.1288C125.683 61.8591 125.62 62.5894 125.43 63.2562Z" fill="#95D543"/>
<g opacity="0.25">
<path d="M125.43 63.2562C113.765 64.3358 102.132 65.8917 90.5618 67.9239C87.3286 68.4955 84.2222 66.3363 83.6199 63.1292C80.9255 48.9356 78.1995 34.7101 75.5051 20.5165L113.511 14.0071C115.698 13.626 117.791 15.2455 118.171 17.5952L125.557 61.1288C125.683 61.8591 125.62 62.5894 125.43 63.2562Z" fill="#318063"/>
</g>
<path d="M270.512 71.6074L331.088 81.9272C334.574 82.5305 337.174 78.7519 335.367 75.7036L322.371 53.5716C321.356 51.8252 321.737 49.5707 323.258 48.2689L342.816 31.6937C345.51 29.4075 344.306 24.9938 340.819 24.3905L280.307 14.039C278.025 13.6579 275.869 15.1821 275.489 17.4683L267.121 66.781C266.74 69.0672 268.262 71.1946 270.512 71.6074Z" fill="url(#paint18_linear_21_546)"/>
<path d="M271.273 67.2254L322.719 75.9892C326.206 76.5925 328.837 72.5916 327.062 69.3846L316.601 50.4597C315.587 48.618 315.999 46.2683 317.552 44.8711L333.655 30.487C336.381 28.042 335.208 23.406 331.722 22.8027L280.307 14.0388C278.025 13.6578 275.869 15.2772 275.457 17.6904L267.913 62.1766C267.501 64.5898 268.991 66.8443 271.273 67.2254Z" fill="#E3FFBB"/>
<path d="M268.23 63.2562C268.674 64.6851 269.815 65.7965 271.305 66.0505L320.691 74.4651C324.051 75.0366 326.587 71.131 324.875 67.9874L314.922 49.5389C313.939 47.7607 314.351 45.4427 315.841 44.0773L331.341 29.9472C333.972 27.5657 332.863 23.025 329.503 22.4534L318.123 20.5165L280.117 14.0071C277.93 13.626 275.838 15.2455 275.457 17.5952L268.072 61.1288C267.945 61.8591 268.008 62.5894 268.23 63.2562Z" fill="#95D543"/>
<g opacity="0.25">
<path d="M268.23 63.2562C279.895 64.3358 291.528 65.8917 303.098 67.9239C306.331 68.4955 309.438 66.3363 310.04 63.1292C312.734 48.9356 315.46 34.7101 318.155 20.5165L280.117 14.0071C277.93 13.626 275.838 15.2455 275.457 17.5952L268.072 61.1288C267.945 61.8591 268.008 62.5894 268.23 63.2562Z" fill="#318063"/>
</g>
<path d="M297.329 57.6677C230.795 46.4906 162.865 46.4906 96.3308 57.6677C92.7806 58.271 89.2938 55.1592 88.5648 50.682C86.8531 40.1717 85.1097 29.5662 83.3346 18.8653C82.5738 14.2294 85.0463 9.8792 88.8818 9.24414C160.298 -3.07608 233.33 -3.07608 304.81 9.21239C308.645 9.8792 311.118 14.2294 310.357 18.8336C308.582 29.5344 306.838 40.14 305.127 50.6502C304.366 55.1592 300.879 58.271 297.329 57.6677Z" fill="url(#paint19_linear_21_546)"/>
<path d="M308.233 17.9444C307.885 19.9766 307.536 21.9771 307.219 24.0093C305.824 32.1381 304.461 40.2352 303.098 48.2369C302.369 52.4919 298.946 55.4449 295.459 54.8734C230.161 44.236 163.468 44.236 98.2011 54.8734C94.7143 55.4449 91.2909 52.4919 90.5618 48.2369C89.6109 42.5849 88.6282 36.9011 87.6773 31.1538C86.9482 26.7718 86.1874 22.3581 85.4267 17.9444C84.6659 13.5308 87.1067 9.40285 90.8471 8.76778C160.963 -2.91737 232.633 -2.91737 302.781 8.76778C306.553 9.40285 308.962 13.5308 308.233 17.9444Z" fill="#E3FFBB"/>
<path d="M295.459 52.5555C230.161 42.3628 163.468 42.3628 98.2011 52.5555C94.7143 53.0953 91.2909 50.2693 90.5618 46.2049C88.8818 36.6472 87.1701 26.9625 85.4267 17.2143C84.6659 12.9911 87.1067 9.02195 90.8471 8.41864C160.963 -2.79023 232.633 -2.79023 302.781 8.41864C306.553 9.02195 308.962 12.9911 308.202 17.2143C306.458 26.9625 304.778 36.6472 303.066 46.2049C302.369 50.2693 298.946 53.0953 295.459 52.5555Z" fill="#74B661"/>
<g opacity="0.25">
<path d="M307.187 24.0093C305.792 32.1381 304.429 40.2352 303.066 48.237C302.337 52.4919 298.914 55.4449 295.427 54.8734C230.129 44.2361 163.436 44.2361 98.1694 54.8734C94.6826 55.4449 91.2592 52.4919 90.5301 48.237C89.5792 42.5849 88.5965 36.9011 87.6456 31.1538C119.407 13.5625 171.994 33.4082 233.33 37.2186C277.645 39.9494 297.9 32.1699 307.187 24.0093Z" fill="#318063"/>
</g>
<defs>
<linearGradient id="paint0_linear_21_546" x1="-6.70609" y1="273.776" x2="100.434" y2="204.735" gradientUnits="userSpaceOnUse">
<stop offset="2.7e-07" stop-color="#95D543"/>
<stop offset="0.2613" stop-color="#72B74E"/>
<stop offset="0.5762" stop-color="#4F9959"/>
<stop offset="0.8338" stop-color="#398760"/>
<stop offset="1" stop-color="#318063"/>
</linearGradient>
<linearGradient id="paint1_linear_21_546" x1="-19.8238" y1="98.0887" x2="68.5522" y2="89.0481" gradientUnits="userSpaceOnUse">
<stop offset="2.7e-07" stop-color="#95D543"/>
<stop offset="0.2613" stop-color="#72B74E"/>
<stop offset="0.5762" stop-color="#4F9959"/>
<stop offset="0.8338" stop-color="#398760"/>
<stop offset="1" stop-color="#318063"/>
</linearGradient>
<linearGradient id="paint2_linear_21_546" x1="395.653" y1="273.776" x2="288.513" y2="204.735" gradientUnits="userSpaceOnUse">
<stop offset="2.7e-07" stop-color="#95D543"/>
<stop offset="0.2613" stop-color="#72B74E"/>
<stop offset="0.5762" stop-color="#4F9959"/>
<stop offset="0.8338" stop-color="#398760"/>
<stop offset="1" stop-color="#318063"/>
</linearGradient>
<linearGradient id="paint3_linear_21_546" x1="408.77" y1="98.0885" x2="320.394" y2="89.0479" gradientUnits="userSpaceOnUse">
<stop offset="2.7e-07" stop-color="#95D543"/>
<stop offset="0.2613" stop-color="#72B74E"/>
<stop offset="0.5762" stop-color="#4F9959"/>
<stop offset="0.8338" stop-color="#398760"/>
<stop offset="1" stop-color="#318063"/>
</linearGradient>
<linearGradient id="paint4_linear_21_546" x1="195.423" y1="294.641" x2="196.363" y2="232.001" gradientUnits="userSpaceOnUse">
<stop offset="2.7e-07" stop-color="#95D543"/>
<stop offset="0.2613" stop-color="#72B74E"/>
<stop offset="0.5762" stop-color="#4F9959"/>
<stop offset="0.8338" stop-color="#398760"/>
<stop offset="1" stop-color="#318063"/>
</linearGradient>
<linearGradient id="paint5_linear_21_546" x1="118.422" y1="-61.6433" x2="213.838" y2="179.595" gradientUnits="userSpaceOnUse">
<stop stop-color="#F8A45B"/>
<stop offset="0.2171" stop-color="#C97F40"/>
<stop offset="0.4733" stop-color="#985825"/>
<stop offset="0.6987" stop-color="#743C11"/>
<stop offset="0.8819" stop-color="#5E2B04"/>
<stop offset="1" stop-color="#562500"/>
</linearGradient>
<linearGradient id="paint6_linear_21_546" x1="259.566" y1="302.776" x2="161.109" y2="36.6372" gradientUnits="userSpaceOnUse">
<stop stop-color="#F8A45B"/>
<stop offset="0.3936" stop-color="#CC7937"/>
<stop offset="0.7917" stop-color="#A55318"/>
<stop offset="1" stop-color="#96440C"/>
</linearGradient>
<linearGradient id="paint7_linear_21_546" x1="162.705" y1="34.7784" x2="263.085" y2="323.91" gradientUnits="userSpaceOnUse">
<stop stop-color="#F8A45B"/>
<stop offset="0.3936" stop-color="#CC7937"/>
<stop offset="0.7917" stop-color="#A55318"/>
<stop offset="1" stop-color="#96440C"/>
</linearGradient>
<linearGradient id="paint8_linear_21_546" x1="325.443" y1="108.892" x2="324.244" y2="135.23" gradientUnits="userSpaceOnUse">
<stop offset="0.3844" stop-color="#96440C"/>
<stop offset="0.3989" stop-color="#9A4810"/>
<stop offset="0.5039" stop-color="#B76427"/>
</linearGradient>
<linearGradient id="paint9_linear_21_546" x1="196.499" y1="189.256" x2="196.819" y2="202.345" gradientUnits="userSpaceOnUse">
<stop offset="0.3844" stop-color="#96440C"/>
<stop offset="0.3989" stop-color="#9A4810"/>
<stop offset="0.5039" stop-color="#B76427"/>
</linearGradient>
<linearGradient id="paint10_linear_21_546" x1="164.53" y1="229.461" x2="163.891" y2="238.4" gradientUnits="userSpaceOnUse">
<stop offset="0.3844" stop-color="#96440C"/>
<stop offset="0.3989" stop-color="#9A4810"/>
<stop offset="0.5039" stop-color="#B76427"/>
</linearGradient>
<linearGradient id="paint11_linear_21_546" x1="70.7669" y1="133.395" x2="69.8075" y2="142.174" gradientUnits="userSpaceOnUse">
<stop offset="0.3844" stop-color="#96440C"/>
<stop offset="0.3989" stop-color="#9A4810"/>
<stop offset="0.5039" stop-color="#B76427"/>
</linearGradient>
<linearGradient id="paint12_linear_21_546" x1="213.466" y1="156.643" x2="212.507" y2="180.826" gradientUnits="userSpaceOnUse">
<stop offset="0.3844" stop-color="#96440C"/>
<stop offset="0.3989" stop-color="#9A4810"/>
<stop offset="0.5039" stop-color="#B76427"/>
</linearGradient>
<linearGradient id="paint13_linear_21_546" x1="156.062" y1="78.6548" x2="153.823" y2="96.8511" gradientUnits="userSpaceOnUse">
<stop offset="0.3844" stop-color="#96440C"/>
<stop offset="0.3989" stop-color="#9A4810"/>
<stop offset="0.5039" stop-color="#B76427"/>
</linearGradient>
<linearGradient id="paint14_linear_21_546" x1="286.932" y1="60.2778" x2="286.932" y2="67.2214" gradientUnits="userSpaceOnUse">
<stop offset="0.3844" stop-color="#96440C"/>
<stop offset="0.3989" stop-color="#9A4810"/>
<stop offset="0.5039" stop-color="#B76427"/>
</linearGradient>
<linearGradient id="paint15_linear_21_546" x1="86.274" y1="23.533" x2="86.274" y2="162.702" gradientUnits="userSpaceOnUse">
<stop offset="0.3844" stop-color="#96440C"/>
<stop offset="0.3989" stop-color="#9A4810"/>
<stop offset="0.5039" stop-color="#B76427"/>
</linearGradient>
<linearGradient id="paint16_linear_21_546" x1="307.371" y1="23.5332" x2="307.371" y2="162.702" gradientUnits="userSpaceOnUse">
<stop offset="0.3844" stop-color="#96440C"/>
<stop offset="0.3989" stop-color="#9A4810"/>
<stop offset="0.5039" stop-color="#B76427"/>
</linearGradient>
<linearGradient id="paint17_linear_21_546" x1="72.0496" y1="26.3368" x2="87.8937" y2="47.8475" gradientUnits="userSpaceOnUse">
<stop stop-color="#318063"/>
<stop offset="0.354" stop-color="#23674D"/>
<stop offset="0.7462" stop-color="#16513A"/>
<stop offset="1" stop-color="#124933"/>
</linearGradient>
<linearGradient id="paint18_linear_21_546" x1="321.596" y1="26.337" x2="305.751" y2="47.8477" gradientUnits="userSpaceOnUse">
<stop stop-color="#318063"/>
<stop offset="0.354" stop-color="#23674D"/>
<stop offset="0.7462" stop-color="#16513A"/>
<stop offset="1" stop-color="#124933"/>
</linearGradient>
<linearGradient id="paint19_linear_21_546" x1="196.823" y1="-28.7725" x2="196.823" y2="55.5437" gradientUnits="userSpaceOnUse">
<stop stop-color="#318063"/>
<stop offset="0.354" stop-color="#23674D"/>
<stop offset="0.7462" stop-color="#16513A"/>
<stop offset="1" stop-color="#124933"/>
</linearGradient>
</defs>
</svg>
