<svg width="155" height="99" viewBox="0 0 155 99" fill="none" xmlns="http://www.w3.org/2000/svg">
<path d="M14.0077 51.6581C14.0348 51.6852 14.0619 51.6852 14.0891 51.7123C14.3332 51.8208 14.6316 51.848 14.8758 51.7395L88.8511 22.1982C89.0952 22.1168 89.258 21.9269 89.3665 21.7099C89.4207 21.6285 90.4244 19.5397 91.184 17.261C92.4047 13.6803 92.3505 11.6186 90.9941 10.832C90.967 10.8048 90.9127 10.8048 90.8856 10.7777C90.6415 10.6421 90.3702 10.6421 90.0989 10.7234C89.8276 10.8048 89.6378 10.9947 89.5293 11.2389C88.7426 12.975 87.0607 14.684 85.5687 15.959C86.5453 13.9787 88.2 11.2389 90.9399 8.25489C91.2383 7.92936 91.2925 7.41395 91.0484 7.03417C90.967 6.89854 90.8585 6.81716 90.7228 6.73578C90.4787 6.57301 90.1532 6.54589 89.8819 6.65439C86.8708 7.71235 84.8092 9.85538 82.8018 11.9442C82.0693 12.7037 81.3098 13.4904 80.496 14.2228C81.0385 11.6729 80.6316 9.20433 80.6045 9.04157C80.5502 8.74317 80.3875 8.49903 80.1433 8.3634C80.0348 8.28201 79.872 8.22776 79.7364 8.22776C79.3024 8.17351 78.8683 8.44478 78.7056 8.85168C78.7056 8.85168 78.3258 9.74687 77.1593 11.1032C77.7561 9.71974 78.1088 8.68892 78.1359 8.58041C78.2715 8.14638 78.0817 7.65809 77.7019 7.44108C77.6748 7.44108 77.6476 7.41395 77.6476 7.41395C77.2136 7.19693 76.6711 7.33257 76.3998 7.71235C74.4738 10.3708 71.3542 11.8357 69.4824 12.5138C69.9978 9.31284 69.5367 5.70495 69.5095 5.51506C69.4553 5.21666 69.2925 4.94539 69.0484 4.80976C68.8585 4.70125 68.6415 4.647 68.3973 4.67412C67.8548 4.75551 67.475 5.24379 67.5293 5.78633C67.5293 5.89484 67.7463 8.3634 64.6267 10.5064C65.1692 8.22776 67.7191 4.70125 69.8079 2.47684C70.1606 2.09706 70.1606 1.52739 69.8079 1.12049C69.7537 1.03911 69.6723 0.984853 69.5909 0.930599C69.2383 0.713583 68.8042 0.74071 68.4787 0.984853C68.3431 1.09336 65.3862 3.31777 58.0077 9.85538C57.8992 7.82086 59.9608 5.62357 59.988 5.59644C60.3677 5.21666 60.3406 4.59274 59.9608 4.21297C59.9066 4.15871 59.8523 4.10446 59.7709 4.07733C59.3912 3.86031 58.9029 3.88744 58.5774 4.21297C58.4688 4.32147 56.4343 6.30174 54.1556 10.8862C53.152 8.58041 51.1988 5.92197 49.0829 4.647C47.9436 3.9417 46.8042 3.69755 45.7463 3.91457C45.3665 3.99595 45.0681 4.26722 44.9867 4.61987C44.8782 4.97252 44.9867 5.37943 45.2851 5.62357C46.7229 6.92566 47.4282 8.3634 47.4282 9.99102C47.4282 12.5681 45.6649 15.0638 44.4171 16.5286C44.0644 14.6297 43.7118 11.483 44.6069 8.98732C44.7426 8.58041 44.6341 8.11925 44.2814 7.87511C44.2543 7.84798 44.2272 7.82086 44.1729 7.82086C43.8474 7.63097 43.4134 7.63097 43.0878 7.84798C40.4565 9.63836 38.9645 13.9244 38.2321 16.9355C37.0928 13.8702 36.0348 9.63836 37.1742 7.11555C37.364 6.73578 37.2555 6.27462 36.9571 5.97622C36.9029 5.92197 36.8486 5.89484 36.7944 5.84058C36.496 5.6507 36.1162 5.6507 35.8178 5.81346C29.1717 9.31284 28.8733 16.4744 29.3616 20.7062C28.5478 19.9737 27.5441 19.1871 26.4319 18.536C24.1261 17.1525 21.983 16.61 20.0299 16.9898C19.623 17.0712 19.2975 17.3696 19.2432 17.7765C19.1618 18.1834 19.3517 18.5903 19.7044 18.8073C21.3049 19.7839 22.4442 22.4966 23.1766 25.2635C22.3086 23.9343 21.2777 22.6051 20.0841 21.5471C20.0299 21.52 20.0028 21.4657 19.9485 21.4386C19.7586 21.3301 19.5687 21.2758 19.3517 21.303C19.0804 21.3301 18.8363 21.4657 18.6735 21.6556C18.4294 21.954 18.2395 22.3881 18.131 22.8763C17.9411 21.0317 17.8869 19.1599 17.9682 17.1254C17.9954 16.7456 17.8055 16.4201 17.48 16.2302C17.4528 16.2031 17.4257 16.2031 17.3986 16.2031C17.0459 16.0403 16.6119 16.0675 16.3135 16.3387C11.2407 20.5705 11.4306 29.9565 11.8647 34.6223C10.8338 33.7543 9.47749 32.7506 8.03976 31.8825C5.32706 30.2278 3.04839 29.6581 1.31226 30.1192C0.878231 30.2278 0.579834 30.6347 0.579834 31.0958C0.579834 31.4485 0.769723 31.7469 1.06812 31.9368C1.1495 31.991 1.25801 32.0181 1.33939 32.0453C1.8548 32.1809 2.37022 32.3979 2.88563 32.6963C8.9892 36.3856 13.5194 50.9799 13.5465 51.1155C13.655 51.3326 13.7907 51.5496 14.0077 51.6581Z" fill="url(#paint0_linear_21_861)"/>
<path d="M17.2087 38.1761C17.2087 38.1761 14.8215 25.0195 20.5725 20.2451C20.057 31.0688 24.6144 37.0096 24.6144 37.0096C24.6144 37.0096 21.0879 26.837 22.7697 24.8025C26.0521 27.705 28.0324 33.1576 28.0324 33.1576C28.0324 33.1576 27.2186 23.1748 23.5022 20.8962C28.1409 20.0552 33.1051 26.0774 33.1051 26.0774C33.1051 26.0774 29.7142 15.1181 37.8523 10.832C35.9263 15.0639 39.914 23.0121 39.914 23.0121C39.914 23.0121 40.972 14.9553 44.4442 12.5953C43.0879 16.366 44.6341 21.4387 44.6341 21.4387C44.6341 21.4387 52.3924 14.5213 46.5059 9.20443C49.8967 8.55338 53.8573 15.1995 53.586 17.2611C56.0003 11.5916 58.4146 9.25868 58.4146 9.25868C58.4146 9.25868 55.2136 12.5682 56.8684 15.2537C64.274 8.68901 67.1766 6.4646 67.1766 6.4646C67.1766 6.4646 61.2901 12.7581 62.348 15.7692C67.1224 13.4091 66.6883 9.90973 66.6883 9.90973C66.6883 9.90973 67.3123 14.4671 66.3357 17.3697C66.3357 17.3697 71.6797 16.1489 74.4738 12.2698C74.4738 12.2698 72.7377 17.7494 69.8893 19.8382C75.4232 16.2032 76.6439 13.1107 76.6439 13.1107C76.6439 13.1107 77.5391 18.3734 74.7722 20.6249C79.5465 18.0478 81.4454 13.3006 86.0841 11.673C81.0114 17.1798 79.9534 21.7914 79.9534 21.7914C79.9534 21.7914 84.7549 18.6446 86.3012 15.2809C88.2272 16.2846 84.5379 23.9073 84.5379 23.9073L18.4023 50.4375C18.4023 50.4375 13.4923 34.4054 6.84619 32.7507C10.6168 31.6927 17.2087 38.1761 17.2087 38.1761Z" fill="#318063"/>
<path d="M44.1457 65.7642C44.1728 65.7371 44.1728 65.71 44.1999 65.71C44.3898 65.5472 44.634 65.4387 44.8781 65.4658L116.358 69.996C116.575 70.0232 116.792 70.1045 116.955 70.2673C117.009 70.3216 118.474 71.8407 119.749 73.5768C121.783 76.2895 122.326 78.0528 121.403 79.1378C121.376 79.165 121.349 79.1921 121.322 79.2192C121.159 79.382 120.915 79.4905 120.671 79.4905C120.427 79.4905 120.183 79.382 120.02 79.1921C118.853 77.9442 116.927 76.9405 115.3 76.2624C116.683 77.673 118.853 79.5719 122.027 81.3351C122.38 81.525 122.57 81.959 122.461 82.3388C122.434 82.4744 122.353 82.583 122.271 82.6915C122.109 82.8814 121.837 83.017 121.566 82.9899C118.691 82.9356 116.331 81.6606 114.052 80.4671C113.211 80.0059 112.343 79.5719 111.448 79.165C112.614 81.1724 112.967 83.4239 112.994 83.5595C113.021 83.8308 112.94 84.0749 112.777 84.2648C112.696 84.3733 112.587 84.4547 112.479 84.509C112.126 84.6717 111.692 84.5632 111.421 84.2648C111.421 84.2648 110.851 83.6138 109.467 82.7728C110.363 83.7765 110.959 84.5904 111.014 84.6717C111.258 84.9973 111.231 85.4584 110.959 85.7839C110.932 85.8111 110.932 85.8111 110.905 85.8382C110.607 86.1366 110.119 86.1908 109.739 85.9196C107.352 84.2106 104.286 83.8308 102.469 83.7494C103.798 86.3265 104.422 89.5546 104.449 89.7174C104.503 89.9886 104.422 90.2599 104.259 90.4498C104.123 90.5854 103.961 90.6939 103.744 90.7482C103.255 90.8296 102.794 90.5312 102.686 90.0429C102.659 89.9615 102.143 87.7913 98.8879 86.8419C100 88.6323 103.174 90.9381 105.561 92.2402C105.968 92.4572 106.131 92.9726 105.941 93.3795C105.914 93.4609 105.86 93.5423 105.805 93.5965C105.561 93.8678 105.181 93.9763 104.829 93.8678C104.693 93.8135 101.519 92.7285 93.4083 89.2291C93.8966 90.9923 96.2566 92.2944 96.2838 92.2944C96.7178 92.5114 96.8806 93.054 96.6635 93.488C96.6364 93.5423 96.5822 93.6236 96.555 93.6779C96.3109 93.9763 95.8497 94.0848 95.4971 93.8949C95.3886 93.8407 93.0828 92.7013 89.8547 89.4461C89.6376 91.6976 88.7153 94.5188 87.2776 96.2007C86.4909 97.123 85.5957 97.6384 84.6463 97.7741C84.3207 97.8283 83.9681 97.6656 83.7782 97.3943C83.5883 97.123 83.5883 96.7432 83.7511 96.4449C84.6191 94.9257 84.809 93.5151 84.3479 92.1045C83.6155 89.9072 81.4182 88.2525 79.9533 87.3573C80.1703 89.0934 80.74 91.8604 82.232 93.7322C82.4761 94.0305 82.4761 94.4646 82.2591 94.7901C82.232 94.8172 82.232 94.8444 82.2048 94.8715C81.9878 95.1428 81.6081 95.2513 81.2825 95.1428C78.5156 94.3561 76.0741 91.1008 74.5822 88.7408C74.4737 91.6705 74.7449 95.6039 76.4268 97.4214C76.6981 97.6927 76.7252 98.1267 76.5624 98.4522C76.5353 98.5065 76.5082 98.5608 76.4539 98.615C76.264 98.8592 75.9385 98.9677 75.6401 98.9134C68.9669 97.8012 66.7153 91.7519 65.9558 88.0084C65.4675 88.8493 64.8164 89.7987 64.0569 90.6939C62.4835 92.5114 60.8016 93.5694 59.0384 93.8135C58.6586 93.8678 58.306 93.6779 58.1432 93.3524C57.9533 93.0269 58.0076 92.6199 58.2517 92.3487C59.3639 91.0737 59.5538 88.4424 59.391 85.8653C59.0113 87.2488 58.4959 88.6594 57.7906 89.9072C57.7634 89.9615 57.7363 89.9886 57.7092 90.0429C57.6007 90.1785 57.4379 90.287 57.248 90.3413C57.0039 90.3955 56.7597 90.3684 56.5698 90.2328C56.2714 90.0429 56.0002 89.7445 55.756 89.3376C56.0816 90.8567 56.5427 92.4572 57.1938 94.1662C57.3023 94.4646 57.248 94.8172 57.031 95.0614C57.0039 95.0885 57.0039 95.0885 56.9767 95.1156C56.7326 95.3598 56.3528 95.4412 56.0273 95.3055C50.4663 93.1082 47.9977 85.0244 47.0754 80.9282C46.4243 81.959 45.5834 83.2069 44.5797 84.3462C42.7079 86.5164 40.9447 87.6557 39.3171 87.7371C38.9102 87.7642 38.5304 87.4929 38.4219 87.1132C38.3405 86.8148 38.3947 86.4892 38.5846 86.2722C38.6389 86.218 38.7203 86.1366 38.8017 86.1095C39.2086 85.8653 39.5883 85.5398 39.941 85.1058C44.1185 80.25 43.9015 66.5238 43.9015 66.3881C43.9287 66.144 44.01 65.927 44.1457 65.7642Z" fill="url(#paint1_linear_21_861)"/>
<path d="M49.4356 78.5681C49.4356 78.5681 51.1717 91.1279 57.7636 93.7321C54.1014 84.1292 56.4615 77.4288 56.4615 77.4288C56.4615 77.4288 56.2987 87.6286 58.4146 88.9849C60.5305 85.377 60.6933 79.8974 60.6933 79.8974C60.6933 79.8974 62.9177 89.1477 60.2321 92.2673C64.681 91.6705 67.3665 84.7802 67.3665 84.7802C67.3665 84.7802 67.5564 95.6581 76.1557 97.123C73.1717 93.8678 74.4196 85.5398 74.4196 85.5398C74.4196 85.5398 77.7562 92.4843 81.5811 93.5694C79.221 90.5583 79.1125 85.5398 79.1125 85.5398C79.1125 85.5398 88.1458 89.4732 84.4023 96.0108C87.6575 95.6039 89.258 88.4424 88.39 86.652C92.2149 91.0466 95.1175 92.43 95.1175 92.43C95.1175 92.43 91.2654 90.3955 91.9707 87.4929C100.57 91.2364 103.852 92.3487 103.852 92.3487C103.852 92.3487 96.6908 88.4152 96.7451 85.377C101.736 86.1094 102.387 89.3647 102.387 89.3647C102.387 89.3647 101.601 85.0786 99.8647 82.7457C99.8647 82.7457 105.046 82.2845 108.708 84.9159C108.708 84.9159 105.534 80.4942 102.36 79.4633C108.437 81.1181 110.444 83.5053 110.444 83.5053C110.444 83.5053 109.685 78.4868 106.538 77.2932C111.584 78.2155 114.703 81.9048 119.396 82.0133C113.184 78.541 110.878 74.689 110.878 74.689C110.878 74.689 116.114 76.0996 118.501 78.6766C119.939 77.2118 114.35 71.4337 114.35 71.4337L46.8585 67.1748C46.8585 67.1748 47.1569 83.0712 41.6501 86.5163C45.3937 86.3536 49.4356 78.5681 49.4356 78.5681Z" fill="#318063"/>
<path d="M117.416 82.8816C113.537 82.5289 109.847 79.3279 105.968 79.1109C102.089 78.8939 98.1015 81.6609 94.1952 81.5524C90.316 81.4439 86.464 78.4328 82.5848 78.4328C78.7057 78.4328 74.8536 81.4167 70.9745 81.5524C67.0953 81.6609 63.0805 78.8939 59.2014 79.1109C55.3222 79.3279 51.6329 82.5561 47.7538 82.8816C44.9868 83.1257 42.3555 80.0875 39.7242 79.6263C37.0115 79.1652 33.6206 81.1726 31.1249 80.0875C28.6021 78.9753 27.5984 75.0148 25.4011 73.3329C23.2038 71.6239 19.2975 71.7595 17.5614 69.5622C15.8524 67.3649 16.7205 63.3773 15.5811 60.746C14.4689 58.196 10.9967 56.3243 10.5084 53.4217C10.5084 53.3674 10.4813 53.2047 10.4813 53.1504C10.4813 53.0961 10.4541 52.9334 10.4541 52.9063C10.4541 52.852 10.427 52.7164 10.427 52.6892C9.9116 49.6239 12.6786 46.5314 13.1126 43.5474C13.5466 40.5364 11.8376 36.7386 13.1397 33.9987C14.4147 31.3132 18.3752 30.4451 20.3826 28.1936C22.3086 25.9963 22.7969 21.7916 25.3197 20.164C27.7069 18.5906 31.5318 19.9198 34.353 18.9704C37.0386 18.0481 39.3444 14.5758 42.3284 14.3317C46.7772 13.9519 51.4159 16.5561 55.8919 16.2848C60.3407 16.0136 64.7081 12.8939 69.157 12.7583C73.6329 12.6227 78.136 15.4981 82.5848 15.4981C87.0608 15.4981 91.5639 12.6227 96.0127 12.7583C100.462 12.8939 104.829 16.0136 109.278 16.2848C113.727 16.5561 118.392 13.9248 122.841 14.3317C125.825 14.6029 128.131 18.0752 130.817 18.9704C133.665 19.947 137.463 18.5906 139.85 20.164C142.373 21.8187 142.861 26.0234 144.787 28.1936C146.794 30.4722 150.755 31.3132 152.03 33.9987C153.332 36.7386 151.623 40.5364 152.057 43.5474C152.491 46.5043 155.258 49.5968 154.743 52.6892C154.743 52.7435 154.715 52.8791 154.715 52.9063C154.715 52.9605 154.688 53.1233 154.688 53.1504C154.688 53.2047 154.661 53.3674 154.661 53.4217C154.2 56.3243 150.728 58.196 149.589 60.746C148.449 63.3773 149.317 67.3649 147.608 69.5622C145.872 71.7866 141.966 71.651 139.769 73.3329C137.571 75.0148 136.568 78.9753 134.045 80.0875C131.549 81.1726 128.158 79.1652 125.445 79.6263C122.787 80.0875 120.156 83.0986 117.416 82.8816Z" fill="url(#paint2_linear_21_861)"/>
<path opacity="0.5" d="M151.243 49.8136C151.243 49.8407 151.216 49.9764 151.216 50.0306C151.216 50.0577 151.189 50.2205 151.189 50.2747C151.189 50.3019 151.162 50.4918 151.162 50.5189C150.809 52.4992 148.883 53.964 147.473 55.5374C146.957 56.1071 146.523 56.6767 146.225 57.3006C145.899 57.9788 145.736 58.7655 145.655 59.6064C145.384 61.6952 145.492 64.0281 144.299 65.493C142.617 67.5546 138.792 67.419 136.649 68.9924C134.533 70.5657 133.529 74.2279 131.061 75.2587C128.619 76.2895 125.31 74.4178 122.651 74.8247C120.074 75.2316 117.497 78.0528 114.812 77.8358C111.041 77.5103 107.433 74.5263 103.662 74.3364C99.8647 74.1194 95.9855 76.6964 92.1878 76.5879C88.39 76.4794 84.6464 73.7125 80.8487 73.7125C77.0509 73.7125 73.3074 76.4794 69.5096 76.5879C65.7118 76.6964 61.8055 74.1194 58.0349 74.3364C54.2371 74.5534 50.6563 77.5374 46.8857 77.8358C44.2001 78.0528 41.623 75.2316 39.046 74.8247C36.3875 74.4178 33.078 76.2624 30.6366 75.2587C28.168 74.2279 27.1915 70.5657 25.0484 68.9924C22.9054 67.419 19.1076 67.5546 17.3986 65.493C15.7167 63.4585 16.5848 59.7692 15.4726 57.3006C14.3875 54.9406 10.9967 53.2045 10.5355 50.5189C10.5355 50.4918 10.5084 50.3019 10.5084 50.2747C10.5084 50.2205 10.4812 50.0849 10.4812 50.0306C10.4812 49.9764 10.4541 49.8678 10.4541 49.8136C9.96583 46.9653 12.6514 44.0898 13.0854 41.35C13.5195 38.5559 11.8376 35.0294 13.1126 32.4794C14.3604 29.9838 18.2124 29.1971 20.1656 27.0812C22.0645 25.0466 22.5256 21.1404 24.9942 19.6212C27.3271 18.1564 31.0435 19.4042 33.8105 18.509C36.4146 17.6681 38.6662 14.44 41.5959 14.1958C45.9362 13.8432 50.4664 16.2575 54.8067 16.0134C59.1471 15.7692 63.406 12.8666 67.7463 12.7581C72.0866 12.6496 76.4812 15.3081 80.8487 15.3081C85.2161 15.3081 89.6107 12.6496 93.951 12.7581C98.2913 12.8666 102.55 15.7963 106.891 16.0134C111.231 16.2575 115.788 13.8432 120.101 14.1958C123.031 14.44 125.283 17.6681 127.887 18.509C130.654 19.4042 134.37 18.1564 136.703 19.6212C139.172 21.1404 139.633 25.0466 141.532 27.0812C143.485 29.1971 147.337 29.9838 148.585 32.4794C148.992 33.2661 149.1 34.1884 149.073 35.1108C149.046 36.0331 148.883 36.9825 148.748 37.9591C148.585 39.1256 148.449 40.292 148.612 41.35C149.073 44.0898 151.759 46.9653 151.243 49.8136Z" fill="url(#paint3_linear_21_861)"/>
<path d="M150.131 49.515C150.131 49.5693 150.104 49.6778 150.104 49.732C150.104 49.7863 150.077 49.9219 150.077 49.9762C150.077 50.0033 150.049 50.1661 150.049 50.2203C149.697 52.2277 147.716 53.6926 146.279 55.2931C145.818 55.8356 145.411 56.3781 145.139 56.9478C144.787 57.7074 144.624 58.5754 144.543 59.4706C144.326 61.478 144.38 63.6482 143.241 65.0588C141.559 67.0933 137.788 66.9848 135.672 68.531C133.556 70.1044 132.58 73.7394 130.138 74.7702C127.724 75.7739 124.442 73.9293 121.81 74.3362C119.233 74.7431 116.683 77.5372 114.025 77.3202C110.281 77.0218 106.7 74.0649 102.957 73.8479C99.1863 73.6309 95.3342 76.1808 91.5636 76.0723C87.7929 75.9638 84.0765 73.224 80.3059 73.224C76.5352 73.224 72.8188 75.9909 69.0753 76.0723C65.3047 76.1808 61.4526 73.6309 57.682 73.8479C53.9113 74.0649 50.3577 77.0218 46.6142 77.3202C43.9557 77.5372 41.4058 74.7431 38.8287 74.3362C36.1974 73.9293 32.915 75.7739 30.5007 74.7702C28.0593 73.7394 27.0827 70.1044 24.9668 68.531C23.5833 67.5273 21.4946 67.2289 19.7584 66.5508C18.809 66.1981 17.9681 65.7641 17.3984 65.0588C16.5575 64.0279 16.3676 62.5902 16.2319 61.0982C16.0963 59.6605 16.042 58.1414 15.4995 56.9478C14.4144 54.5878 11.0507 52.8788 10.5895 50.2203C10.5895 50.1661 10.5624 50.0033 10.5624 49.9762C10.5624 49.9219 10.5353 49.7863 10.5081 49.732C10.5081 49.7049 10.481 49.5693 10.481 49.515C9.99272 46.6938 12.6512 43.8455 13.0852 41.1056C13.2751 39.8307 13.0309 38.3658 12.8411 36.9552C12.7054 36.0871 12.5969 35.192 12.6512 34.351C12.6783 33.6186 12.8139 32.9404 13.1395 32.3165C14.3873 29.8479 18.2122 29.0613 20.1382 26.9725C22.01 24.9651 22.4711 21.0859 24.9126 19.5668C27.2455 18.1291 30.9348 19.3498 33.6746 18.4817C36.2517 17.6408 38.5032 14.4398 41.3787 14.1957C44.5254 13.9244 47.7535 15.1451 50.9545 15.7148C52.1481 15.9318 53.3417 16.0674 54.5081 15.986C56.2171 15.9047 57.899 15.3893 59.608 14.7925C62.1851 13.8973 64.7621 12.8122 67.3663 12.7308C71.6795 12.6223 76.047 15.2536 80.3601 15.2536C84.6733 15.2536 89.0408 12.6223 93.354 12.7308C97.6672 12.8393 101.872 15.7419 106.212 15.9589C110.525 16.2031 115.028 13.7888 119.342 14.1685C122.244 14.4127 124.469 17.6137 127.046 18.4546C129.786 19.3498 133.475 18.1019 135.808 19.5397C138.222 21.0588 138.71 24.938 140.582 26.9453C142.535 29.0341 146.36 29.8208 147.581 32.2894C148.856 34.8122 147.174 38.3116 147.608 41.0785C147.961 43.8455 150.619 46.6938 150.131 49.515Z" fill="url(#paint4_linear_21_861)"/>
<path d="M147.445 55.5371C146.93 56.1068 146.496 56.6764 146.198 57.3004C145.872 57.9785 145.709 58.7652 145.628 59.6062C119.884 61.8034 104.829 57.1647 104.069 56.9206C117.796 59.6333 134.343 57.9243 147.445 55.5371Z" fill="url(#paint5_linear_21_861)"/>
<path d="M60.666 63.3228C51.2258 67.1748 29.9311 66.9307 19.7042 66.5509C18.7548 66.1983 17.9139 65.7642 17.3442 65.0589C16.5033 64.0281 16.3134 62.5904 16.1777 61.0984C23.4206 62.726 40.8362 65.8456 60.666 63.3228Z" fill="url(#paint6_linear_21_861)"/>
<path d="M72.8188 70.7827C72.8188 70.7827 107.433 68.3413 111.068 67.0934C114.703 65.8456 111.421 67.0934 111.421 67.0934C111.421 67.0934 95.1172 74.2821 72.8188 70.7827Z" fill="url(#paint7_linear_21_861)"/>
<path d="M22.2542 36.25C18.4565 36.8739 15.0656 36.9824 12.7869 36.9553C12.6513 36.0872 12.5428 35.192 12.597 34.3511C14.93 35.0021 18.4836 35.8431 22.2542 36.25Z" fill="url(#paint8_linear_21_861)"/>
<path d="M59.5269 14.7925C57.0312 17.6679 46.9942 18.0748 40.1311 17.5323C42.9794 17.2339 47.5368 16.393 50.9005 15.7148C52.0941 15.9318 53.2877 16.0674 54.4542 15.9861C56.136 15.8776 57.845 15.3893 59.5269 14.7925Z" fill="url(#paint9_linear_21_861)"/>
<path d="M149.073 35.1106C149.046 36.0329 148.883 36.9824 148.747 37.9589C144.109 37.2265 140.392 35.1106 140.392 35.1106C140.392 35.1106 145.872 35.1106 149.073 35.1106Z" fill="url(#paint10_linear_21_861)"/>
<path d="M140.202 48.349C138.086 62.0482 126.992 71.5155 114.73 71.5155C113.971 71.5155 113.211 71.4884 112.451 71.407C91.7536 69.3725 70.9201 69.3725 50.2222 71.407C37.1198 72.682 24.7228 62.8891 22.4712 48.349C22.2814 47.0198 22.1729 45.7177 22.1729 44.4156C22.1729 44.1444 22.1729 43.8731 22.2 43.6018C22.6069 30.9064 32.3726 19.6216 45.9904 18.2923C69.5095 15.9865 93.1913 15.9865 116.71 18.2923C130.301 19.6216 140.094 30.9335 140.501 43.6289C140.555 45.1481 140.447 46.7486 140.202 48.349Z" fill="#562500"/>
<path d="M139.741 43.3032C139.714 44.3882 139.633 45.4733 139.443 46.5584C137.327 60.0948 126.313 69.4807 114.133 69.4807C113.374 69.4807 112.614 69.4536 111.855 69.3722C91.2924 67.3648 70.5945 67.3648 50.0323 69.3722C37.0113 70.62 24.6957 60.9357 22.4712 46.5584C22.3085 45.4733 22.2 44.3882 22.1729 43.3032C22.5798 30.7434 32.2912 19.567 45.8005 18.2378C69.1839 15.9591 92.703 15.9591 116.087 18.2378C129.623 19.567 139.361 30.7434 139.741 43.3032Z" fill="url(#paint11_linear_21_861)"/>
<path d="M138.005 41.6483C138.005 42.7605 137.897 43.8999 137.707 45.0392C135.672 56.9208 124.984 65.1132 113.211 65.1132C112.479 65.1132 111.746 65.0861 111.014 65.0318C91.1025 63.2686 71.0828 63.2686 51.1444 65.0318C41.1346 65.8999 31.5587 60.7186 26.9472 52.255C25.7536 50.0577 24.9126 47.6434 24.4515 45.0392C24.2616 43.8999 24.1531 42.7606 24.1531 41.6212C24.1531 30.3093 33.7018 20.1366 47.0483 18.943C69.6722 16.9357 92.4589 16.9357 115.083 18.943C128.484 20.1366 138.005 30.3364 138.005 41.6483Z" fill="url(#paint12_linear_21_861)"/>
<path opacity="0.49" d="M138.005 41.6484C138.005 42.7606 137.897 43.9 137.707 45.0393C135.672 56.9209 124.984 65.1133 113.211 65.1133C112.479 65.1133 111.746 65.0862 111.014 65.0319C91.1026 63.2687 71.0829 63.2687 51.1445 65.0319C41.1347 65.9 31.5589 60.7187 26.9473 52.2551C63.0533 62.2107 128.945 52.2008 138.005 41.6484Z" fill="#96440C"/>
<path opacity="0.55" d="M51.9312 26.2674C56.0811 26.2674 59.4453 25.2836 59.4453 24.0701C59.4453 22.8566 56.0811 21.8728 51.9312 21.8728C47.7812 21.8728 44.417 22.8566 44.417 24.0701C44.417 25.2836 47.7812 26.2674 51.9312 26.2674Z" fill="#F9BE93"/>
<path opacity="0.55" d="M40.104 26.3761C40.4024 27.2712 39.263 28.4648 37.5811 29.0074C35.8993 29.5499 34.2988 29.2786 34.0004 28.3835C33.702 27.4883 34.8413 26.2947 36.5232 25.7521C38.2051 25.2096 39.8056 25.4809 40.104 26.3761Z" fill="#F9BE93"/>
<path d="M80.8481 42.6084C80.8481 44.2553 80.5279 45.6445 79.8874 46.7762C79.247 47.903 78.3826 48.7577 77.2943 49.3404C76.206 49.9182 74.9925 50.2071 73.6539 50.2071C72.3055 50.2071 71.0873 49.9158 69.999 49.3331C68.9155 48.7457 68.0535 47.8885 67.4131 46.7617C66.7775 45.6301 66.4596 44.2457 66.4596 42.6084C66.4596 40.9615 66.7775 39.5747 67.4131 38.4479C68.0535 37.3163 68.9155 36.4616 69.999 35.8837C71.0873 35.301 72.3055 35.0097 73.6539 35.0097C74.9925 35.0097 76.206 35.301 77.2943 35.8837C78.3826 36.4616 79.247 37.3163 79.8874 38.4479C80.5279 39.5747 80.8481 40.9615 80.8481 42.6084ZM76.7165 42.6084C76.7165 41.7224 76.5985 40.976 76.3625 40.3693C76.1314 39.7577 75.7871 39.2954 75.3296 38.9824C74.877 38.6646 74.3184 38.5057 73.6539 38.5057C72.9893 38.5057 72.4283 38.6646 71.9709 38.9824C71.5182 39.2954 71.1739 39.7577 70.938 40.3693C70.7068 40.976 70.5913 41.7224 70.5913 42.6084C70.5913 43.4945 70.7068 44.2432 70.938 44.8548C71.1739 45.4615 71.5182 45.9238 71.9709 46.2416C72.4283 46.5546 72.9893 46.7111 73.6539 46.7111C74.3184 46.7111 74.877 46.5546 75.3296 46.2416C75.7871 45.9238 76.1314 45.4615 76.3625 44.8548C76.5985 44.2432 76.7165 43.4945 76.7165 42.6084ZM84.5369 50.0049V35.212H88.5529V41.1927H88.7551L93.2046 35.212H97.8852L92.8868 41.7994L98.0007 50.0049H93.2046L89.882 44.4575L88.5529 46.1911V50.0049H84.5369Z" fill="white"/>
<defs>
<linearGradient id="paint0_linear_21_861" x1="43.969" y1="-13.1383" x2="49.0806" y2="62.7121" gradientUnits="userSpaceOnUse">
<stop offset="2.7e-07" stop-color="#95D543"/>
<stop offset="0.2613" stop-color="#72B74E"/>
<stop offset="0.5762" stop-color="#4F9959"/>
<stop offset="0.8338" stop-color="#398760"/>
<stop offset="1" stop-color="#318063"/>
</linearGradient>
<linearGradient id="paint1_linear_21_861" x1="17.631" y1="92.1743" x2="114.547" y2="71.0504" gradientUnits="userSpaceOnUse">
<stop offset="2.7e-07" stop-color="#95D543"/>
<stop offset="0.2613" stop-color="#72B74E"/>
<stop offset="0.5762" stop-color="#4F9959"/>
<stop offset="0.8338" stop-color="#398760"/>
<stop offset="1" stop-color="#318063"/>
</linearGradient>
<linearGradient id="paint2_linear_21_861" x1="51.7367" y1="-9.78335" x2="123.806" y2="124.508" gradientUnits="userSpaceOnUse">
<stop stop-color="#F8A45B"/>
<stop offset="0.2171" stop-color="#C97F40"/>
<stop offset="0.4733" stop-color="#985825"/>
<stop offset="0.6987" stop-color="#743C11"/>
<stop offset="0.8819" stop-color="#5E2B04"/>
<stop offset="1" stop-color="#562500"/>
</linearGradient>
<linearGradient id="paint3_linear_21_861" x1="81.6667" y1="54.6184" x2="93.6992" y2="135.156" gradientUnits="userSpaceOnUse">
<stop stop-color="#F8A45B"/>
<stop offset="0.3936" stop-color="#CC7937"/>
<stop offset="0.7917" stop-color="#A55318"/>
<stop offset="1" stop-color="#96440C"/>
</linearGradient>
<linearGradient id="paint4_linear_21_861" x1="70.4329" y1="-5.2102" x2="87.1174" y2="84.309" gradientUnits="userSpaceOnUse">
<stop stop-color="#F8A45B"/>
<stop offset="0.3936" stop-color="#CC7937"/>
<stop offset="0.7917" stop-color="#A55318"/>
<stop offset="1" stop-color="#96440C"/>
</linearGradient>
<linearGradient id="paint5_linear_21_861" x1="125.782" y1="56.5498" x2="126.098" y2="62.3312" gradientUnits="userSpaceOnUse">
<stop offset="0.3844" stop-color="#96440C"/>
<stop offset="0.3989" stop-color="#9A4810"/>
<stop offset="0.5039" stop-color="#B76427"/>
</linearGradient>
<linearGradient id="paint6_linear_21_861" x1="38.461" y1="60.9318" x2="38.0924" y2="71.866" gradientUnits="userSpaceOnUse">
<stop offset="0.3844" stop-color="#96440C"/>
<stop offset="0.3989" stop-color="#9A4810"/>
<stop offset="0.5039" stop-color="#B76427"/>
</linearGradient>
<linearGradient id="paint7_linear_21_861" x1="92.8053" y1="69.0962" x2="92.9122" y2="72.7327" gradientUnits="userSpaceOnUse">
<stop offset="0.3844" stop-color="#96440C"/>
<stop offset="0.3989" stop-color="#9A4810"/>
<stop offset="0.5039" stop-color="#B76427"/>
</linearGradient>
<linearGradient id="paint8_linear_21_861" x1="17.5411" y1="33.7299" x2="17.0999" y2="39.345" gradientUnits="userSpaceOnUse">
<stop offset="0.3844" stop-color="#96440C"/>
<stop offset="0.3989" stop-color="#9A4810"/>
<stop offset="0.5039" stop-color="#B76427"/>
</linearGradient>
<linearGradient id="paint9_linear_21_861" x1="49.7594" y1="15.4861" x2="50.0268" y2="18.4808" gradientUnits="userSpaceOnUse">
<stop offset="0.3844" stop-color="#96440C"/>
<stop offset="0.3989" stop-color="#9A4810"/>
<stop offset="0.5039" stop-color="#B76427"/>
</linearGradient>
<linearGradient id="paint10_linear_21_861" x1="145.075" y1="33.2654" x2="144.129" y2="39.6775" gradientUnits="userSpaceOnUse">
<stop offset="0.3844" stop-color="#96440C"/>
<stop offset="0.3989" stop-color="#9A4810"/>
<stop offset="0.5039" stop-color="#B76427"/>
</linearGradient>
<linearGradient id="paint11_linear_21_861" x1="79.2861" y1="28.9095" x2="84.8204" y2="76.2187" gradientUnits="userSpaceOnUse">
<stop stop-color="#F8A45B"/>
<stop offset="0.2171" stop-color="#C97F40"/>
<stop offset="0.4733" stop-color="#985825"/>
<stop offset="0.6987" stop-color="#743C11"/>
<stop offset="0.8819" stop-color="#5E2B04"/>
<stop offset="1" stop-color="#562500"/>
</linearGradient>
<linearGradient id="paint12_linear_21_861" x1="81.0913" y1="19.7426" x2="81.0913" y2="72.4489" gradientUnits="userSpaceOnUse">
<stop stop-color="#F8A45B"/>
<stop offset="0.3936" stop-color="#CC7937"/>
<stop offset="0.7917" stop-color="#A55318"/>
<stop offset="1" stop-color="#96440C"/>
</linearGradient>
</defs>
</svg>
