<svg width="119" height="156" viewBox="0 0 119 156" fill="none" xmlns="http://www.w3.org/2000/svg">
<path d="M6.46999 114.224C6.45778 114.158 6.41848 114.13 6.44556 114.091C6.39937 113.654 6.48592 113.192 6.76894 112.865L84.6905 13.8464C84.9464 13.5591 85.281 13.326 85.6792 13.2527C85.812 13.2283 89.4749 12.6229 93.2625 12.5093C99.2231 12.2703 102.319 13.2447 102.97 15.664C102.982 15.7304 102.994 15.7967 103.007 15.8631C103.08 16.2614 102.993 16.7234 102.75 17.077C102.506 17.4307 102.105 17.676 101.667 17.7222C98.6953 18.1661 95.3186 19.954 92.7114 21.6347C96.1358 21.0389 101.053 19.791 106.776 16.9538C107.403 16.6325 108.221 16.7908 108.663 17.3271C108.832 17.5018 108.908 17.728 108.984 17.9542C109.097 18.3796 109.022 18.9079 108.712 19.2738C105.763 23.3848 101.56 25.5306 97.5563 27.6398C96.0487 28.3976 94.5534 29.2217 93.0703 30.1122C97.1426 30.4265 100.756 32.1635 100.98 32.2596C101.4 32.4911 101.672 32.8527 101.785 33.278C101.861 33.5043 101.87 33.7427 101.84 33.954C101.724 34.6273 101.134 35.1477 100.431 35.2428C100.431 35.2428 98.9189 35.418 96.3196 36.5825C98.6672 36.2878 100.442 36.2358 100.614 36.2384C101.329 36.2097 101.97 36.7094 102.171 37.4273C102.183 37.4937 102.183 37.4937 102.195 37.5601C102.33 38.2902 101.921 39.0517 101.149 39.331C96.2898 41.0828 92.6795 45.144 90.7472 47.6955C95.8072 48.3428 101.106 50.6617 101.369 50.7849C101.816 50.9771 102.128 51.3658 102.24 51.7911C102.301 52.123 102.296 52.4671 102.158 52.8356C101.788 53.6241 100.896 53.9943 100.08 53.664C99.9352 53.622 96.2771 52.2021 91.652 55.9696C95.3558 56.1459 101.864 53.8504 106.134 51.6923C106.854 51.3196 107.763 51.5984 108.163 52.2796C108.254 52.4002 108.318 52.56 108.342 52.6928C108.491 53.3172 108.269 53.9757 107.76 54.3782C107.546 54.5205 102.806 58.0347 89.6395 66.2903C92.6811 67.3433 96.9234 65.2245 96.9505 65.1853C97.6981 64.7732 98.6465 65.0791 99.0585 65.8267C99.1101 65.9202 99.1738 66.08 99.2253 66.1735C99.4138 66.825 99.1106 67.6013 98.4835 67.9226C98.2966 68.0256 94.3443 70.2282 86.4062 71.6545C89.451 74.2166 92.6169 78.3691 93.6179 82.1308C94.1685 84.1911 94.0214 86.0024 93.2701 87.5131C93.0237 88.0388 92.4358 88.3871 91.8533 88.3914C91.2708 88.3956 90.7207 88.0165 90.4509 87.4828C89.117 84.7088 87.2633 83.0255 84.7596 82.2853C80.8455 81.1527 76.255 82.6836 73.4959 83.9118C76.2274 85.3306 80.8041 87.2678 85.0049 86.9752C85.6809 86.9194 86.3096 87.3527 86.5645 87.992C86.5767 88.0584 86.616 88.0855 86.6282 88.1519C86.8045 88.7371 86.5826 89.3955 86.1004 89.7587C82.1986 92.9814 75.0459 93.2682 70.1378 93.0733C74.2733 96.1552 80.2418 99.6891 84.5536 99.0673C85.2173 98.9451 85.8731 99.3392 86.1822 99.8999C86.2337 99.9934 86.2852 100.087 86.3096 100.22C86.4737 100.738 86.3059 101.318 85.9294 101.696C77.6563 110.252 66.6459 107.475 60.465 104.838C61.1956 106.385 61.921 108.276 62.4594 110.269C63.5215 114.363 63.3749 117.855 61.9683 120.653C61.6677 121.258 61.0406 121.579 60.4066 121.49C59.7455 121.44 59.2102 120.955 59.061 120.33C58.3245 117.447 54.7025 114.545 50.807 112.208C52.4319 114.139 53.9607 116.294 55.0641 118.561C55.1156 118.655 55.1278 118.721 55.1793 118.814C55.2675 119.107 55.2622 119.451 55.1512 119.78C54.986 120.188 54.703 120.515 54.317 120.654C53.744 120.897 53.041 120.992 52.2078 120.94C54.7333 121.985 57.5121 122.914 60.6376 123.677C61.1781 123.818 61.6348 124.249 61.7718 124.807C61.784 124.873 61.784 124.873 61.7962 124.94C61.9061 125.537 61.6449 126.168 61.1234 126.504C52.3889 132.366 38.2147 127.872 31.3605 125.119C32.2037 127.091 33.1717 129.555 33.8201 132.146C35.095 137.024 34.9851 140.715 33.4781 143.154C33.1112 143.771 32.3391 144.05 31.6807 143.828C31.1672 143.648 30.7498 143.245 30.625 142.753C30.6006 142.62 30.564 142.421 30.6059 142.276C30.6585 141.443 30.5661 140.568 30.2894 139.624C27.4262 128.725 7.32651 115.336 7.13004 115.2C6.80347 114.917 6.57035 114.583 6.46999 114.224Z" fill="url(#paint0_linear_23_1516)"/>
<path d="M30.2982 119.344C30.2982 119.344 50.2248 129.367 60.5778 122.419C43.0116 118.137 35.6619 108.029 35.6619 108.029C35.6619 108.029 50.2742 118.447 54.3512 116.736C51.2374 110.07 43.4624 104.363 43.4624 104.363C43.4624 104.363 59.0825 110.376 60.9203 117.38C64.4972 110.34 57.1974 99.5716 57.1974 99.5716C57.1974 99.5716 73.1441 110.156 83.8508 99.1621C76.1565 100.235 65.3388 90.1132 65.3388 90.1132C65.3388 90.1132 78.7292 92.2128 84.1195 87.7555C77.4017 88.1681 70.0239 83.3153 70.0239 83.3153C70.0239 83.3153 84.7397 74.157 90.4724 86.1062C93.1328 80.9847 84.3568 71.5168 80.8968 70.9868C91.081 69.8335 95.9827 67.0101 95.9827 67.0101C95.9827 67.0101 89.19 70.5589 85.6896 66.6395C99.6971 57.9203 104.585 54.276 104.585 54.276C104.585 54.276 91.7378 60.723 87.391 57.6113C93.4349 51.1123 98.8002 53.419 98.8002 53.419C98.8002 53.419 91.8063 50.2797 86.6938 50.4655C86.6938 50.4655 91.1983 42.4999 98.6658 39.822C98.6658 39.822 89.0923 40.0052 84.4306 43.5736C92.8938 36.4235 98.3557 35.8989 98.3557 35.8989C98.3557 35.8989 90.3279 31.9891 85.4575 35.3557C91.8307 28.9677 100.289 28.1319 105.131 21.4422C93.9 26.9743 86.0183 26.4688 86.0183 26.4688C86.0183 26.4688 93.2883 20.2931 99.4044 19.4079C98.7178 15.8629 84.7693 18.1893 84.7693 18.1893L11.2217 111.703C11.2217 111.703 34.5462 127.14 34.0391 138.556C37.5406 132.971 30.2982 119.344 30.2982 119.344Z" fill="#318063"/>
<defs>
<linearGradient id="paint0_linear_23_1516" x1="18.256" y1="178.997" x2="84.4097" y2="17.5223" gradientUnits="userSpaceOnUse">
<stop offset="2.7e-07" stop-color="#95D543"/>
<stop offset="0.2613" stop-color="#72B74E"/>
<stop offset="0.5762" stop-color="#4F9959"/>
<stop offset="0.8338" stop-color="#398760"/>
<stop offset="1" stop-color="#318063"/>
</linearGradient>
</defs>
</svg>
