<svg width="122" height="156" viewBox="0 0 122 156" fill="none" xmlns="http://www.w3.org/2000/svg">
<path d="M6.5425 42.1716C6.53029 42.2379 6.49099 42.265 6.51807 42.3043C6.47188 42.7419 6.55843 43.2038 6.84145 43.5304L84.763 142.549C85.0189 142.836 85.3535 143.07 85.7517 143.143C85.8845 143.167 89.5474 143.773 93.335 143.886C99.2956 144.125 102.391 143.151 103.042 140.732C103.055 140.665 103.067 140.599 103.079 140.532C103.152 140.134 103.066 139.672 102.822 139.319C102.578 138.965 102.177 138.72 101.74 138.673C98.7678 138.229 95.3911 136.441 92.7839 134.761C96.2083 135.357 101.125 136.605 106.848 139.442C107.475 139.763 108.294 139.605 108.735 139.068C108.905 138.894 108.981 138.667 109.057 138.441C109.169 138.016 109.095 137.488 108.785 137.122C105.836 133.011 101.633 130.865 97.6288 128.756C96.1213 127.998 94.6259 127.174 93.1428 126.283C97.2151 125.969 100.829 124.232 101.052 124.136C101.472 123.904 101.745 123.543 101.857 123.117C101.933 122.891 101.943 122.653 101.913 122.441C101.797 121.768 101.206 121.248 100.503 121.153C100.503 121.153 98.9914 120.977 96.3921 119.813C98.7397 120.108 100.514 120.16 100.686 120.157C101.402 120.186 102.043 119.686 102.243 118.968C102.255 118.902 102.255 118.902 102.268 118.835C102.402 118.105 101.993 117.344 101.221 117.064C96.3624 115.313 92.752 111.252 90.8197 108.7C95.8797 108.053 101.179 105.734 101.441 105.611C101.889 105.418 102.2 105.03 102.313 104.604C102.374 104.273 102.369 103.928 102.231 103.56C101.861 102.771 100.968 102.401 100.153 102.732C100.008 102.773 96.3496 104.193 91.7245 100.426C95.4283 100.25 101.937 102.545 106.206 104.703C106.927 105.076 107.836 104.797 108.236 104.116C108.326 103.995 108.39 103.836 108.415 103.703C108.564 103.078 108.342 102.42 107.833 102.017C107.619 101.875 102.878 98.3608 89.712 90.1052C92.7537 89.0522 96.9959 91.171 97.023 91.2103C97.7706 91.6223 98.719 91.3165 99.1311 90.5688C99.1826 90.4753 99.2463 90.3155 99.2978 90.2221C99.4863 89.5705 99.1831 88.7942 98.556 88.4729C98.3691 88.3699 94.4168 86.1673 86.4787 84.741C89.5235 82.1789 92.6894 78.0264 93.6904 74.2647C94.241 72.2044 94.0939 70.3932 93.3426 68.8824C93.0962 68.3567 92.5084 68.0084 91.9258 68.0041C91.3433 67.9999 90.7932 68.379 90.5235 68.9127C89.1896 71.6867 87.3358 73.37 84.8321 74.1102C80.918 75.2428 76.3275 73.7119 73.5684 72.4837C76.2999 71.0649 80.8766 69.1277 85.0774 69.4203C85.7534 69.4761 86.3821 69.0428 86.637 68.4035C86.6492 68.3371 86.6885 68.31 86.7007 68.2436C86.877 67.6584 86.6551 67 86.1729 66.6368C82.2711 63.4141 75.1184 63.1274 70.2103 63.3222C74.3458 60.2403 80.3143 56.7064 84.6261 57.3282C85.2899 57.4504 85.9456 57.0564 86.2547 56.4956C86.3062 56.4022 86.3577 56.3087 86.3821 56.1759C86.5462 55.6572 86.3784 55.0773 86.0019 54.6992C77.7289 46.1431 66.7184 48.9208 60.5375 51.5577C61.2681 50.0109 61.9935 48.12 62.532 46.1261C63.594 42.0325 63.4474 38.5401 62.0408 35.7422C61.7402 35.1379 61.1131 34.8167 60.4791 34.9059C59.818 34.9558 59.2827 35.4406 59.1335 36.0651C58.397 38.949 54.775 41.8509 50.8795 44.1879C52.5044 42.2566 54.0332 40.1018 55.1366 37.8344C55.1881 37.7409 55.2003 37.6745 55.2518 37.5811C55.34 37.2885 55.3347 36.9444 55.2237 36.6152C55.0586 36.2074 54.7755 35.8808 54.3895 35.7411C53.8165 35.4985 53.1135 35.4034 52.2803 35.456C54.8058 34.411 57.5846 33.4812 60.7101 32.7181C61.2506 32.5774 61.7073 32.1468 61.8443 31.5887C61.8565 31.5223 61.8565 31.5223 61.8687 31.4559C61.9787 30.8585 61.7174 30.2272 61.196 29.891C52.4614 24.0292 38.2872 28.5236 31.433 31.2769C32.2762 29.3048 33.2442 26.8409 33.8926 24.2496C35.1676 19.3717 35.0576 15.6802 33.5506 13.2412C33.1837 12.6247 32.4116 12.3454 31.7532 12.5674C31.2397 12.7474 30.8223 13.151 30.6975 13.6427C30.6731 13.7754 30.6365 13.9746 30.6784 14.1195C30.731 14.9527 30.6386 15.8278 30.362 16.7719C27.4987 27.6708 7.39902 41.0596 7.20255 41.195C6.87598 41.4781 6.64286 41.8126 6.5425 42.1716Z" fill="url(#paint0_linear_23_1525)"/>
<path d="M30.3707 37.0518C30.3707 37.0518 50.2973 27.028 60.6503 33.9768C43.0841 38.2588 35.7344 48.3666 35.7344 48.3666C35.7344 48.3666 50.3467 37.9482 54.4237 39.6591C51.3099 46.3259 43.5349 52.0321 43.5349 52.0321C43.5349 52.0321 59.155 46.0195 60.9928 39.015C64.5697 46.0551 57.2699 56.8239 57.2699 56.8239C57.2699 56.8239 73.2166 46.2394 83.9233 57.2334C76.229 56.1607 65.4113 66.2823 65.4113 66.2823C65.4113 66.2823 78.8017 64.1827 84.192 68.64C77.4742 68.2274 70.0964 73.0802 70.0964 73.0802C70.0964 73.0802 84.8122 82.2385 90.545 70.2893C93.2053 75.4109 84.4293 84.8787 80.9693 85.4087C91.1535 86.562 96.0552 89.3854 96.0552 89.3854C96.0552 89.3854 89.2626 85.8366 85.7621 89.756C99.7696 98.4752 104.658 102.12 104.658 102.12C104.658 102.12 91.8103 95.6725 87.4635 98.7842C93.5074 105.283 98.8727 102.977 98.8727 102.977C98.8727 102.977 91.8788 106.116 86.7663 105.93C86.7663 105.93 91.2708 113.896 98.7383 116.574C98.7383 116.574 89.1648 116.39 84.5031 112.822C92.9663 119.972 98.4282 120.497 98.4282 120.497C98.4282 120.497 90.4004 124.406 85.5301 121.04C91.9032 127.428 100.362 128.264 105.204 134.953C93.9725 129.421 86.0908 129.927 86.0908 129.927C86.0908 129.927 93.3608 136.102 99.477 136.988C98.7904 140.533 84.8419 138.206 84.8419 138.206L11.2942 44.693C11.2942 44.693 34.6188 29.2556 34.1117 17.8394C37.6131 23.4246 30.3707 37.0518 30.3707 37.0518Z" fill="#318063"/>
<defs>
<linearGradient id="paint0_linear_23_1525" x1="18.3286" y1="-22.6016" x2="84.4822" y2="138.873" gradientUnits="userSpaceOnUse">
<stop offset="2.7e-07" stop-color="#95D543"/>
<stop offset="0.2613" stop-color="#72B74E"/>
<stop offset="0.5762" stop-color="#4F9959"/>
<stop offset="0.8338" stop-color="#398760"/>
<stop offset="1" stop-color="#318063"/>
</linearGradient>
</defs>
</svg>
